<svg width="30" height="30" viewBox="0 0 30 30" fill="none" xmlns="http://www.w3.org/2000/svg">
<path d="M15 0.740234C6.7125 0.740234 2.18932e-06 7.45273 2.18932e-06 15.7402C-0.00169914 18.8891 0.988222 21.9586 2.82933 24.5132C4.67043 27.0679 7.26922 28.9778 10.257 29.9722C11.007 30.1027 11.2875 29.6527 11.2875 29.2582C11.2875 28.9027 11.268 27.7222 11.268 26.4652C7.5 27.1597 6.525 25.5472 6.225 24.7027C6.0555 24.2707 5.325 22.9402 4.6875 22.5832C4.1625 22.3027 3.4125 21.6082 4.668 21.5902C5.85 21.5707 6.693 22.6777 6.975 23.1277C8.325 25.3957 10.482 24.7582 11.343 24.3652C11.475 23.3902 11.868 22.7347 12.3 22.3597C8.9625 21.9847 5.475 20.6902 5.475 14.9527C5.475 13.3207 6.0555 11.9722 7.0125 10.9207C6.8625 10.5457 6.3375 9.00823 7.1625 6.94573C7.1625 6.94573 8.418 6.55273 11.2875 8.48473C12.5086 8.14583 13.7703 7.97525 15.0375 7.97773C16.3125 7.97773 17.5875 8.14573 18.7875 8.48323C21.6555 6.53323 22.9125 6.94723 22.9125 6.94723C23.7375 9.00973 23.2125 10.5472 23.0625 10.9222C24.018 11.9722 24.6 13.3027 24.6 14.9527C24.6 20.7097 21.0945 21.9847 17.757 22.3597C18.3 22.8277 18.7695 23.7277 18.7695 25.1347C18.7695 27.1402 18.75 28.7527 18.75 29.2597C18.75 29.6527 19.032 30.1207 19.782 29.9707C22.7595 28.9654 25.3469 27.0517 27.1799 24.499C29.0128 21.9462 29.9991 18.8829 30 15.7402C30 7.45273 23.2875 0.740234 15 0.740234Z" fill="#FFFCF3"/>
</svg>
