<svg width="67" height="30" viewBox="0 0 67 30" fill="none" xmlns="http://www.w3.org/2000/svg">
<g clip-path="url(#clip0_12361_3000)">
<path d="M0 0H12.4069V4.66667H6.0794V25.3333H12.4069V30H0V0Z" fill="black"/>
<path d="M25.0619 5.83333C27.1297 5.83333 29.4871 6.58333 31.679 8.04167L32.7129 1.58333C30.6037 0.541667 28.1223 0 25.2687 0C19.2307 0 15.5499 3.41667 15.5499 8.08333V8.16667C15.5499 13.375 19.6856 14.875 25.0206 16.125C28.4118 16.9167 29.2389 17.5 29.2389 18.5417V18.625C29.2389 19.7083 28.2464 20.375 26.3853 20.375C23.4904 20.375 20.7195 19.3333 18.2381 17.3333L14.3506 22C17.4523 24.7917 21.6707 26.2083 26.1372 26.2083C27.0884 26.2083 27.9569 26.125 28.8254 26L31.224 11.25C29.9833 10.75 28.5772 10.3333 26.9643 10C23.4077 9.16667 22.5805 8.66667 22.5805 7.5V7.41667C22.5805 6.54167 23.4077 5.83333 25.0619 5.83333Z" fill="black"/>
<path d="M51.3233 24.0413V29.9997H31.7617L32.1753 27.5413L33.54 19.083L35.8974 4.70801H51.1579V10.6663H37.8411V14.4997H49.8759V19.9997H37.8411V24.0413H51.3233Z" fill="black"/>
<path d="M54.2598 25.3333H60.5873V4.66667H54.2598V0H66.6667V30H54.2598V25.3333Z" fill="black"/>
</g>
<defs>
<clipPath id="clip0_12361_3000">
<rect width="66.6667" height="30" fill="white"/>
</clipPath>
</defs>
</svg>
