<svg width="80" height="75" viewBox="0 0 80 75" fill="none" xmlns="http://www.w3.org/2000/svg">
<path fill-rule="evenodd" clip-rule="evenodd" d="M78.3013 19.7049L71.2114 29.6354L64.1215 19.7049H67.9871C67.6924 12.3264 61.6079 6.42361 54.1713 6.42361C47.8961 6.42361 42.5743 10.6424 40.8929 16.3889C38.8474 15.7292 36.7325 15.3125 34.583 15.1215C34.8257 14.2014 35.1377 13.2812 35.5191 12.3958C36.5418 9.98264 37.998 7.8125 39.8528 5.95486C41.7076 4.09722 43.8744 2.62153 46.284 1.61458C48.7802 0.538194 51.4324 0 54.1713 0C56.9102 0 59.5624 0.538194 62.0586 1.59722C64.4682 2.62153 66.635 4.07986 68.4898 5.9375C70.3447 7.79514 71.8008 9.96528 72.8235 12.3785C73.8116 14.7049 74.349 17.1701 74.401 19.7049H78.3013Z" fill="black"/>
<path fill-rule="evenodd" clip-rule="evenodd" d="M68.3859 74.9999V70.729H43.9438C44.1172 70.6422 44.2905 70.5728 44.4639 70.486C47.1161 69.2186 49.5603 67.5693 51.7445 65.5554C52.0392 65.2776 52.3165 65.0172 52.5766 64.7568C52.8713 64.4617 53.1833 64.1492 53.478 63.8193C53.8247 63.4374 54.1714 63.0381 54.4834 62.6387H68.3859V58.3679L80.0002 66.6839L68.3859 74.9999Z" fill="black"/>
<path fill-rule="evenodd" clip-rule="evenodd" d="M59.3716 44.1493C59.3716 47.8472 58.6435 51.4409 57.2221 54.8264C56.0087 57.7083 54.3099 60.3472 52.195 62.6562C51.9177 62.9514 51.6403 63.2465 51.3629 63.5416C51.1029 63.8021 50.8429 64.0451 50.5829 64.3055C48.5374 66.1979 46.2492 67.743 43.753 68.9409C43.4063 69.1146 43.0422 69.2708 42.6782 69.4271C42.6609 69.4271 42.6609 69.4444 42.6435 69.4444C40.5634 70.3298 38.3272 70.7639 36.0563 70.7639H0V62.6909H33.4735C43.597 62.6909 51.9003 54.5833 52.039 44.4444C52.039 44.3576 52.039 44.2708 52.039 44.184C52.039 33.1076 43.0596 24.1146 32 24.1146C20.9404 24.0798 11.961 33.0555 11.961 44.1493H16.6067L8.30336 55.7812L0 44.1493H4.64572C4.64572 40.4514 5.37378 36.8576 6.79523 33.4722C8.18201 30.2083 10.1408 27.2743 12.6544 24.7569C15.1679 22.2396 18.0975 20.2604 21.3564 18.8889C24.7367 17.4653 28.325 16.7361 32.0173 16.7361C32.7627 16.7361 33.4908 16.7708 34.2188 16.8229C36.3684 16.9965 38.4659 17.4132 40.5114 18.0902C41.2394 18.3333 41.9502 18.5937 42.6609 18.9062C45.9198 20.2951 48.8494 22.2569 51.3629 24.7743C53.8765 27.2916 55.8526 30.2257 57.2221 33.4896C58.6435 36.8576 59.3716 40.4514 59.3716 44.1493Z" fill="black"/>
</svg>
