<?xml version="1.0" standalone="no"?>
<!DOCTYPE svg PUBLIC "-//W3C//DTD SVG 1.1//EN" "http://www.w3.org/Graphics/SVG/1.1/DTD/svg11.dtd">
<svg xmlns="http://www.w3.org/2000/svg">
<defs >
<font id="Overpass" horiz-adv-x="1148" ><font-face
    font-family="Overpass Light"
    units-per-em="2000"
    panose-1="0 0 0 0 0 0 0 0 0 0"
    ascent="1766"
    descent="-766"
    alphabetic="0" />
<glyph unicode=" " horiz-adv-x="451" />
<glyph unicode="!" horiz-adv-x="524" d="M300 386L355 964L437 1424H573L492 964L341 386H300ZM249 -28Q208 -28 184 0T159 67Q159 117 196 155T283 193Q326 193 350 165T375 99Q375 50 338 11T249 -28Z" />
<glyph unicode="&quot;" horiz-adv-x="745" d="M627 858L699 1400H859L739 858H627ZM280 858L353 1400H511L391 858H280Z" />
<glyph unicode="#" horiz-adv-x="1327" d="M279 0L408 408H174L217 532H445L563 893H335L373 1015H599L731 1400H848L725 1015H1023L1146 1400H1275L1154 1015H1386L1347 893H1118L1002 532H1228L1189 408H963L836 0H705L834 408H535L406 0H279ZM572 532H871L987
893H688L572 532Z" />
<glyph unicode="$" horiz-adv-x="1144" d="M463 -195L493 -18Q400 -4 334 39T226 146T171 280L303 327Q330 226 401 167T592 108Q688 108 763 142T880 241T923 399Q923 479 884 532T782 623T651 695Q576 732 507 775T392 882T347 1049Q347 1142 394 1223T531 1357T745
1421L773 1577H907L879 1416Q955 1404 1010 1371T1098 1290T1141 1183L1010 1139Q992 1206 936 1250T778 1294Q647 1294 569 1233T490 1069Q490 1006 524 963T613 888T733 823Q793 795 852 762T959 684T1037 577T1067 425Q1067 297 1012 201T858 48T629 -21L599
-195H463Z" />
<glyph unicode="%" horiz-adv-x="1705" d="M305 -24L1491 1424H1633L447 -24H305ZM556 708Q463 708 407 751T325 860T299 995Q299 1062 321 1136T389 1276T505 1382T672 1424Q765 1424 821 1381T902 1271T927 1136Q927 1064 905 989T838 850T722 747T556 708ZM571
825Q648 825 699 869T777 982T803 1123Q803 1172 788 1213T741 1281T655 1307Q597 1307 554 1281T481 1210T438 1112T424 1006Q424 958 439 917T486 851T571 825ZM1277 -24Q1183 -24 1127 18T1045 126T1019 261Q1019 328 1041 403T1108 543T1224 649T1392 691Q1485
691 1540 648T1621 538T1646 403Q1646 332 1624 257T1557 118T1442 15T1277 -24ZM1291 92Q1367 92 1418 137T1496 250T1522 391Q1522 439 1507 481T1460 549T1375 575Q1316 575 1273 548T1202 477T1159 380T1145 274Q1145 226 1159 185T1206 118T1291 92Z" />
<glyph unicode="&amp;" horiz-adv-x="1279" d="M470 -24Q320 -24 234 62T147 287Q147 409 199 498T344 657T555 787Q498 880 471 951T443 1085Q443 1190 493 1266T626 1383T805 1424Q925 1424 999 1353T1073 1168Q1073 1081 1033 1011T918 881T738 762L965 408Q1008
472 1036 536T1078 649H1207Q1188 570 1148 479T1038 297L1227 0H1057L937 185Q837 87 717 32T470 -24ZM510 105Q605 105 700 154T874 287L613 693Q453 606 368 521T283 319Q283 221 345 163T510 105ZM681 853Q806 920 873 990T940 1149Q940 1221 897 1263T785
1305Q693 1305 633 1249T573 1107Q573 1056 602 993T681 853Z" />
<glyph unicode="&apos;" horiz-adv-x="399" d="M280 858L353 1400H511L391 858H280Z" />
<glyph unicode="(" horiz-adv-x="661" d="M354 -260Q322 -201 295 -115T250 79T233 311Q233 516 272 686T375 995T516 1239T671 1424H803Q771 1392 718 1326T605 1162T492 938T404 660T369 331Q369 182 391 61T440 -143T483 -260H354Z" />
<glyph unicode=")" horiz-adv-x="661" d="M69 -260Q97 -227 146 -164T252 -8T360 208T444 480T477 809Q477 958 454 1085T401 1301T351 1424H480Q516 1363 546 1272T595 1068T614 828Q614 624 578 458T482 160T349 -76T199 -260H69Z" />
<glyph unicode="*" horiz-adv-x="1031" d="M414 599L319 683L475 859L615 971L468 991L279 1060L340 1185L525 1118L648 1032L647 1194L685 1415H819L780 1193L719 1032L872 1121L1077 1185L1101 1057L889 989L729 971L828 859L927 679L808 599L709 782L666 937L573
782L414 599Z" />
<glyph unicode="+" horiz-adv-x="1264" d="M671 216V617H277V752H671V1156H811V752H1209V617H811V216H671Z" />
<glyph unicode="," horiz-adv-x="421" d="M119 -282L81 -261Q102 -241 130 -205T180 -124T211 -31Q170 -29 145 -3T119 61Q119 119 156 155T241 191Q282 191 311 163T341 77Q341 4 309 -64T227 -189T119 -282Z" />
<glyph unicode="-" horiz-adv-x="777" d="M251 528L275 663H721L698 528H251Z" />
<glyph unicode="." horiz-adv-x="420" d="M206 -28Q165 -28 141 0T117 67Q117 117 155 155T242 193Q285 193 309 165T334 99Q334 50 296 11T206 -28Z" />
<glyph unicode="/" horiz-adv-x="947" d="M-53 -260L1009 1424H1143L82 -260H-53Z" />
<glyph unicode="0" horiz-adv-x="1199" d="M602 -25Q498 -25 427 19T312 137T250 303T231 489Q231 581 243 684T284 893T359 1094T471 1264T624 1382T823 1425Q928 1425 999 1381T1113 1261T1174 1095T1193 911Q1193 801 1174 674T1113 424T1003 199T835 36T602
-25ZM615 105Q720 105 795 165T921 320T1000 525T1041 734T1054 901Q1054 998 1033 1088T958 1236T809 1295Q703 1295 628 1235T502 1078T424 872T383 663T370 499Q370 402 391 312T466 163T615 105Z" />
<glyph unicode="1" horiz-adv-x="655" d="M295 0L496 1133H271L287 1225Q360 1225 415 1240T513 1292T586 1400H681L434 0H295Z" />
<glyph unicode="2" horiz-adv-x="1152" d="M129 0Q149 133 197 230T315 398T467 527T639 637Q720 685 792 731T920 829T1008 941T1040 1078Q1040 1172 978 1234T797 1296Q676 1296 592 1235T461 1068L348 1125Q404 1253 525 1338T805 1424Q923 1424 1007 1379T1137
1258T1182 1085Q1182 981 1142 901T1034 755T876 633T689 518Q593 462 517 405T388 283T313 135H1025L1001 0H129Z" />
<glyph unicode="3" horiz-adv-x="1132" d="M579 -24Q413 -24 296 62T143 297L271 343Q303 226 381 166T579 105Q681 105 758 146T878 260T921 429Q921 542 854 603T662 664H569L592 793H668Q761 793 832 831T944 935T985 1087Q985 1182 924 1239T761 1296Q660
1296 580 1245T449 1094L328 1141Q392 1273 510 1348T771 1424Q877 1424 957 1384T1082 1273T1127 1106Q1127 980 1058 881T863 730Q924 709 968 666T1037 562T1061 431Q1061 297 1000 195T830 34T579 -24Z" />
<glyph unicode="4" horiz-adv-x="1143" d="M717 0L783 372H117L133 457L999 1400H1103L945 498H1141L1117 372H922L857 0H717ZM329 498H806L919 1148L329 498Z" />
<glyph unicode="5" horiz-adv-x="1195" d="M586 -24Q477 -24 390 9T244 93T156 191L263 274Q292 235 336 196T445 131T599 105Q721 105 811 156T949 295T998 492Q998 614 930 697T722 780Q619 780 540 738T409 639L297 683L521 1400H1200L1177 1269H614L465 811Q516
852 589 880T754 908Q869 908 955 859T1090 719T1139 507Q1139 396 1103 300T995 131T822 17T586 -24Z" />
<glyph unicode="6" horiz-adv-x="1129" d="M565 -24Q432 -24 345 33T216 185T173 389Q173 526 215 660T337 917T525 1142T769 1317T1055 1427L1031 1298Q887 1256 760 1172T536 972T385 725Q443 790 528 828T711 866Q821 866 902 818T1028 685T1073 493Q1073 343
1006 226T824 43T565 -24ZM572 105Q675 105 757 153T887 285T935 475Q935 592 866 664T678 737Q577 737 495 689T364 557T315 368Q315 252 382 179T572 105Z" />
<glyph unicode="7" horiz-adv-x="965" d="M309 0Q350 221 423 435T621 858T939 1273H285L307 1400H1123L1105 1294Q939 1132 824 959T635 614T517 286T453 0H309Z" />
<glyph unicode="8" horiz-adv-x="1153" d="M594 -24Q466 -24 376 25T238 158T190 349Q190 452 231 541T349 694T531 785Q492 801 456 835T396 919T372 1032Q372 1136 424 1225T573 1369T799 1424Q905 1424 982 1382T1101 1267T1143 1103Q1143 1024 1112 956T1022
838T883 764Q947 741 994 696T1066 588T1091 453Q1091 352 1055 265T952 113T795 12T594 -24ZM602 104Q696 104 774 145T899 264T947 448Q947 519 917 578T828 673T682 709Q583 709 504 663T379 537T333 357Q333 242 406 173T602 104ZM726 826Q805 826 868 859T968
953T1006 1093Q1006 1185 947 1241T789 1297Q713 1297 650 1264T549 1170T511 1029Q511 946 566 886T726 826Z" />
<glyph unicode="9" horiz-adv-x="1129" d="M319 -24L341 105Q445 133 542 189T721 323T864 495T959 691Q903 626 816 586T624 545Q517 545 436 592T309 722T263 915Q263 1063 332 1177T519 1358T781 1424Q907 1424 992 1370T1121 1222T1164 1011Q1164 877 1125
743T1013 484T835 257T601 80T319 -24ZM652 669Q758 669 841 717T973 848T1022 1032Q1022 1145 957 1220T770 1295Q668 1295 586 1246T454 1114T405 929Q405 816 471 743T652 669Z" />
<glyph unicode=":" horiz-adv-x="420" d="M335 746Q296 746 271 774T246 841Q247 891 285 929T373 967Q414 967 438 939T463 872Q463 822 426 784T335 746ZM200 -28Q159 -28 135 0T111 67Q111 117 149 155T236 193Q279 193 303 165T328 99Q328 50 290 11T200 -28Z" />
<glyph unicode=";" horiz-adv-x="420" d="M110 -282L72 -261Q94 -241 120 -205T167 -123T197 -31Q160 -27 135 -2T110 61Q110 119 147 155T232 191Q274 191 303 163T332 77Q332 4 300 -64T218 -189T110 -282ZM335 746Q296 746 271 774T246 841Q247 891 285 929T373
967Q414 967 438 939T463 872Q463 822 426 784T335 746Z" />
<glyph unicode="&lt;" horiz-adv-x="1264" d="M1215 233L283 621V748L1215 1139V999L452 686L1215 373V233Z" />
<glyph unicode="=" horiz-adv-x="1264" d="M277 798V931H1209V798H277ZM277 438V571H1209V438H277Z" />
<glyph unicode="&gt;" horiz-adv-x="1264" d="M273 233V371L1036 686L273 999V1139L1205 748V621L273 233Z" />
<glyph unicode="?" horiz-adv-x="1005" d="M469 357L477 401Q496 500 539 570T638 691T749 785Q803 827 849 869T923 964T952 1092Q952 1175 896 1234T726 1293Q639 1293 568 1260T447 1161T378 994H245Q270 1133 344 1229T524 1374T747 1424Q860 1424 936 1382T1052
1268T1091 1109Q1091 1007 1058 938T969 818T851 717Q798 676 749 632T663 533T613 401L605 357H469ZM471 -28Q428 -28 404 0T379 66Q379 117 417 155T504 193Q547 193 571 165T596 100Q596 49 559 11T471 -28Z" />
<glyph unicode="@" horiz-adv-x="1557" d="M783 -24Q611 -24 480 46T275 247T201 558Q201 745 270 903T459 1178T729 1360T1042 1425Q1214 1425 1338 1360T1530 1180T1598 917Q1598 793 1564 685T1469 495T1335 366T1179 320Q1109 320 1070 357T1030 460Q976 384
904 345T763 305Q656 305 593 382T529 583Q529 675 561 761T650 914T785 1021T954 1061Q1043 1061 1092 1010T1145 881L1196 1035H1313L1170 606Q1165 590 1159 570T1149 531T1145 498Q1145 465 1162 445T1211 425Q1263 425 1311 464T1397 573T1458 728T1481 908Q1481
1030 1426 1119T1269 1256T1033 1305Q882 1305 754 1249T530 1092T381 859T327 573Q327 439 381 331T540 159T799 95Q868 95 941 103T1073 127L1023 3Q972 -10 911 -17T783 -24ZM803 421Q882 421 946 471T1048 601T1086 765Q1086 847 1049 895T944 944Q859 944
795 894T695 764T659 597Q659 517 697 469T803 421Z" />
<glyph unicode="A" horiz-adv-x="1289" d="M100 0L819 1400H937L1169 0H1030L971 361H432L248 0H100ZM493 483H952L865 1030Q862 1046 857 1076T848 1138T842 1185Q835 1169 822 1139T794 1078T771 1032L493 483Z" />
<glyph unicode="B" horiz-adv-x="1243" d="M179 0L425 1400H881Q1014 1400 1092 1356T1204 1242T1238 1092Q1238 988 1194 913T1083 791T943 728Q1051 708 1114 625T1177 425Q1177 351 1152 276T1070 138T918 38T682 0H179ZM341 127H691Q826 127 901 174T1006
291T1037 428Q1037 493 1011 546T922 632T745 665H437L341 127ZM458 789H738Q856 789 937 826T1059 927T1101 1073Q1101 1125 1082 1171T1012 1245T869 1273H544L458 789Z" />
<glyph unicode="C" horiz-adv-x="1235" d="M690 -24Q569 -24 482 24T340 153T258 337T231 549Q231 715 277 871T412 1152T627 1350T917 1424Q1029 1424 1105 1388T1228 1297T1301 1183L1181 1122Q1141 1196 1080 1244T906 1293Q777 1293 678 1229T512 1057T410
820T375 561Q375 446 408 343T512 174T701 108Q781 108 844 134T955 203T1039 298L1158 243Q1112 171 1048 111T895 13T690 -24Z" />
<glyph unicode="D" horiz-adv-x="1312" d="M179 0L425 1400H775Q919 1400 1018 1350T1179 1216T1269 1028T1297 816Q1297 703 1271 588T1190 367T1046 179T831 48T538 0H179ZM342 129H557Q714 129 826 189T1010 349T1116 571T1151 815Q1151 931 1113 1035T991
1205T767 1271H541L342 129Z" />
<glyph unicode="E" horiz-adv-x="1140" d="M179 0L425 1400H1201L1180 1273H544L459 789H876L852 661H437L343 127H1021L999 0H179Z" />
<glyph unicode="F" horiz-adv-x="1075" d="M179 0L425 1400H1215L1195 1273H544L459 790H890L866 660H437L320 0H179Z" />
<glyph unicode="G" horiz-adv-x="1314" d="M692 -24Q570 -24 483 22T339 149T257 330T231 541Q231 705 274 862T403 1147T618 1349T917 1424Q1029 1424 1105 1389T1229 1301T1301 1196L1176 1127Q1142 1195 1077 1244T897 1293Q791 1293 708 1249T561 1130T456
958T393 758T372 553Q372 435 405 334T510 170T699 107Q847 107 949 205T1082 482L1092 535H834L856 660H1261L1238 534Q1212 386 1161 280T1037 107T878 8T692 -24Z" />
<glyph unicode="H" horiz-adv-x="1325" d="M179 0L425 1400H566L460 793H1123L1229 1400H1369L1123 0H983L1099 661H437L321 0H179Z" />
<glyph unicode="I" horiz-adv-x="522" d="M179 0L425 1400H566L320 0H179Z" />
<glyph unicode="J" horiz-adv-x="1033" d="M449 -24Q308 -24 218 48T95 227L216 281Q241 209 293 157T448 105Q524 105 589 136T701 243T771 449L938 1400H1079L909 435Q884 288 833 197T717 58T583 -7T449 -24Z" />
<glyph unicode="K" horiz-adv-x="1242" d="M179 0L425 1400H566L443 698L1106 1400H1274L807 907L1127 0H981L703 797L405 483L320 0H179Z" />
<glyph unicode="L" horiz-adv-x="1055" d="M179 0L425 1400H566L344 131H1008L984 0H179Z" />
<glyph unicode="M" horiz-adv-x="1544" d="M749 -24L525 949Q520 972 514 998T503 1053Q500 1031 495 1001T485 947L320 0H179L425 1400H559L777 433Q784 404 791 371T803 305Q818 336 836 368T871 427L1453 1400H1588L1342 0H1201L1369 950Q1373 973 1379 1005T1390
1057Q1377 1032 1361 1004T1331 954L749 -24Z" />
<glyph unicode="N" horiz-adv-x="1345" d="M179 0L425 1400H557L994 377Q1007 349 1022 312T1047 246Q1052 274 1058 309T1069 375L1249 1400H1389L1143 0H1009L586 983Q577 1004 564 1035T539 1096T519 1146Q517 1126 512 1096T502 1034T492 982L319 0H179Z" />
<glyph unicode="O" horiz-adv-x="1384" d="M697 -24Q571 -24 482 23T338 150T256 333T230 544Q230 664 256 788T336 1026T471 1229T663 1371T914 1424Q1039 1424 1127 1377T1269 1250T1349 1070T1375 862Q1375 741 1349 616T1269 376T1135 171T945 29T697 -24ZM700
107Q811 107 897 152T1047 274T1152 450T1214 654T1235 863Q1235 971 1203 1069T1099 1230T908 1293Q797 1293 710 1248T559 1126T453 951T391 748T370 541Q370 428 403 329T508 169T700 107Z" />
<glyph unicode="P" horiz-adv-x="1187" d="M179 0L425 1400H899Q1006 1400 1079 1370T1196 1288T1261 1174T1281 1046Q1281 962 1252 878T1161 724T1004 612T775 570H421L320 0H179ZM443 695H790Q915 695 992 748T1105 881T1141 1037Q1141 1093 1119 1148T1043
1239T891 1275H543L443 695Z" />
<glyph unicode="Q" horiz-adv-x="1384" d="M1034 -131L953 37Q898 8 834 -8T697 -24Q571 -24 482 23T337 150T256 333T230 544Q230 664 256 788T336 1026T471 1229T663 1371T913 1424Q1038 1424 1126 1377T1269 1250T1349 1070T1375 862Q1375 724 1341 582T1237
314T1062 103L1146 -72L1034 -131ZM700 107Q755 107 804 120T896 157L816 323L930 383L1003 228Q1082 302 1133 407T1210 631T1235 863Q1235 971 1203 1069T1099 1230T907 1293Q796 1293 710 1248T559 1126T453 951T391 748T371 541Q371 428 403 329T508 169T700
107Z" />
<glyph unicode="R" horiz-adv-x="1264" d="M179 0L425 1400H898Q1008 1400 1082 1369T1201 1285T1265 1171T1285 1047Q1285 971 1260 901T1184 775T1058 680T883 629L1086 0H938L739 622H429L320 0H179ZM452 749H795Q913 749 991 789T1107 895T1146 1043Q1146
1098 1123 1150T1044 1238T891 1273H544L452 749Z" />
<glyph unicode="S" horiz-adv-x="1144" d="M583 -24Q471 -24 387 17T248 127T171 281L301 329Q335 225 409 166T598 106Q692 106 765 139T879 238T921 398Q921 478 882 531T781 622T649 696Q592 725 537 756T438 828T366 925T339 1058Q339 1162 392 1244T543 1375T772
1424Q874 1424 949 1392T1071 1305T1134 1185L1007 1139Q984 1208 926 1252T763 1297Q632 1297 557 1233T481 1067Q481 1004 515 961T605 884T725 820Q786 791 846 757T956 678T1035 568T1065 412Q1065 273 1002 176T830 28T583 -24Z" />
<glyph unicode="T" horiz-adv-x="1102" d="M473 0L696 1269H326L348 1400H1231L1209 1269H837L613 0H473Z" />
<glyph unicode="U" horiz-adv-x="1304" d="M659 -24Q494 -24 397 47T268 246T266 547L416 1400H557L405 538Q384 412 400 315T480 162T665 106Q753 106 833 140T974 264T1063 517L1218 1400H1357L1203 511Q1177 365 1130 263T1013 97T856 5T659 -24Z" />
<glyph unicode="V" horiz-adv-x="1240" d="M553 0L333 1400H477L627 391Q631 366 634 338T641 282T647 235Q662 268 680 307T716 383L1219 1400H1373L667 0H553Z" />
<glyph unicode="W" horiz-adv-x="1605" d="M369 0L331 1400H471L494 405Q495 382 495 351T497 295Q507 322 518 349T541 404L970 1400H1082L1166 397Q1168 379 1170 348T1173 293Q1182 316 1192 344T1211 395L1591 1400H1739L1202 0H1077L988 987Q987 1006 985
1024T982 1063T979 1105Q971 1081 959 1052T935 995L493 0H369Z" />
<glyph unicode="X" horiz-adv-x="1109" d="M71 0L597 738L349 1400H493L688 863L1067 1400H1227L741 722L1012 0H869L651 595L231 0H71Z" />
<glyph unicode="Y" horiz-adv-x="1197" d="M517 0L616 559L315 1400H458L701 689L1199 1400H1350L751 551L654 0H517Z" />
<glyph unicode="Z" horiz-adv-x="1199" d="M111 0L128 97L1107 1274H379L400 1400H1309L1291 1301L317 127H1084L1063 0H111Z" />
<glyph unicode="[" horiz-adv-x="730" d="M171 -260L468 1424H866L844 1297H580L328 -133H592L569 -260H171Z" />
<glyph unicode="\" horiz-adv-x="947" d="M713 -260L245 1424H377L845 -260H713Z" />
<glyph unicode="]" horiz-adv-x="730" d="M55 -260L78 -133H342L593 1297H329L352 1424H750L453 -260H55Z" />
<glyph unicode="^" horiz-adv-x="1264" d="M306 717L746 1424H875L1194 717H1057L795 1249L443 717H306Z" />
<glyph unicode="_" horiz-adv-x="973" d="M-89 -341L-67 -206H966L943 -341H-89Z" />
<glyph unicode="`" horiz-adv-x="686" d="M574 1152L287 1464H478L706 1152H574Z" />
<glyph unicode="a" horiz-adv-x="1019" d="M442 -24Q310 -24 232 55T153 268Q153 381 206 467T353 602T571 650Q644 650 709 629T830 567L850 676Q874 800 832 862T686 925Q617 925 531 897T363 819L343 935Q438 991 528 1018T699 1046Q807 1046 877 1002T974
876T983 680L863 0H731L749 106Q687 44 607 10T442 -24ZM467 97Q545 97 625 138T776 253L809 446Q754 487 692 508T569 530Q485 530 422 498T324 410T288 279Q288 195 337 146T467 97Z" />
<glyph unicode="b" horiz-adv-x="1077" d="M582 -24Q500 -24 431 11T319 111L299 0H164L407 1387L554 1444L462 919Q519 980 592 1013T743 1046Q840 1046 913 995T1026 852T1067 637Q1067 440 1007 292T837 60T582 -24ZM574 105Q680 105 760 170T884 352T928 627Q928
765 871 841T709 918Q635 918 561 875T435 761L346 261Q379 188 439 147T574 105Z" />
<glyph unicode="c" horiz-adv-x="939" d="M511 -24Q356 -24 266 88T175 393Q175 586 237 733T409 963T664 1046Q781 1046 863 984T967 817L837 769Q822 840 774 879T651 918Q553 918 478 852T359 668T316 397Q316 257 369 181T519 105Q599 105 661 148T762 271L879
225Q825 105 730 41T511 -24Z" />
<glyph unicode="d" horiz-adv-x="1075" d="M505 -24Q354 -24 266 93T177 411Q177 599 241 742T419 965T683 1046Q761 1046 826 1013T927 920L1010 1388L1157 1444L904 0H767L785 107Q728 43 657 10T505 -24ZM536 105Q611 105 686 149T813 268L900 761Q870 835
813 876T682 918Q573 918 491 856T364 680T319 413Q319 271 377 188T536 105Z" />
<glyph unicode="e" horiz-adv-x="1021" d="M533 -24Q420 -24 340 29T218 176T175 398Q175 538 213 656T320 861T483 997T688 1046Q788 1046 864 1007T984 886T1027 673Q1027 618 1018 566T993 459H319Q314 352 335 272T409 147T552 103Q608 103 669 124T789 191L855
93Q789 41 709 9T533 -24ZM338 580H881Q898 677 884 754T821 877T682 923Q583 923 513 875T400 748T338 580Z" />
<glyph unicode="f" horiz-adv-x="623" d="M201 0L359 899H199L221 1022H381L413 1202Q433 1313 494 1369T657 1425Q697 1425 735 1415T812 1381L791 1264Q754 1283 725 1291T664 1299Q615 1299 587 1270T546 1174L519 1022H747L725 899H497L339 0H201Z" />
<glyph unicode="g" horiz-adv-x="1080" d="M369 -426L324 -311Q472 -304 563 -269T701 -173T761 -32L786 117Q742 58 671 17T502 -24Q400 -24 327 29T215 176T175 394Q175 587 239 734T415 963T673 1046Q749 1046 817 1012T926 913L947 1022H1083L898 -18Q871
-170 800 -256T619 -380T369 -426ZM539 105Q623 105 695 153T815 278L900 761Q876 827 817 872T674 918Q561 918 481 850T359 667T316 411Q316 271 376 188T539 105Z" />
<glyph unicode="h" horiz-adv-x="1078" d="M163 0L407 1388L553 1444L455 886Q509 962 585 1004T744 1046Q860 1046 928 996T1017 845T1010 588L907 0H772L881 617Q907 767 864 843T709 919Q593 919 512 836T406 609L300 0H163Z" />
<glyph unicode="i" horiz-adv-x="480" d="M165 0L345 1022H481L302 0H165ZM449 1222Q417 1222 395 1244T373 1299Q373 1342 403 1374T475 1406Q510 1406 531 1385T553 1329Q553 1285 522 1254T449 1222Z" />
<glyph unicode="j" horiz-adv-x="492" d="M-84 -433L-129 -317Q10 -301 71 -249T151 -84L347 1022H484L289 -87Q270 -200 225 -271T104 -381T-84 -433ZM451 1222Q417 1222 396 1244T375 1299Q375 1328 389 1352T427 1391T478 1406Q514 1406 534 1384T555 1329Q555
1299 541 1275T503 1237T451 1222Z" />
<glyph unicode="k" horiz-adv-x="989" d="M163 0L407 1388L553 1444L409 627L837 1022H1004L690 734L931 0H781L583 636L379 447L300 0H163Z" />
<glyph unicode="l" horiz-adv-x="488" d="M168 0L413 1388L559 1444L306 0H168Z" />
<glyph unicode="m" horiz-adv-x="1628" d="M163 0L343 1022H477L455 895Q507 964 584 1005T742 1046Q832 1046 893 998T975 860Q1035 950 1120 998T1304 1046Q1404 1046 1471 997T1566 861T1573 658L1456 0H1319L1429 632Q1453 771 1412 845T1269 919Q1168 919
1091 841T991 637L879 0H741L851 632Q876 772 836 845T694 919Q589 919 512 840T411 627L301 0H163Z" />
<glyph unicode="n" horiz-adv-x="1080" d="M163 0L343 1022H479L455 887Q508 963 584 1004T746 1046Q857 1046 925 993T1016 839T1013 592L909 0H771L879 615Q905 765 863 842T709 919Q595 919 513 835T405 606L301 0H163Z" />
<glyph unicode="o" horiz-adv-x="1053" d="M533 -24Q365 -24 271 86T176 395Q176 585 242 732T423 962T689 1046Q854 1046 949 935T1044 631Q1044 439 979 291T798 60T533 -24ZM539 105Q646 105 728 171T858 353T905 619Q905 760 846 839T680 918Q573 918 491
852T362 670T315 401Q315 261 374 183T539 105Z" />
<glyph unicode="p" horiz-adv-x="1083" d="M91 -406L343 1022H480L461 912Q582 1046 752 1046Q849 1046 921 994T1033 848T1073 627Q1073 439 1011 292T839 61T590 -24Q502 -24 433 14T321 123L239 -349L91 -406ZM585 105Q688 105 766 169T889 348T933 613Q933
758 876 838T714 918Q634 918 559 876T433 758L347 269Q384 188 444 147T585 105Z" />
<glyph unicode="q" horiz-adv-x="1079" d="M694 -400L785 119Q723 49 651 13T498 -24Q397 -24 325 25T213 166T174 387Q174 578 237 727T412 961T668 1046Q755 1046 822 1011T925 913L944 1022H1081L842 -343L694 -400ZM532 105Q604 105 677 148T812 273L897 759Q872
835 813 876T672 918Q570 918 490 850T363 664T316 396Q316 253 370 179T532 105Z" />
<glyph unicode="r" horiz-adv-x="748" d="M163 0L343 1022H479L451 861Q507 948 584 997T739 1046Q824 1046 874 999L831 870Q803 890 771 900T703 910Q633 910 571 867T464 748T401 573L301 0H163Z" />
<glyph unicode="s" horiz-adv-x="889" d="M464 -24Q394 -24 331 -4T215 55T129 147L232 229Q275 167 338 132T471 97Q570 97 629 145T688 275Q688 334 645 378T489 472Q349 535 293 601T237 760Q237 844 281 908T402 1009T581 1046Q682 1046 763 1007T892 899L792
823Q706 926 570 926Q483 926 426 882T369 767Q369 715 408 676T555 589Q703 525 764 453T825 280Q825 141 728 59T464 -24Z" />
<glyph unicode="t" horiz-adv-x="698" d="M415 -24Q313 -24 272 44T253 246L367 899H201L223 1022H389L454 1388L600 1444L526 1022H771L749 899H505L393 269Q377 175 393 139T471 103Q506 103 543 115T626 153L589 18Q513 -24 415 -24Z" />
<glyph unicode="u" horiz-adv-x="1080" d="M500 -24Q386 -24 317 26T224 175T225 417L331 1022H469L360 403Q333 253 377 178T535 103Q655 103 733 182T837 409L943 1022H1081L901 0H765L787 124Q736 51 663 14T500 -24Z" />
<glyph unicode="v" horiz-adv-x="977" d="M426 0L246 1022H380L497 321Q503 293 507 264T515 208Q525 229 541 262T572 321L933 1022H1077L543 0H426Z" />
<glyph unicode="w" horiz-adv-x="1367" d="M327 0L246 1022H378L419 305Q421 277 422 248T424 195Q434 218 448 250T473 305L797 1022H903L983 305Q986 273 989 248T994 196Q1003 221 1014 248T1036 305L1323 1022H1459L1036 0H911L823 687Q820 711 817 740T812
787Q804 768 791 737T767 684L449 0H327Z" />
<glyph unicode="x" horiz-adv-x="981" d="M70 0L499 532L276 1022H424L563 713Q570 700 577 683T593 645Q607 664 619 680T645 713L895 1022H1047L649 528L890 0H742L585 345Q578 361 570 380T554 416Q542 398 528 380T501 345L222 0H70Z" />
<glyph unicode="y" horiz-adv-x="1007" d="M209 -388L430 29L246 1022H384L503 319Q508 290 513 258T524 198Q537 224 554 257T587 319L959 1022H1107L353 -388H209Z" />
<glyph unicode="z" horiz-adv-x="965" d="M115 0L133 92L795 899H313L334 1022H1003L988 933L321 123H843L821 0H115Z" />
<glyph unicode="{" horiz-adv-x="725" d="M579 -260Q446 -249 369 -172T292 62Q292 95 296 131T307 207L323 302Q327 321 329 340T331 374Q331 443 300 482T212 522H196L218 644H234Q301 644 351 699T419 851L450 1029Q483 1214 592 1319T877 1424L854 1304Q743
1300 674 1225T583 1016L556 859Q538 752 502 693T413 610T295 583L293 575Q338 571 376 552T438 490T461 371Q461 348 458 319T449 259L430 147Q426 122 423 100T420 57Q420 -36 465 -87T601 -141L579 -260Z" />
<glyph unicode="|" horiz-adv-x="524" d="M300 -756V2124H440V-756H300Z" />
<glyph unicode="}" horiz-adv-x="725" d="M46 -260L67 -140Q180 -135 248 -60T339 149L365 295Q383 401 418 463T506 552T629 582L631 590Q554 603 508 648T462 794Q462 818 465 845T473 904L492 1015Q497 1041 499 1064T502 1109Q502 1297 321 1305L343 1424Q484
1417 557 1339T631 1103Q631 1068 627 1029T615 945L601 868Q596 845 594 823T591 774Q591 712 622 677T709 642H725L703 521H689Q621 521 571 466T504 315L473 140Q439 -49 336 -154T46 -260Z" />
<glyph unicode="~" horiz-adv-x="1264" d="M281 546Q287 618 316 681T403 783T547 823Q615 823 673 799T783 744Q828 718 873 699T963 679Q1027 679 1067 718T1116 823H1211Q1205 752 1176 689T1089 586T946 546Q879 546 822 571T712 625Q667 651 622 670T530
690Q467 690 427 651T376 546H281Z" />
<glyph unicode="&#xa0;" horiz-adv-x="451" />
<glyph unicode="&#xa1;" horiz-adv-x="524" d="M114 -400L194 57L336 635H377L329 57L251 -400H114ZM390 826Q349 826 324 854T299 920Q299 970 336 1008T424 1046Q465 1046 490 1018T515 953Q515 903 478 865T390 826Z" />
<glyph unicode="&#xa2;" horiz-adv-x="995" d="M433 -24L469 173Q354 202 292 306T229 572Q229 747 281 886T429 1113T653 1225L688 1424H820L783 1229Q884 1215 946 1156T1023 1003L888 954Q876 1020 833 1059T716 1099Q606 1099 529 1031T411 847T370 584Q370
454 422 376T577 298Q650 298 712 340T808 463L931 417Q880 303 797 239T599 166L565 -24H433Z" />
<glyph unicode="&#xa3;" horiz-adv-x="1163" d="M167 0L193 147Q273 193 326 258T408 402T446 563Q448 576 449 583T450 597H267L287 717H442Q439 733 435 752T427 789Q417 828 409 871T400 963Q400 1087 456 1191T624 1360T907 1424Q1025 1424 1113 1390T1263
1299L1190 1173Q1166 1197 1127 1224T1028 1272T884 1293Q767 1293 692 1248T580 1131T543 978Q543 933 551 892T570 811Q576 787 581 763T589 717H913L892 597H595Q594 588 593 578T589 554Q575 431 508 327T329 130H1082L1059 0H167Z" />
<glyph unicode="&#xa4;" horiz-adv-x="1230" d="M217 137L136 241L299 384Q282 422 273 473T264 573Q264 681 297 775T396 953L285 1091L399 1194L508 1059Q571 1101 646 1126T805 1151Q890 1151 958 1127T1073 1057L1230 1194L1313 1087L1152 948Q1170 910 1177
859T1185 759Q1185 652 1152 556T1051 377L1164 237L1049 137L939 273Q876 229 802 206T644 182Q558 182 491 205T375 275L217 137ZM663 316Q773 316 859 371T995 520T1045 733Q1045 856 977 936T786 1017Q679 1017 592 962T455 812T404 599Q404 476 473 396T663
316Z" />
<glyph unicode="&#xa5;" horiz-adv-x="1091" d="M471 0L512 233H190L210 348H532L561 515H240L259 630H567L287 1400H434L663 739L1133 1400H1279L727 630H1016L997 515H695L666 348H967L948 233H646L605 0H471Z" />
<glyph unicode="&#xa6;" horiz-adv-x="524" d="M311 732V1650H451V732H311ZM311 -450V468H451V-450H311Z" />
<glyph unicode="&#xa7;" horiz-adv-x="1033" d="M473 -240Q331 -240 237 -186T101 -66L217 21Q234 -3 267 -33T354 -85T484 -107Q566 -107 631 -86T734 -18T771 107Q771 187 700 234T514 332Q425 371 364 406T271 487T239 601Q239 698 298 764T445 859Q384 894
355 953T325 1082Q325 1191 382 1267T533 1384T737 1424Q874 1424 956 1376T1075 1273L959 1189Q934 1221 879 1254T722 1288Q609 1288 539 1240T469 1105Q469 1054 502 1017T598 949T745 883Q811 855 869 822T962 739T998 611Q998 526 958 456T824 345Q873 308
895 253T917 135Q917 17 862 -66T706 -195T473 -240ZM717 409Q777 431 816 473T855 575Q855 627 818 664T718 731T573 791Q488 777 437 734T385 628Q385 585 419 553T526 487T717 409Z" />
<glyph unicode="&#xa8;" horiz-adv-x="686" d="M758 1222Q725 1222 704 1244T682 1299Q682 1344 715 1374T789 1405Q822 1405 842 1383T863 1327Q863 1298 848 1275T809 1237T758 1222ZM426 1222Q393 1222 372 1244T351 1299Q351 1328 366 1352T406 1390T457 1405Q492
1405 511 1383T531 1327Q531 1284 500 1253T426 1222Z" />
<glyph unicode="&#xa9;" horiz-adv-x="1680" d="M948 -24Q794 -24 663 31T433 184T279 414T224 700Q224 854 279 985T432 1215T662 1369T948 1424Q1102 1424 1233 1369T1463 1216T1617 986T1672 700Q1672 546 1617 415T1464 185T1234 31T948 -24ZM959 275Q843
275 764 327T645 476T605 709Q605 804 628 883T696 1021T809 1112T966 1145Q1074 1145 1146 1092T1256 945L1140 895Q1118 949 1073 986T957 1024Q875 1024 826 984T755 873T733 709Q733 608 756 537T829 430T960 393Q1026 393 1079 426T1155 538L1263 495Q1228
389 1149 332T959 275ZM948 81Q1080 81 1191 128T1384 259T1512 456T1557 700Q1557 832 1512 944T1385 1140T1191 1270T948 1317Q771 1317 633 1237T415 1016T335 700Q335 524 414 384T632 163T948 81Z" />
<glyph unicode="&#xaa;" horiz-adv-x="875" d="M475 546Q373 546 303 609T232 782Q232 894 287 965T424 1070T587 1105Q643 1105 698 1089T791 1048L801 1099Q806 1125 807 1144T809 1181Q809 1249 770 1279T655 1309Q583 1309 517 1285T403 1229L388 1339Q440
1373 519 1398T685 1424Q746 1424 803 1404T898 1335T936 1203Q936 1184 933 1158T922 1095L829 566H705L720 645Q677 606 613 576T475 546ZM501 657Q570 657 634 693T741 766L771 935Q737 957 685 975T582 993Q531 993 480 973T395 909T361 796Q361 731 399 694T501
657Z" />
<glyph unicode="&#xab;" horiz-adv-x="965" d="M753 0L547 512L933 1022H1082L695 507L901 0H753ZM371 0L165 512L550 1022H697L311 507L516 0H371Z" />
<glyph unicode="&#xac;" horiz-adv-x="1264" d="M1067 347V799H275V931H1207V347H1067Z" />
<glyph unicode="&#xad;" horiz-adv-x="777" d="M251 528L275 663H721L698 528H251Z" />
<glyph unicode="&#xae;" horiz-adv-x="1680" d="M947 -24Q793 -24 662 31T432 184T278 414T223 700Q223 854 278 985T431 1215T661 1369T947 1424Q1101 1424 1232 1369T1462 1216T1616 986T1671 700Q1671 546 1616 415T1463 185T1233 31T947 -24ZM947 83Q1079
83 1190 129T1383 260T1511 456T1556 700Q1556 832 1511 944T1384 1140T1190 1270T947 1317Q770 1317 632 1236T415 1016T336 700Q336 524 415 385T632 164T947 83ZM659 275V1121H1026Q1118 1121 1173 1083T1251 987T1275 875Q1275 791 1225 720T1072 631L1274
275H1139L951 625H775V275H659ZM775 733H1021Q1094 733 1124 775T1155 873Q1155 905 1143 936T1102 988T1021 1009H775V733Z" />
<glyph unicode="&#xaf;" horiz-adv-x="686" d="M271 1219L293 1339H935L914 1219H271Z" />
<glyph unicode="&#xb0;" horiz-adv-x="788" d="M552 917Q430 917 356 996T281 1193Q281 1297 332 1378T466 1506T647 1553Q728 1553 788 1518T882 1420T916 1279Q916 1176 865 1094T732 965T552 917ZM569 1048Q625 1048 673 1077T750 1156T780 1268Q780 1337 740
1381T631 1425Q575 1425 526 1397T447 1319T416 1207Q416 1140 458 1094T569 1048Z" />
<glyph unicode="&#xb1;" horiz-adv-x="1264" d="M674 405V744H279V877H674V1216H814V877H1211V744H814V405H674ZM279 0V133H1211V0H279Z" />
<glyph unicode="&#xb2;" horiz-adv-x="705" d="M218 888Q237 993 283 1065T401 1192T566 1303Q651 1353 696 1399T742 1521Q742 1562 715 1600T618 1638Q549 1638 505 1602T433 1501L334 1539Q371 1627 445 1686T631 1746Q703 1746 755 1718T837 1641T866 1529Q866
1453 839 1398T752 1295T596 1192Q509 1144 460 1101T381 1001H772L751 888H218Z" />
<glyph unicode="&#xb3;" horiz-adv-x="720" d="M495 865Q387 865 322 922T237 1071L350 1111Q369 1045 407 1009T511 972Q592 972 642 1019T692 1143Q692 1192 664 1229T575 1267H509L527 1372H573Q650 1372 690 1423T731 1533Q731 1576 704 1607T621 1639Q565
1639 519 1606T440 1521L344 1560Q392 1643 472 1694T644 1746Q742 1746 799 1694T856 1555Q856 1482 814 1421T703 1331Q756 1313 786 1268T816 1158Q816 1070 774 1004T659 902T495 865Z" />
<glyph unicode="&#xb4;" horiz-adv-x="686" d="M474 1152L731 1464H907L591 1152H474Z" />
<glyph unicode="&#xb5;" horiz-adv-x="1087" d="M91 -406L343 1022H479L370 405Q346 267 381 185T546 103Q610 103 671 133T779 231T846 413L953 1022H1089L909 0H775L798 133Q744 53 669 15T518 -24Q453 -24 397 3T315 88L237 -349L91 -406Z" />
<glyph unicode="&#xb6;" horiz-adv-x="1205" d="M479 -383L646 566Q488 567 395 621T262 758T221 924Q221 1001 248 1083T334 1234T492 1346T733 1389H1251L977 -179L830 -243L1093 1253H902L625 -319L479 -383Z" />
<glyph unicode="&#xb7;" horiz-adv-x="420" d="M305 588Q266 588 242 616T217 683Q217 733 255 771T343 809Q386 809 409 781T433 714Q433 664 396 626T305 588Z" />
<glyph unicode="&#xb8;" horiz-adv-x="686" d="M149 -472Q88 -472 50 -451T-11 -401L75 -348Q85 -360 103 -370T152 -381Q206 -381 241 -348T277 -266Q277 -225 250 -201T176 -176Q154 -176 136 -180T102 -192L78 -156L241 20H319L220 -110Q316 -110 356 -154T396
-255Q396 -349 327 -410T149 -472Z" />
<glyph unicode="&#xb9;" horiz-adv-x="383" d="M300 888L415 1539H316L331 1624Q393 1626 427 1654T482 1732H567L419 888H300Z" />
<glyph unicode="&#xba;" horiz-adv-x="899" d="M544 544Q410 544 332 635T253 885Q253 1049 308 1170T463 1358T691 1424Q828 1424 906 1332T984 1082Q984 918 929 797T775 610T544 544ZM564 668Q702 668 778 779T854 1070Q854 1180 807 1240T673 1301Q543 1301
463 1193T382 902Q382 792 430 730T564 668Z" />
<glyph unicode="&#xbb;" horiz-adv-x="965" d="M431 0L819 515L615 1022H761L968 512L582 0H431ZM47 0L436 515L231 1022H377L584 512L198 0H47Z" />
<glyph unicode="&#xbc;" horiz-adv-x="1327" d="M243 566L358 1217H259L274 1302Q336 1304 370 1332T425 1410H510L362 566H243ZM24 -24L1210 1424H1346L161 -24H24ZM1030 0L1068 213H659L671 281L1198 846H1296L1204 322H1309L1289 213H1184L1148 0H1030ZM831
322H1086L1148 669L831 322Z" />
<glyph unicode="&#xbd;" horiz-adv-x="1431" d="M243 566L358 1217H259L274 1302Q336 1304 370 1332T425 1410H510L362 566H243ZM24 -24L1210 1424H1346L161 -24H24ZM787 0Q806 105 852 177T970 304T1135 415Q1220 465 1265 511T1311 633Q1311 674 1284 712T1187
750Q1118 750 1074 714T1002 613L903 651Q940 739 1014 798T1200 858Q1272 858 1324 830T1406 753T1435 641Q1435 565 1408 510T1321 407T1165 304Q1078 256 1029 213T950 113H1341L1320 0H787Z" />
<glyph unicode="&#xbe;" horiz-adv-x="1604" d="M438 543Q330 543 265 600T180 749L293 789Q312 723 350 687T454 650Q535 650 585 697T635 821Q635 870 607 907T518 945H452L470 1050H516Q593 1050 633 1101T674 1211Q674 1254 647 1285T564 1317Q508 1317 462
1284T383 1199L287 1238Q335 1321 415 1372T587 1424Q685 1424 742 1372T799 1233Q799 1160 757 1099T646 1009Q699 991 729 946T759 836Q759 748 717 682T602 580T438 543ZM302 -24L1488 1424H1624L439 -24H302ZM1307 0L1345 213H936L948 281L1475 846H1573L1481
322H1586L1566 213H1461L1425 0H1307ZM1108 322H1363L1425 669L1108 322Z" />
<glyph unicode="&#xbf;" horiz-adv-x="1005" d="M432 -401Q320 -401 243 -359T127 -245T88 -85Q88 17 122 86T210 206T328 307Q382 348 431 392T516 491T566 623L574 667H710L702 623Q684 524 641 455T543 334T430 239Q377 198 331 156T256 60T227 -69Q227 -152
283 -211T453 -271Q540 -271 612 -237T733 -137T801 30H935Q910 -109 836 -205T656 -351T432 -401ZM674 826Q633 826 608 854T583 921Q583 972 621 1009T710 1047Q751 1047 776 1020T801 953Q801 903 763 865T674 826Z" />
<glyph unicode="&#xc0;" horiz-adv-x="1289" d="M100 0L819 1400H937L1169 0H1030L971 361H432L248 0H100ZM493 483H952L865 1030Q862 1046 857 1076T848 1138T842 1185Q835 1169 822 1139T794 1078T771 1032L493 483ZM856 1530L569 1842H760L989 1530H856Z" />
<glyph unicode="&#xc1;" horiz-adv-x="1289" d="M100 0L819 1400H937L1169 0H1030L971 361H432L248 0H100ZM493 483H952L865 1030Q862 1046 857 1076T848 1138T842 1185Q835 1169 822 1139T794 1078T771 1032L493 483ZM802 1530L1139 1842H1332L936 1530H802Z" />
<glyph unicode="&#xc2;" horiz-adv-x="1289" d="M100 0L819 1400H937L1169 0H1030L971 361H432L248 0H100ZM493 483H952L865 1030Q862 1046 857 1076T848 1138T842 1185Q835 1169 822 1139T794 1078T771 1032L493 483ZM549 1530L884 1842H1023L1250 1530H1125L935
1734L675 1530H549Z" />
<glyph unicode="&#xc3;" horiz-adv-x="1289" d="M100 0L819 1400H937L1169 0H1030L971 361H432L248 0H100ZM493 483H952L865 1030Q862 1046 857 1076T848 1138T842 1185Q835 1169 822 1139T794 1078T771 1032L493 483ZM1065 1575Q1009 1575 966 1596T891 1641Q863
1660 831 1677T761 1695Q721 1695 691 1667T647 1583H572Q590 1689 644 1751T793 1813Q849 1813 891 1791T969 1746Q997 1727 1028 1710T1095 1693Q1135 1693 1166 1721T1211 1805H1285Q1267 1701 1213 1638T1065 1575Z" />
<glyph unicode="&#xc4;" horiz-adv-x="1289" d="M100 0L819 1400H937L1169 0H1030L971 361H432L248 0H100ZM493 483H952L865 1030Q862 1046 857 1076T848 1138T842 1185Q835 1169 822 1139T794 1078T771 1032L493 483ZM1092 1595Q1059 1595 1038 1618T1016 1673Q1016
1716 1049 1746T1123 1777Q1157 1777 1177 1755T1198 1699Q1198 1670 1183 1647T1144 1609T1092 1595ZM731 1595Q698 1595 677 1618T656 1673Q656 1701 671 1724T711 1762T762 1777Q797 1777 816 1755T836 1699Q836 1656 805 1626T731 1595Z" />
<glyph unicode="&#xc5;" horiz-adv-x="1289" d="M100 0L759 1285Q713 1309 685 1355T657 1457Q657 1531 695 1590T793 1683T925 1718Q1011 1718 1066 1661T1121 1521Q1121 1441 1074 1377T957 1284L1169 0H1030L971 361H432L248 0H100ZM493 483H952L865 1029Q862
1046 858 1075T849 1135T842 1185Q835 1167 821 1137T793 1077T771 1031L493 483ZM867 1361Q927 1361 970 1403T1013 1511Q1013 1559 984 1587T910 1616Q855 1616 811 1576T767 1468Q767 1421 796 1391T867 1361Z" />
<glyph unicode="&#xc6;" horiz-adv-x="1677" d="M-34 0L1003 1400H1737L1717 1273H1163L1077 789H1423L1399 661H1054L961 127H1558L1535 0H799L863 361H393L129 0H-34ZM483 483H885L1013 1217Q998 1192 978 1163T937 1107L483 483Z" />
<glyph unicode="&#xc7;" horiz-adv-x="1235" d="M690 -24Q569 -24 482 24T340 153T258 337T231 549Q231 715 277 871T412 1152T627 1350T917 1424Q1029 1424 1105 1388T1228 1297T1301 1183L1181 1122Q1141 1196 1080 1244T906 1293Q777 1293 678 1229T512 1057T410
820T375 561Q375 446 408 343T512 174T701 108Q781 108 844 134T955 203T1039 298L1158 243Q1112 171 1048 111T895 13T690 -24ZM586 -472Q524 -472 486 -451T426 -401L511 -348Q521 -360 539 -370T588 -381Q642 -381 677 -348T713 -266Q713 -225 686 -201T612
-176Q591 -176 573 -179T537 -192L514 -156L656 1H739L656 -110Q752 -110 792 -156T832 -267Q832 -355 763 -413T586 -472Z" />
<glyph unicode="&#xc8;" horiz-adv-x="1140" d="M179 0L425 1400H1201L1180 1273H544L459 789H876L852 661H437L343 127H1021L999 0H179ZM793 1530L506 1842H697L926 1530H793Z" />
<glyph unicode="&#xc9;" horiz-adv-x="1140" d="M179 0L425 1400H1201L1180 1273H544L459 789H876L852 661H437L343 127H1021L999 0H179ZM739 1530L1076 1842H1269L873 1530H739Z" />
<glyph unicode="&#xca;" horiz-adv-x="1140" d="M179 0L425 1400H1201L1180 1273H544L459 789H876L852 661H437L343 127H1021L999 0H179ZM487 1530L822 1842H961L1188 1530H1063L873 1734L613 1530H487Z" />
<glyph unicode="&#xcb;" horiz-adv-x="1140" d="M179 0L425 1400H1201L1180 1273H544L459 789H876L852 661H437L343 127H1021L999 0H179ZM1029 1595Q996 1595 975 1618T953 1673Q953 1716 986 1746T1060 1777Q1094 1777 1114 1755T1135 1699Q1135 1670 1120 1647T1081
1609T1029 1595ZM668 1595Q635 1595 614 1618T593 1673Q593 1701 608 1724T648 1762T699 1777Q734 1777 753 1755T773 1699Q773 1656 742 1626T668 1595Z" />
<glyph unicode="&#xcc;" horiz-adv-x="522" d="M179 0L425 1400H566L320 0H179ZM476 1530L189 1842H380L609 1530H476Z" />
<glyph unicode="&#xcd;" horiz-adv-x="522" d="M179 0L425 1400H566L320 0H179ZM422 1530L759 1842H952L556 1530H422Z" />
<glyph unicode="&#xce;" horiz-adv-x="522" d="M179 0L425 1400H566L320 0H179ZM169 1530L504 1842H643L870 1530H745L555 1734L295 1530H169Z" />
<glyph unicode="&#xcf;" horiz-adv-x="522" d="M179 0L425 1400H566L320 0H179ZM968 1595Q935 1595 914 1618T892 1673Q892 1716 925 1746T999 1777Q1033 1777 1053 1755T1074 1699Q1074 1670 1059 1647T1020 1609T968 1595ZM607 1595Q574 1595 553 1618T532 1673Q532
1701 547 1724T587 1762T638 1777Q673 1777 692 1755T712 1699Q712 1656 681 1626T607 1595Z" />
<glyph unicode="&#xd0;" horiz-adv-x="1312" d="M153 640L173 759H815L795 640H153ZM179 0L425 1400H775Q919 1400 1018 1350T1179 1216T1269 1028T1297 816Q1297 703 1271 588T1190 367T1046 179T831 48T538 0H179ZM342 129H557Q714 129 826 189T1010 349T1116
571T1151 815Q1151 931 1113 1035T991 1205T767 1271H541L342 129Z" />
<glyph unicode="&#xd1;" horiz-adv-x="1345" d="M179 0L425 1400H557L994 377Q1007 349 1022 312T1047 246Q1052 274 1058 309T1069 375L1249 1400H1389L1143 0H1009L586 983Q577 1004 564 1035T539 1096T519 1146Q517 1126 512 1096T502 1034T492 982L319 0H179ZM1096
1575Q1040 1575 997 1596T922 1641Q894 1660 862 1677T792 1695Q752 1695 722 1667T678 1583H603Q621 1689 675 1751T824 1813Q880 1813 922 1791T1000 1746Q1028 1727 1059 1710T1126 1693Q1166 1693 1197 1721T1242 1805H1316Q1298 1701 1244 1638T1096 1575Z"
/>
<glyph unicode="&#xd2;" horiz-adv-x="1384" d="M697 -24Q571 -24 482 23T338 150T256 333T230 544Q230 664 256 788T336 1026T471 1229T663 1371T914 1424Q1039 1424 1127 1377T1269 1250T1349 1070T1375 862Q1375 741 1349 616T1269 376T1135 171T945 29T697
-24ZM700 107Q811 107 897 152T1047 274T1152 450T1214 654T1235 863Q1235 971 1203 1069T1099 1230T908 1293Q797 1293 710 1248T559 1126T453 951T391 748T370 541Q370 428 403 329T508 169T700 107ZM889 1530L602 1842H793L1022 1530H889Z" />
<glyph unicode="&#xd3;" horiz-adv-x="1384" d="M697 -24Q571 -24 482 23T338 150T256 333T230 544Q230 664 256 788T336 1026T471 1229T663 1371T914 1424Q1039 1424 1127 1377T1269 1250T1349 1070T1375 862Q1375 741 1349 616T1269 376T1135 171T945 29T697
-24ZM700 107Q811 107 897 152T1047 274T1152 450T1214 654T1235 863Q1235 971 1203 1069T1099 1230T908 1293Q797 1293 710 1248T559 1126T453 951T391 748T370 541Q370 428 403 329T508 169T700 107ZM835 1530L1172 1842H1365L969 1530H835Z" />
<glyph unicode="&#xd4;" horiz-adv-x="1384" d="M697 -24Q571 -24 482 23T338 150T256 333T230 544Q230 664 256 788T336 1026T471 1229T663 1371T914 1424Q1039 1424 1127 1377T1269 1250T1349 1070T1375 862Q1375 741 1349 616T1269 376T1135 171T945 29T697
-24ZM700 107Q811 107 897 152T1047 274T1152 450T1214 654T1235 863Q1235 971 1203 1069T1099 1230T908 1293Q797 1293 710 1248T559 1126T453 951T391 748T370 541Q370 428 403 329T508 169T700 107ZM582 1530L917 1842H1056L1283 1530H1158L968 1734L708 1530H582Z"
/>
<glyph unicode="&#xd5;" horiz-adv-x="1384" d="M697 -24Q571 -24 482 23T338 150T256 333T230 544Q230 664 256 788T336 1026T471 1229T663 1371T914 1424Q1039 1424 1127 1377T1269 1250T1349 1070T1375 862Q1375 741 1349 616T1269 376T1135 171T945 29T697
-24ZM700 107Q811 107 897 152T1047 274T1152 450T1214 654T1235 863Q1235 971 1203 1069T1099 1230T908 1293Q797 1293 710 1248T559 1126T453 951T391 748T370 541Q370 428 403 329T508 169T700 107ZM1098 1575Q1042 1575 999 1596T924 1641Q896 1660 864 1677T794
1695Q754 1695 724 1667T680 1583H605Q623 1689 677 1751T826 1813Q882 1813 924 1791T1002 1746Q1030 1727 1061 1710T1128 1693Q1168 1693 1199 1721T1244 1805H1318Q1300 1701 1246 1638T1098 1575Z" />
<glyph unicode="&#xd6;" horiz-adv-x="1384" d="M697 -24Q571 -24 482 23T338 150T256 333T230 544Q230 664 256 788T336 1026T471 1229T663 1371T914 1424Q1039 1424 1127 1377T1269 1250T1349 1070T1375 862Q1375 741 1349 616T1269 376T1135 171T945 29T697
-24ZM700 107Q811 107 897 152T1047 274T1152 450T1214 654T1235 863Q1235 971 1203 1069T1099 1230T908 1293Q797 1293 710 1248T559 1126T453 951T391 748T370 541Q370 428 403 329T508 169T700 107ZM1125 1595Q1092 1595 1071 1618T1049 1673Q1049 1716 1082
1746T1156 1777Q1190 1777 1210 1755T1231 1699Q1231 1670 1216 1647T1177 1609T1125 1595ZM764 1595Q731 1595 710 1618T689 1673Q689 1701 704 1724T744 1762T795 1777Q830 1777 849 1755T869 1699Q869 1656 838 1626T764 1595Z" />
<glyph unicode="&#xd7;" horiz-adv-x="1264" d="M402 241L301 339L651 686L303 1031L399 1125L744 780L1089 1126L1187 1029L840 683L1185 337L1091 242L747 588L402 241Z" />
<glyph unicode="&#xd8;" horiz-adv-x="1384" d="M134 -24L307 185Q267 258 249 355T230 543Q230 662 255 786T334 1024T469 1228T663 1371T920 1424Q1024 1424 1101 1392T1230 1303L1331 1424H1474L1299 1214Q1339 1143 1357 1047T1375 861Q1375 741 1350 616T1271
377T1137 172T945 29T689 -24Q584 -24 507 8T374 96L275 -24H134ZM703 107Q813 107 899 152T1049 274T1153 448T1214 651T1235 856Q1235 913 1225 977T1197 1089L465 207Q505 160 563 134T703 107ZM407 307L1138 1191Q1099 1239 1041 1266T902 1293Q792 1293 706
1248T556 1126T452 951T391 749T371 544Q371 486 379 421T407 307Z" />
<glyph unicode="&#xd9;" horiz-adv-x="1304" d="M659 -24Q494 -24 397 47T268 246T266 547L416 1400H557L405 538Q384 412 400 315T480 162T665 106Q753 106 833 140T974 264T1063 517L1218 1400H1357L1203 511Q1177 365 1130 263T1013 97T856 5T659 -24ZM866
1532L579 1844H770L999 1532H866Z" />
<glyph unicode="&#xda;" horiz-adv-x="1304" d="M659 -24Q494 -24 397 47T268 246T266 547L416 1400H557L405 538Q384 412 400 315T480 162T665 106Q753 106 833 140T974 264T1063 517L1218 1400H1357L1203 511Q1177 365 1130 263T1013 97T856 5T659 -24ZM813
1532L1150 1844H1343L947 1532H813Z" />
<glyph unicode="&#xdb;" horiz-adv-x="1304" d="M659 -24Q494 -24 397 47T268 246T266 547L416 1400H557L405 538Q384 412 400 315T480 162T665 106Q753 106 833 140T974 264T1063 517L1218 1400H1357L1203 511Q1177 365 1130 263T1013 97T856 5T659 -24ZM560
1532L895 1844H1034L1261 1532H1136L946 1736L686 1532H560Z" />
<glyph unicode="&#xdc;" horiz-adv-x="1304" d="M659 -24Q494 -24 397 47T268 246T266 547L416 1400H557L405 538Q384 412 400 315T480 162T665 106Q753 106 833 140T974 264T1063 517L1218 1400H1357L1203 511Q1177 365 1130 263T1013 97T856 5T659 -24ZM1102
1597Q1069 1597 1048 1620T1026 1675Q1026 1718 1059 1748T1133 1779Q1167 1779 1187 1757T1208 1701Q1208 1672 1193 1649T1154 1611T1102 1597ZM741 1597Q708 1597 687 1620T666 1675Q666 1703 681 1726T721 1764T772 1779Q807 1779 826 1757T846 1701Q846 1658
815 1628T741 1597Z" />
<glyph unicode="&#xdd;" horiz-adv-x="1197" d="M517 0L616 559L315 1400H458L701 689L1199 1400H1350L751 551L654 0H517ZM750 1530L1087 1842H1280L884 1530H750Z" />
<glyph unicode="&#xde;" horiz-adv-x="1187" d="M180 0L425 1400H563L517 1127H867Q972 1127 1043 1098T1158 1018T1221 906T1240 779Q1240 696 1210 611T1118 453T958 338T727 295H370L318 0H180ZM393 425H751Q846 425 912 456T1020 538T1080 647T1099 761Q1099
817 1077 872T1002 962T854 998H494L393 425Z" />
<glyph unicode="&#xdf;" horiz-adv-x="1087" d="M75 -400L315 961Q345 1131 419 1232T588 1379T778 1424Q876 1424 948 1386T1060 1280T1100 1121Q1100 1051 1074 978T991 848T841 765Q950 733 1002 651T1055 465Q1055 320 990 210T817 38T583 -24Q534 -24 495
-16T432 6L511 112Q529 107 550 104T597 100Q670 100 743 139T866 258T915 457Q915 519 890 574T806 663T647 698H629L650 820H669Q796 820 879 890T962 1106Q962 1195 912 1247T762 1300Q655 1300 569 1221T451 963L223 -331L75 -400Z" />
<glyph unicode="&#xe0;" horiz-adv-x="1019" d="M442 -24Q310 -24 232 55T153 268Q153 381 206 467T353 602T571 650Q644 650 709 629T830 567L850 676Q874 800 832 862T686 925Q617 925 531 897T363 819L343 935Q438 991 528 1018T699 1046Q807 1046 877 1002T974
876T983 680L863 0H731L749 106Q687 44 607 10T442 -24ZM467 97Q545 97 625 138T776 253L809 446Q754 487 692 508T569 530Q485 530 422 498T324 410T288 279Q288 195 337 146T467 97ZM672 1152L385 1464H576L805 1152H672Z" />
<glyph unicode="&#xe1;" horiz-adv-x="1019" d="M442 -24Q310 -24 232 55T153 268Q153 381 206 467T353 602T571 650Q644 650 709 629T830 567L850 676Q874 800 832 862T686 925Q617 925 531 897T363 819L343 935Q438 991 528 1018T699 1046Q807 1046 877 1002T974
876T983 680L863 0H731L749 106Q687 44 607 10T442 -24ZM467 97Q545 97 625 138T776 253L809 446Q754 487 692 508T569 530Q485 530 422 498T324 410T288 279Q288 195 337 146T467 97ZM618 1152L955 1464H1149L754 1152H618Z" />
<glyph unicode="&#xe2;" horiz-adv-x="1019" d="M442 -24Q310 -24 232 55T153 268Q153 381 206 467T353 602T571 650Q644 650 709 629T830 567L850 676Q874 800 832 862T686 925Q617 925 531 897T363 819L343 935Q438 991 528 1018T699 1046Q807 1046 877 1002T974
876T983 680L863 0H731L749 106Q687 44 607 10T442 -24ZM467 97Q545 97 625 138T776 253L809 446Q754 487 692 508T569 530Q485 530 422 498T324 410T288 279Q288 195 337 146T467 97ZM366 1152L701 1464H840L1067 1152H942L752 1356L492 1152H366Z" />
<glyph unicode="&#xe3;" horiz-adv-x="1019" d="M442 -24Q310 -24 232 55T153 268Q153 381 206 467T353 602T571 650Q644 650 709 629T830 567L850 676Q874 800 832 862T686 925Q617 925 531 897T363 819L343 935Q438 991 528 1018T699 1046Q807 1046 877 1002T974
876T983 680L863 0H731L749 106Q687 44 607 10T442 -24ZM467 97Q545 97 625 138T776 253L809 446Q754 487 692 508T569 530Q485 530 422 498T324 410T288 279Q288 195 337 146T467 97ZM882 1197Q826 1197 783 1218T708 1263Q680 1282 648 1299T578 1317Q538 1317
508 1289T464 1205H389Q407 1311 461 1373T610 1435Q666 1435 708 1413T786 1368Q814 1349 845 1332T912 1315Q952 1315 983 1343T1028 1427H1102Q1084 1323 1030 1260T882 1197Z" />
<glyph unicode="&#xe4;" horiz-adv-x="1019" d="M442 -24Q310 -24 232 55T153 268Q153 381 206 467T353 602T571 650Q644 650 709 629T830 567L850 676Q874 800 832 862T686 925Q617 925 531 897T363 819L343 935Q438 991 528 1018T699 1046Q807 1046 877 1002T974
876T983 680L863 0H731L749 106Q687 44 607 10T442 -24ZM467 97Q545 97 625 138T776 253L809 446Q754 487 692 508T569 530Q485 530 422 498T324 410T288 279Q288 195 337 146T467 97ZM896 1222Q863 1222 842 1244T820 1299Q820 1344 853 1374T926 1405Q960 1405
980 1383T1001 1327Q1001 1298 986 1275T947 1237T896 1222ZM564 1222Q531 1222 510 1244T489 1299Q489 1328 504 1352T543 1390T594 1405Q629 1405 649 1383T669 1327Q669 1284 637 1253T564 1222Z" />
<glyph unicode="&#xe5;" horiz-adv-x="1019" d="M442 -24Q310 -24 232 55T153 268Q153 381 206 467T353 602T571 650Q644 650 709 629T830 567L850 676Q874 800 832 862T686 925Q617 925 531 897T363 819L343 935Q438 991 528 1018T699 1046Q807 1046 877 1002T974
876T983 680L863 0H731L749 106Q687 44 607 10T442 -24ZM467 97Q545 97 625 138T776 253L809 446Q754 487 692 508T569 530Q485 530 422 498T324 410T288 279Q288 195 337 146T467 97ZM712 1108Q628 1108 572 1167T516 1308Q516 1381 553 1440T652 1534T784 1569Q869
1569 924 1511T979 1371Q979 1299 942 1239T843 1144T712 1108ZM726 1211Q786 1211 828 1254T871 1362Q871 1409 843 1438T770 1467Q714 1467 670 1427T625 1319Q625 1272 654 1242T726 1211Z" />
<glyph unicode="&#xe6;" horiz-adv-x="1647" d="M439 -24Q352 -24 288 11T188 112T153 268Q153 397 212 482T367 609T571 651Q643 651 707 630T823 570L842 675Q862 787 829 856T681 925Q597 925 511 892T360 819L341 935Q407 974 498 1010T694 1046Q757 1046
812 1026T905 966T958 863Q1028 958 1123 1002T1315 1046Q1419 1046 1495 1005T1613 882T1654 676Q1654 617 1643 562T1619 459H945Q938 358 958 278T1032 150T1179 103Q1235 103 1296 124T1416 191L1482 93Q1419 43 1339 10T1159 -24Q1042 -24 959 36T841 204Q747
80 642 28T439 -24ZM468 97Q568 97 657 160T808 306Q804 333 803 374T805 444Q764 476 702 503T566 530Q496 530 432 504T328 422T287 279Q287 201 332 149T468 97ZM965 580H1508Q1526 675 1512 752T1447 876T1309 923Q1218 923 1148 879T1032 757T965 580Z" />
<glyph unicode="&#xe7;" horiz-adv-x="939" d="M511 -24Q356 -24 266 88T175 393Q175 586 237 733T409 963T664 1046Q781 1046 863 984T967 817L837 769Q822 840 774 879T651 918Q553 918 478 852T359 668T316 397Q316 257 369 181T519 105Q599 105 661 148T762
271L879 225Q825 105 730 41T511 -24ZM408 -472Q346 -472 308 -451T248 -401L333 -348Q343 -360 361 -370T410 -381Q464 -381 499 -348T535 -266Q535 -225 508 -201T434 -176Q413 -176 395 -179T359 -192L336 -156L478 1H561L478 -110Q574 -110 614 -156T654 -267Q654
-355 585 -413T408 -472Z" />
<glyph unicode="&#xe8;" horiz-adv-x="1021" d="M533 -24Q420 -24 340 29T218 176T175 398Q175 538 213 656T320 861T483 997T688 1046Q788 1046 864 1007T984 886T1027 673Q1027 618 1018 566T993 459H319Q314 352 335 272T409 147T552 103Q608 103 669 124T789
191L855 93Q789 41 709 9T533 -24ZM338 580H881Q898 677 884 754T821 877T682 923Q583 923 513 875T400 748T338 580ZM662 1152L375 1464H566L795 1152H662Z" />
<glyph unicode="&#xe9;" horiz-adv-x="1021" d="M533 -24Q420 -24 340 29T218 176T175 398Q175 538 213 656T320 861T483 997T688 1046Q788 1046 864 1007T984 886T1027 673Q1027 618 1018 566T993 459H319Q314 352 335 272T409 147T552 103Q608 103 669 124T789
191L855 93Q789 41 709 9T533 -24ZM338 580H881Q898 677 884 754T821 877T682 923Q583 923 513 875T400 748T338 580ZM607 1152L944 1464H1138L743 1152H607Z" />
<glyph unicode="&#xea;" horiz-adv-x="1021" d="M533 -24Q420 -24 340 29T218 176T175 398Q175 538 213 656T320 861T483 997T688 1046Q788 1046 864 1007T984 886T1027 673Q1027 618 1018 566T993 459H319Q314 352 335 272T409 147T552 103Q608 103 669 124T789
191L855 93Q789 41 709 9T533 -24ZM338 580H881Q898 677 884 754T821 877T682 923Q583 923 513 875T400 748T338 580ZM355 1152L690 1464H829L1056 1152H931L741 1356L481 1152H355Z" />
<glyph unicode="&#xeb;" horiz-adv-x="1021" d="M533 -24Q420 -24 340 29T218 176T175 398Q175 538 213 656T320 861T483 997T688 1046Q788 1046 864 1007T984 886T1027 673Q1027 618 1018 566T993 459H319Q314 352 335 272T409 147T552 103Q608 103 669 124T789
191L855 93Q789 41 709 9T533 -24ZM338 580H881Q898 677 884 754T821 877T682 923Q583 923 513 875T400 748T338 580ZM886 1222Q853 1222 832 1244T810 1299Q810 1344 843 1374T916 1405Q950 1405 970 1383T991 1327Q991 1298 976 1275T937 1237T886 1222ZM554
1222Q521 1222 500 1244T479 1299Q479 1328 494 1352T533 1390T584 1405Q619 1405 639 1383T659 1327Q659 1284 627 1253T554 1222Z" />
<glyph unicode="&#xec;" horiz-adv-x="480" d="M165 0L345 1022H478L299 0H165ZM392 1152L105 1464H296L525 1152H392Z" />
<glyph unicode="&#xed;" horiz-adv-x="480" d="M165 0L345 1022H478L299 0H165ZM337 1152L674 1464H868L473 1152H337Z" />
<glyph unicode="&#xee;" horiz-adv-x="480" d="M165 0L345 1022H478L299 0H165ZM341 1152L676 1464H815L1042 1152H917L727 1356L467 1152H341Z" />
<glyph unicode="&#xef;" horiz-adv-x="480" d="M165 0L345 1022H478L299 0H165ZM872 1222Q839 1222 818 1244T796 1299Q796 1344 829 1374T902 1405Q936 1405 956 1383T977 1327Q977 1298 962 1275T923 1237T872 1222ZM540 1222Q507 1222 486 1244T465 1299Q465
1328 480 1352T519 1390T570 1405Q605 1405 625 1383T645 1327Q645 1284 613 1253T540 1222Z" />
<glyph unicode="&#xf0;" horiz-adv-x="1044" d="M519 -24Q408 -24 330 27T209 167T167 371Q167 490 206 589T313 760T470 872T660 912Q737 912 789 888T872 824T919 741Q919 875 884 991T767 1185L612 1042L556 1114L691 1242Q645 1271 587 1289T464 1315L485
1424Q570 1415 647 1392T786 1329L922 1457L981 1385L857 1270Q950 1180 996 1038T1043 716Q1043 486 980 321T799 66T519 -24ZM539 105Q630 105 706 158T829 300T875 501Q875 625 815 704T646 784Q557 784 481 732T357 588T309 381Q309 255 369 180T539 105Z"
/>
<glyph unicode="&#xf1;" horiz-adv-x="1080" d="M163 0L343 1022H479L455 887Q508 963 584 1004T746 1046Q857 1046 925 993T1016 839T1013 592L909 0H771L879 615Q905 765 863 842T709 919Q595 919 513 835T405 606L301 0H163ZM904 1197Q848 1197 805 1218T730
1263Q702 1282 670 1299T600 1317Q560 1317 530 1289T486 1205H411Q429 1311 483 1373T632 1435Q688 1435 730 1413T808 1368Q836 1349 867 1332T934 1315Q974 1315 1005 1343T1050 1427H1124Q1106 1323 1052 1260T904 1197Z" />
<glyph unicode="&#xf2;" horiz-adv-x="1053" d="M533 -24Q365 -24 271 86T176 395Q176 585 242 732T423 962T689 1046Q854 1046 949 935T1044 631Q1044 439 979 291T798 60T533 -24ZM539 105Q646 105 728 171T858 353T905 619Q905 760 846 839T680 918Q573 918
491 852T362 670T315 401Q315 261 374 183T539 105ZM662 1152L375 1464H566L795 1152H662Z" />
<glyph unicode="&#xf3;" horiz-adv-x="1053" d="M533 -24Q365 -24 271 86T176 395Q176 585 242 732T423 962T689 1046Q854 1046 949 935T1044 631Q1044 439 979 291T798 60T533 -24ZM539 105Q646 105 728 171T858 353T905 619Q905 760 846 839T680 918Q573 918
491 852T362 670T315 401Q315 261 374 183T539 105ZM607 1152L944 1464H1138L743 1152H607Z" />
<glyph unicode="&#xf4;" horiz-adv-x="1053" d="M533 -24Q365 -24 271 86T176 395Q176 585 242 732T423 962T689 1046Q854 1046 949 935T1044 631Q1044 439 979 291T798 60T533 -24ZM539 105Q646 105 728 171T858 353T905 619Q905 760 846 839T680 918Q573 918
491 852T362 670T315 401Q315 261 374 183T539 105ZM355 1152L690 1464H829L1056 1152H931L741 1356L481 1152H355Z" />
<glyph unicode="&#xf5;" horiz-adv-x="1053" d="M533 -24Q365 -24 271 86T176 395Q176 585 242 732T423 962T689 1046Q854 1046 949 935T1044 631Q1044 439 979 291T798 60T533 -24ZM539 105Q646 105 728 171T858 353T905 619Q905 760 846 839T680 918Q573 918
491 852T362 670T315 401Q315 261 374 183T539 105ZM871 1197Q815 1197 772 1218T697 1263Q669 1282 637 1299T567 1317Q527 1317 497 1289T453 1205H378Q396 1311 450 1373T599 1435Q655 1435 697 1413T775 1368Q803 1349 834 1332T901 1315Q941 1315 972 1343T1017
1427H1091Q1073 1323 1019 1260T871 1197Z" />
<glyph unicode="&#xf6;" horiz-adv-x="1053" d="M533 -24Q365 -24 271 86T176 395Q176 585 242 732T423 962T689 1046Q854 1046 949 935T1044 631Q1044 439 979 291T798 60T533 -24ZM539 105Q646 105 728 171T858 353T905 619Q905 760 846 839T680 918Q573 918
491 852T362 670T315 401Q315 261 374 183T539 105ZM886 1222Q853 1222 832 1244T810 1299Q810 1344 843 1374T916 1405Q950 1405 970 1383T991 1327Q991 1298 976 1275T937 1237T886 1222ZM554 1222Q521 1222 500 1244T479 1299Q479 1328 494 1352T533 1390T584
1405Q619 1405 639 1383T659 1327Q659 1284 627 1253T554 1222Z" />
<glyph unicode="&#xf7;" horiz-adv-x="1264" d="M275 618V751H1207V618H275ZM737 187Q697 187 670 214T643 279Q643 319 670 346T737 373Q777 373 804 346T832 279Q832 241 805 214T737 187ZM737 996Q697 996 670 1023T643 1089Q643 1127 670 1155T737 1184Q777
1184 804 1156T832 1089Q832 1051 805 1024T737 996Z" />
<glyph unicode="&#xf8;" horiz-adv-x="1053" d="M91 -24L232 141Q204 193 190 257T176 395Q176 524 210 641T310 849T471 993T689 1046Q764 1046 822 1023T923 957L998 1046H1128L985 879Q1044 772 1044 631Q1044 503 1011 386T913 176T753 30T533 -24Q457 -24
398 -2T295 63L221 -24H91ZM539 105Q628 105 696 148T811 264T881 428T905 619Q905 657 900 691T883 757L387 172Q413 140 451 123T539 105ZM334 264L833 849Q806 882 768 900T680 918Q591 918 523 875T409 759T339 593T315 401Q315 364 319 329T334 264Z" />
<glyph unicode="&#xf9;" horiz-adv-x="1080" d="M500 -24Q386 -24 317 26T224 175T225 417L331 1022H469L360 403Q333 253 377 178T535 103Q655 103 733 182T837 409L943 1022H1081L901 0H765L787 124Q736 51 663 14T500 -24ZM686 1152L399 1464H590L819 1152H686Z" />
<glyph unicode="&#xfa;" horiz-adv-x="1080" d="M500 -24Q386 -24 317 26T224 175T225 417L331 1022H469L360 403Q333 253 377 178T535 103Q655 103 733 182T837 409L943 1022H1081L901 0H765L787 124Q736 51 663 14T500 -24ZM631 1152L968 1464H1162L767 1152H631Z" />
<glyph unicode="&#xfb;" horiz-adv-x="1080" d="M500 -24Q386 -24 317 26T224 175T225 417L331 1022H469L360 403Q333 253 377 178T535 103Q655 103 733 182T837 409L943 1022H1081L901 0H765L787 124Q736 51 663 14T500 -24ZM379 1152L714 1464H853L1080 1152H955L765
1356L505 1152H379Z" />
<glyph unicode="&#xfc;" horiz-adv-x="1080" d="M500 -24Q386 -24 317 26T224 175T225 417L331 1022H469L360 403Q333 253 377 178T535 103Q655 103 733 182T837 409L943 1022H1081L901 0H765L787 124Q736 51 663 14T500 -24ZM910 1222Q877 1222 856 1244T834
1299Q834 1344 867 1374T940 1405Q974 1405 994 1383T1015 1327Q1015 1298 1000 1275T961 1237T910 1222ZM578 1222Q545 1222 524 1244T503 1299Q503 1328 518 1352T557 1390T608 1405Q643 1405 663 1383T683 1327Q683 1284 651 1253T578 1222Z" />
<glyph unicode="&#xfd;" horiz-adv-x="1007" d="M209 -388L430 29L246 1022H384L503 319Q508 290 513 258T524 198Q537 224 554 257T587 319L959 1022H1107L353 -388H209ZM594 1152L931 1464H1125L730 1152H594Z" />
<glyph unicode="&#xfe;" horiz-adv-x="1081" d="M91 -407L407 1388L554 1444L460 912Q518 972 587 1009T751 1046Q851 1046 922 995T1032 851T1071 635Q1071 481 1033 359T926 152T766 21T570 -24Q475 -24 415 17T322 121L239 -349L91 -407ZM571 105Q684 105 765
170T889 351T932 618Q932 752 876 835T711 918Q633 918 559 875T433 758L347 269Q379 197 433 151T571 105Z" />
<glyph unicode="&#xff;" horiz-adv-x="1007" d="M209 -388L430 29L246 1022H384L503 319Q508 290 513 258T524 198Q537 224 554 257T587 319L959 1022H1107L353 -388H209ZM872 1222Q839 1222 818 1244T796 1299Q796 1344 829 1374T902 1405Q936 1405 956 1383T977
1327Q977 1298 962 1275T923 1237T872 1222ZM540 1222Q507 1222 486 1244T465 1299Q465 1328 480 1352T519 1390T570 1405Q605 1405 625 1383T645 1327Q645 1284 613 1253T540 1222Z" />
<glyph unicode="&#x2013;" horiz-adv-x="1001" d="M205 513L226 635H985L964 513H205Z" />
<glyph unicode="&#x2014;" horiz-adv-x="1157" d="M93 513L114 635H1253L1232 513H93Z" />
<glyph unicode="&#x2018;" horiz-adv-x="421" d="M365 951Q327 951 298 980T268 1065Q268 1137 300 1205T383 1331T491 1424L529 1403Q508 1383 480 1348T429 1267T397 1173Q439 1171 465 1146T491 1082Q491 1024 454 988T365 951Z" />
<glyph unicode="&#x2019;" horiz-adv-x="421" d="M319 951L281 972Q303 992 331 1028T381 1109T412 1203Q371 1205 346 1230T321 1295Q321 1352 358 1388T445 1424Q485 1424 514 1396T543 1310Q543 1238 511 1170T428 1044T319 951Z" />
<glyph unicode="&#x201a;" horiz-adv-x="421" d="M119 -282L81 -261Q102 -241 130 -205T180 -124T211 -31Q170 -29 145 -3T119 61Q119 119 156 155T241 191Q282 191 311 163T341 77Q341 4 309 -64T227 -189T119 -282Z" />
<glyph unicode="&#x201c;" horiz-adv-x="804" d="M365 951Q327 951 298 980T268 1065Q268 1137 300 1205T383 1331T491 1424L529 1403Q508 1383 480 1347T429 1266T397 1173Q439 1171 465 1146T491 1082Q491 1024 454 988T365 951ZM747 951Q708 951 679 980T649
1067Q649 1138 681 1206T765 1331T873 1424L912 1403Q890 1383 863 1347T812 1266T781 1173Q822 1171 847 1146T873 1082Q873 1043 855 1014T809 968T747 951Z" />
<glyph unicode="&#x201d;" horiz-adv-x="804" d="M701 951L663 972Q684 992 712 1028T763 1109T795 1203Q755 1205 729 1230T702 1295Q702 1352 739 1388T827 1424Q866 1424 895 1396T924 1310Q924 1238 892 1170T809 1044T701 951ZM319 951L281 972Q303 992 331
1028T381 1109T412 1203Q371 1205 346 1230T321 1295Q321 1352 358 1388T445 1424Q485 1424 514 1396T543 1310Q543 1238 511 1170T428 1044T319 951Z" />
<glyph unicode="&#x201e;" horiz-adv-x="804" d="M499 -282L461 -261Q482 -241 509 -206T560 -125T591 -31Q551 -29 526 -3T500 61Q500 119 537 155T621 191Q663 191 692 163T721 77Q721 4 690 -64T607 -189T499 -282ZM117 -282L79 -261Q101 -241 128 -206T179
-125T210 -31Q169 -29 143 -3T117 61Q117 119 154 155T239 191Q281 191 310 163T339 77Q339 4 308 -64T225 -189T117 -282Z" />
<glyph unicode="&#x2022;" horiz-adv-x="835" d="M491 487Q410 487 359 540T308 669Q308 738 344 794T438 885T564 919Q618 919 659 894T725 827T749 735Q749 666 712 610T616 520T491 487Z" />
<glyph unicode="&#x2039;" horiz-adv-x="579" d="M371 0L165 512L550 1022H699L313 511L517 0H371Z" />
<glyph unicode="&#x203a;" horiz-adv-x="579" d="M49 0L436 513L231 1022H377L584 512L198 0H49Z" />
</font>
</defs>
</svg>
