<?xml version="1.0" standalone="no"?>
<!DOCTYPE svg PUBLIC "-//W3C//DTD SVG 1.1//EN" "http://www.w3.org/Graphics/SVG/1.1/DTD/svg11.dtd">
<svg xmlns="http://www.w3.org/2000/svg">
<defs >
<font id="Overpass" horiz-adv-x="1184" ><font-face
    font-family="Overpass Medium"
    units-per-em="2000"
    panose-1="0 0 0 0 0 0 0 0 0 0"
    ascent="1766"
    descent="-766"
    alphabetic="0" />
<glyph unicode=" " horiz-adv-x="480" />
<glyph unicode="!" horiz-adv-x="564" d="M241 386L184 982V1424H384V982L325 386H241ZM282 -26Q218 -26 176 18T134 121Q134 180 176 224T282 269Q346 269 388 225T431 121Q431 62 389 18T282 -26Z" />
<glyph unicode="&quot;" horiz-adv-x="832" d="M526 844L485 1400H730L689 844H526ZM142 844L103 1400H346L305 844H142Z" />
<glyph unicode="#" horiz-adv-x="1379" d="M268 0L326 382H97L123 553H351L400 877H178L202 1046H426L481 1400H659L605 1046H874L928 1400H1107L1052 1046H1282L1257 877H1026L977 553H1201L1176 382H952L894 0H714L772 382H505L447 0H268ZM531 553H798L848 877H580L531
553Z" />
<glyph unicode="$" horiz-adv-x="1186" d="M490 -192V-13Q350 14 252 100T113 308L301 376Q342 284 421 226T605 168Q716 168 781 223T847 383Q847 456 807 506T700 592T556 658Q485 685 415 717T287 796T194 908T159 1070Q159 1196 245 1294T490 1416V1575H692V1414Q812
1391 889 1321T995 1153L811 1092Q786 1151 727 1192T574 1233Q477 1233 423 1191T369 1070Q369 1011 407 971T507 900T644 842Q715 815 787 780T920 694T1019 568T1057 386Q1057 271 1010 186T880 50T692 -16V-192H490Z" />
<glyph unicode="%" horiz-adv-x="1728" d="M288 -24L1243 1424H1440L484 -24H288ZM429 705Q309 705 237 760T133 897T101 1064Q101 1123 118 1185T174 1302T275 1390T429 1424Q518 1424 580 1393T680 1309T736 1193T754 1064Q754 1006 738 944T683 827T583 739T429
705ZM429 867Q481 867 515 894T566 967T583 1064Q583 1123 566 1167T515 1236T429 1262Q375 1262 341 1235T291 1163T274 1064Q274 1007 291 963T342 893T429 867ZM1299 -24Q1180 -24 1109 30T1005 168T973 336Q973 394 990 456T1046 573T1146 661T1299 695Q1389
695 1451 664T1552 580T1608 464T1626 336Q1626 277 1610 214T1555 97T1454 10T1299 -24ZM1299 138Q1352 138 1386 165T1436 238T1453 336Q1453 394 1436 438T1385 507T1299 533Q1246 533 1212 506T1162 434T1145 336Q1145 278 1162 234T1213 164T1299 138Z" />
<glyph unicode="&amp;" horiz-adv-x="1376" d="M519 -24Q397 -24 305 24T162 160T110 367Q110 471 152 548T267 683T427 790Q347 888 311 959T274 1114Q274 1211 320 1280T443 1387T614 1424Q712 1424 787 1385T906 1275T950 1112Q950 991 879 908T700 756L931
480Q952 532 962 582T976 670H1168Q1165 587 1141 495T1066 320L1331 0H1076L946 158Q863 70 754 23T519 -24ZM547 164Q624 164 696 200T828 300L535 656Q430 592 372 528T314 376Q314 281 378 223T547 164ZM593 886Q672 932 717 985T762 1102Q762 1177 717 1217T610
1258Q546 1258 505 1220T463 1119Q463 1066 499 1011T593 886Z" />
<glyph unicode="&apos;" horiz-adv-x="449" d="M142 844L103 1400H346L305 844H142Z" />
<glyph unicode="(" horiz-adv-x="706" d="M397 -260Q336 -180 280 -65T189 207T153 567Q153 770 191 934T291 1221T419 1424H613Q584 1388 540 1312T453 1124T380 872T351 567Q351 403 378 267T446 25T526 -153T591 -260H397Z" />
<glyph unicode=")" horiz-adv-x="706" d="M115 -260Q139 -225 179 -153T259 24T327 266T355 567Q355 731 326 872T253 1124T166 1311T93 1424H287Q354 1344 415 1221T514 934T553 567Q553 364 518 208T426 -64T309 -260H115Z" />
<glyph unicode="*" horiz-adv-x="1079" d="M354 583L205 694L340 880L447 962L314 966L106 1034L165 1214L369 1146L481 1066L446 1198V1426H633V1198L595 1067L708 1146L914 1214L972 1034L763 966L630 962L739 880L874 694L725 583L585 772L539 908L492 772L354 583Z" />
<glyph unicode="+" horiz-adv-x="1284" d="M541 216V590H173V782H541V1156H742V782H1113V590H742V216H541Z" />
<glyph unicode="," horiz-adv-x="466" d="M177 -282L104 -237Q122 -221 147 -189T194 -115T220 -28Q165 -20 127 17T88 113Q88 181 131 221T232 262Q295 262 342 217T390 82Q390 4 361 -65T284 -190T177 -282Z" />
<glyph unicode="-" horiz-adv-x="808" d="M163 499V690H647V499H163Z" />
<glyph unicode="." horiz-adv-x="462" d="M230 -26Q168 -26 126 17T83 119Q83 177 125 221T230 265Q293 265 336 221T379 119Q379 60 336 17T230 -26Z" />
<glyph unicode="/" horiz-adv-x="1002" d="M-19 -260L769 1424H969L183 -260H-19Z" />
<glyph unicode="0" horiz-adv-x="1294" d="M647 -24Q503 -24 407 39T255 208T174 442T150 700Q150 795 164 896T210 1092T300 1261T442 1380T647 1424Q791 1424 887 1361T1039 1192T1120 958T1145 700Q1145 605 1131 504T1083 308T992 139T850 20T647 -24ZM647
167Q735 167 791 215T879 341T923 514T935 700Q935 799 922 894T877 1066T789 1189T647 1235Q558 1235 501 1187T413 1060T369 886T356 700Q356 602 369 507T415 335T504 213T647 167Z" />
<glyph unicode="1" horiz-adv-x="764" d="M304 0V1092H76V1239Q145 1239 200 1254T294 1304T354 1400H506V0H304Z" />
<glyph unicode="2" horiz-adv-x="1224" d="M136 0Q136 143 175 252T280 445T429 592T603 708Q672 748 732 792T829 891T866 1019Q866 1112 800 1173T619 1235Q503 1235 437 1183T339 1043L158 1124Q204 1256 328 1340T622 1424Q764 1424 864 1372T1018 1229T1072
1018Q1072 895 1022 811T888 664T704 542Q617 491 549 440T435 330T372 196H1084V0H136Z" />
<glyph unicode="3" horiz-adv-x="1202" d="M585 -24Q410 -24 287 60T101 303L287 379Q378 168 585 168Q713 168 785 230T858 397Q858 505 787 565T591 626H480V818H583Q685 818 745 875T806 1024Q806 1119 746 1176T587 1233Q504 1233 438 1190T331 1062L145 1133Q202
1271 318 1347T588 1424Q712 1424 808 1375T959 1241T1014 1046Q1014 949 967 868T838 740Q947 697 1006 606T1066 392Q1066 271 1005 177T835 30T585 -24Z" />
<glyph unicode="4" horiz-adv-x="1256" d="M760 0V329H44V452L768 1400H960V512H1151V329H960V0H760ZM308 512H760V1116L308 512Z" />
<glyph unicode="5" horiz-adv-x="1235" d="M576 -24Q465 -24 378 -1T228 56T130 127L245 284Q283 252 329 225T434 181T574 164Q668 164 739 202T852 305T893 455Q893 535 862 596T772 691T634 726Q540 726 474 693T367 614L176 691L247 1400H1010V1210H427L382
836Q434 874 503 896T650 918Q790 918 891 857T1046 692T1101 464Q1101 326 1036 216T852 41T576 -24Z" />
<glyph unicode="6" horiz-adv-x="1206" d="M613 -24Q493 -24 402 17T250 131T159 303T128 517Q128 734 216 923T474 1244T892 1424V1241Q775 1215 668 1152T482 993T372 777Q415 822 487 850T654 878Q778 878 876 819T1031 659T1088 434Q1088 300 1026 197T857
35T613 -24ZM612 167Q693 167 755 199T852 289T887 426Q887 546 811 617T612 689Q531 689 468 657T370 565T334 426Q334 348 370 290T470 199T612 167Z" />
<glyph unicode="7" horiz-adv-x="1054" d="M343 0Q344 228 384 431T512 826T742 1210H64V1400H972V1224Q846 1080 764 916T634 587T568 271T548 0H343Z" />
<glyph unicode="8" horiz-adv-x="1234" d="M616 -24Q473 -24 365 31T197 185T136 408Q136 536 202 630T374 769Q321 796 281 839T219 937T196 1058Q196 1162 248 1244T395 1375T616 1424Q743 1424 837 1376T985 1245T1038 1058Q1038 993 1016 938T953 840T858
770Q965 724 1031 630T1098 408Q1098 283 1038 185T869 32T616 -24ZM616 163Q695 163 757 194T856 283T892 420Q892 491 857 549T760 643T616 678Q535 678 473 643T377 550T342 420Q342 341 377 284T474 195T616 163ZM616 851Q714 851 774 906T835 1042Q835 1132
774 1186T616 1240Q521 1240 460 1186T399 1042Q399 961 458 906T616 851Z" />
<glyph unicode="9" horiz-adv-x="1206" d="M340 -24V164Q456 181 559 239T736 395T838 634Q796 587 723 557T551 526Q425 526 325 582T168 739T110 969Q110 1103 172 1205T344 1366T594 1424Q758 1424 864 1353T1022 1160T1074 882Q1074 643 990 448T741 128T340
-24ZM589 714Q669 714 730 746T826 838T861 976Q861 1051 826 1109T730 1200T590 1233Q506 1233 444 1200T348 1109T313 976Q313 896 346 837T442 746T589 714Z" />
<glyph unicode=":" horiz-adv-x="462" d="M230 679Q168 679 126 721T83 823Q83 881 125 925T230 970Q293 970 336 926T379 823Q379 764 336 722T230 679ZM230 -26Q168 -26 126 17T83 119Q83 177 125 221T230 265Q293 265 336 221T379 119Q379 60 336 17T230 -26Z" />
<glyph unicode=";" horiz-adv-x="462" d="M174 -282L101 -237Q129 -213 167 -156T213 -26Q161 -21 124 17T86 113Q86 181 129 221T230 262Q293 262 340 217T388 82Q388 2 359 -67T282 -191T174 -282ZM233 679Q170 679 128 721T86 823Q86 881 128 925T233 970Q296
970 338 926T380 823Q380 764 338 722T233 679Z" />
<glyph unicode="&lt;" horiz-adv-x="1284" d="M1113 219L173 600V771L1113 1154V952L440 686L1113 421V219Z" />
<glyph unicode="=" horiz-adv-x="1284" d="M173 779V972H1113V779H173ZM173 400V591H1113V400H173Z" />
<glyph unicode="&gt;" horiz-adv-x="1284" d="M173 219V420L844 686L173 953V1154L1113 771V600L173 219Z" />
<glyph unicode="?" horiz-adv-x="1026" d="M394 363V418Q394 522 424 592T501 710T596 800Q654 850 698 902T742 1037Q742 1122 684 1179T516 1236Q391 1236 323 1166T255 977H59Q59 1113 116 1213T276 1369T516 1424Q654 1424 749 1373T893 1233T943 1036Q943
948 916 888T846 784T758 700Q716 664 679 625T618 536T594 416V363H394ZM492 -26Q430 -26 388 17T345 119Q345 177 387 221T492 265Q554 265 597 221T640 119Q640 60 597 17T492 -26Z" />
<glyph unicode="@" horiz-adv-x="1635" d="M826 -24Q621 -24 460 57T205 295T112 673Q112 839 170 976T330 1213T566 1369T852 1424Q1054 1424 1205 1345T1439 1131T1523 824Q1523 678 1473 564T1337 385T1149 320Q1108 320 1073 334T1012 377T978 447Q952 402
918 372T841 326T748 311Q664 311 599 354T497 474T459 653Q459 752 504 847T633 1005T829 1067Q902 1067 953 1032T1025 933L1044 1041H1208L1137 646Q1130 609 1125 577T1120 529Q1120 498 1134 481T1177 464Q1226 464 1269 510T1338 638T1364 826Q1364 958 1303
1056T1128 1210T861 1265Q730 1265 624 1221T441 1096T325 907T284 671Q284 510 350 390T540 202T834 135Q902 135 973 145T1106 172L1063 -3Q1009 -14 949 -19T826 -24ZM780 471Q842 471 888 508T958 605T983 728Q983 809 943 857T839 906Q776 906 730 871T658
778T633 650Q633 569 672 520T780 471Z" />
<glyph unicode="A" horiz-adv-x="1383" d="M88 0L596 1400H786L1295 0H1084L967 327H418L303 0H88ZM480 508H902L735 979Q728 998 720 1022T704 1071T692 1113Q687 1095 680 1071T664 1023T649 979L480 508Z" />
<glyph unicode="B" horiz-adv-x="1335" d="M186 0V1400H718Q886 1400 982 1346T1119 1207T1160 1028Q1160 933 1110 856T964 736Q1043 711 1098 662T1181 547T1209 406Q1209 334 1186 262T1109 131T967 36T749 0H186ZM388 188H768Q861 188 913 219T986 298T1007
398Q1007 458 983 512T893 599T706 633H388V188ZM388 816H685Q822 816 890 871T958 1019Q958 1065 940 1110T872 1185T726 1214H388V816Z" />
<glyph unicode="C" horiz-adv-x="1288" d="M710 -23Q550 -23 439 39T259 205T160 439T128 700Q128 829 160 957T261 1191T442 1360T710 1424Q841 1424 933 1385T1084 1283T1176 1154L994 1064Q961 1114 923 1152T834 1212T710 1234Q606 1234 534 1186T419 1058T357
885T338 700Q338 602 359 508T426 337T542 215T710 169Q818 169 885 218T1000 347L1186 278Q1147 193 1083 125T927 17T710 -23Z" />
<glyph unicode="D" horiz-adv-x="1383" d="M186 0V1400H598Q779 1400 904 1340T1107 1180T1219 955T1255 700Q1255 579 1222 456T1114 230T910 63T590 0H186ZM388 190H614Q737 190 819 235T952 354T1023 519T1045 700Q1045 796 1022 887T949 1052T822 1168T636
1212H388V190Z" />
<glyph unicode="E" horiz-adv-x="1215" d="M186 0V1400H1056V1209H388V819H813V628H388V193H1099V0H186Z" />
<glyph unicode="F" horiz-adv-x="1132" d="M186 0V1400H1058V1209H388V819H826V628H388V0H186Z" />
<glyph unicode="G" horiz-adv-x="1372" d="M727 -24Q568 -24 454 36T268 200T162 433T128 700Q128 834 164 963T273 1196T459 1362T727 1424Q859 1424 947 1387T1094 1289T1194 1162L1014 1059Q967 1128 902 1180T727 1232Q617 1232 542 1184T422 1057T358 885T338
700Q338 598 360 503T429 333T550 213T727 169Q814 169 879 207T982 310T1019 462V508H771V696H1230V517Q1230 341 1164 221T983 38T727 -24Z" />
<glyph unicode="H" horiz-adv-x="1414" d="M186 0V1400H388V820H1026V1400H1228V0H1026V629H388V0H186Z" />
<glyph unicode="I" horiz-adv-x="574" d="M186 0V1400H388V0H186Z" />
<glyph unicode="J" horiz-adv-x="1100" d="M469 -24Q318 -24 212 46T48 246L219 330Q260 251 315 210T470 168Q517 168 561 181T640 226T697 317T718 467V1400H921V468Q921 321 880 226T770 76T624 -1T469 -24Z" />
<glyph unicode="K" horiz-adv-x="1352" d="M186 0V1400H388V719L930 1400H1162L770 911L1268 0H1032L632 741L388 440V0H186Z" />
<glyph unicode="L" horiz-adv-x="1123" d="M186 0V1400H388V196H1073V0H186Z" />
<glyph unicode="M" horiz-adv-x="1612" d="M806 -24L433 825Q421 854 408 888T384 952Q386 928 387 891T388 825V0H186V1400H382L772 507Q781 485 790 462T808 415Q816 438 824 461T843 507L1234 1400H1426V0H1223V825Q1223 855 1224 893T1226 953Q1216 925 1202
889T1175 823L806 -24Z" />
<glyph unicode="N" horiz-adv-x="1423" d="M186 0V1400H384L981 461Q995 439 1010 412T1039 357Q1038 382 1037 410T1035 460V1400H1237V0H1048L440 943Q428 964 413 991T383 1043Q386 1020 387 993T388 943V0H186Z" />
<glyph unicode="O" horiz-adv-x="1455" d="M728 -24Q562 -24 447 39T262 208T160 442T128 700Q128 830 160 958T262 1191T447 1360T728 1424Q894 1424 1009 1361T1194 1192T1295 958T1327 700Q1327 570 1296 442T1194 209T1009 40T728 -24ZM728 168Q836 168 910
217T1031 345T1097 517T1117 700Q1117 797 1097 891T1032 1063T912 1187T728 1234Q619 1234 545 1185T425 1057T359 884T338 700Q338 604 358 510T424 338T544 214T728 168Z" />
<glyph unicode="P" horiz-adv-x="1266" d="M186 0V1400H740Q913 1400 1013 1338T1157 1177T1200 974Q1200 900 1175 826T1095 688T953 587T740 549H388V0H186ZM388 738H752Q842 738 895 774T972 864T995 974Q995 1024 975 1079T901 1173T752 1211H388V738Z" />
<glyph unicode="Q" horiz-adv-x="1455" d="M1077 -139L968 22Q916 0 857 -12T728 -24Q562 -24 447 39T262 208T160 442T128 700Q128 830 160 958T262 1191T447 1360T728 1424Q895 1424 1009 1361T1194 1192T1295 958T1327 700Q1327 593 1307 487T1240 286T1119
120L1225 -37L1077 -139ZM728 168Q763 168 794 174T852 194L749 347L902 449L1001 300Q1064 379 1091 488T1118 700Q1118 797 1098 891T1032 1063T912 1187T728 1234Q619 1234 545 1185T425 1057T359 884T338 700Q338 604 358 510T424 338T544 214T728 168Z" />
<glyph unicode="R" horiz-adv-x="1346" d="M186 0V1400H766Q937 1400 1035 1341T1174 1188T1216 990Q1216 909 1184 828T1084 685T906 596L1198 0H970L690 577H388V0H186ZM388 766H770Q860 766 912 798T987 881T1010 987Q1010 1037 989 1088T916 1175T770 1211H388V766Z" />
<glyph unicode="S" horiz-adv-x="1208" d="M610 -24Q485 -24 384 18T211 136T106 309L294 378Q337 284 420 226T615 167Q734 167 805 222T877 383Q877 456 835 506T723 590T572 654Q498 681 423 713T287 792T189 905T151 1067Q151 1164 203 1245T355 1375T594
1424Q709 1424 796 1389T941 1292T1020 1152L836 1091Q810 1151 747 1193T581 1235Q477 1235 418 1190T358 1066Q358 1008 398 969T503 899T646 841Q723 813 800 778T941 691T1045 566T1084 386Q1084 255 1022 164T852 24T610 -24Z" />
<glyph unicode="T" horiz-adv-x="1179" d="M488 0V1206H96V1400H1083V1206H690V0H488Z" />
<glyph unicode="U" horiz-adv-x="1393" d="M696 -24Q523 -24 408 40T234 228T176 529V1400H378V529Q378 354 453 261T696 168Q803 168 874 207T980 325T1015 529V1400H1217V529Q1217 389 1182 285T1079 112T914 10T696 -24Z" />
<glyph unicode="V" horiz-adv-x="1324" d="M572 0L86 1400H303L630 416Q639 391 649 359T667 293Q674 325 683 356T702 416L1022 1400H1238L754 0H572Z" />
<glyph unicode="W" horiz-adv-x="1685" d="M380 0L91 1400H302L467 529Q475 488 481 456T490 392Q496 423 504 456T524 528L755 1400H921L1155 530Q1165 492 1172 462T1183 402Q1188 431 1193 461T1207 529L1386 1400H1594L1290 0H1120L866 917Q856 953 849 982T835
1042Q830 1012 823 984T806 918L554 0H380Z" />
<glyph unicode="X" horiz-adv-x="1256" d="M86 0L513 723L115 1400H346L629 916L908 1400H1136L740 731L1170 0H939L624 539L316 0H86Z" />
<glyph unicode="Y" horiz-adv-x="1310" d="M556 0V549L68 1400H296L656 752L1019 1400H1243L758 552V0H556Z" />
<glyph unicode="Z" horiz-adv-x="1293" d="M116 0V154L900 1208H161V1400H1165V1246L382 192H1165V0H116Z" />
<glyph unicode="[" horiz-adv-x="763" d="M213 -260V1424H670V1238H412V-74H670V-260H213Z" />
<glyph unicode="\" horiz-adv-x="1002" d="M769 -260L-19 1424H183L969 -260H769Z" />
<glyph unicode="]" horiz-adv-x="763" d="M93 -260V-74H350V1238H93V1424H550V-260H93Z" />
<glyph unicode="^" horiz-adv-x="1284" d="M156 703L554 1424H728L1128 703H924L643 1171L362 703H156Z" />
<glyph unicode="_" horiz-adv-x="984" d="M-30 -356V-179H1014V-356H-30Z" />
<glyph unicode="`" horiz-adv-x="801" d="M443 1152L87 1464H356L640 1152H443Z" />
<glyph unicode="a" horiz-adv-x="1073" d="M461 -24Q294 -24 199 67T103 317Q103 419 151 495T286 612T492 654Q564 654 628 639T747 594V663Q747 771 695 822T536 874Q462 874 384 847T232 771L174 934Q255 987 356 1016T559 1046Q749 1046 843 952T938 671V0H747V90Q690
35 616 6T461 -24ZM497 148Q565 148 630 179T747 268V426Q699 454 638 470T521 486Q415 486 354 441T293 316Q293 238 347 193T497 148Z" />
<glyph unicode="b" horiz-adv-x="1134" d="M608 -24Q534 -24 476 2T362 86V0H163V1352L362 1444V937Q407 989 471 1017T607 1046Q736 1046 831 981T978 795T1031 512Q1031 258 920 117T608 -24ZM582 164Q701 164 764 254T828 512Q828 682 765 771T582 860Q517
860 456 826T362 739V286Q398 229 455 197T582 164Z" />
<glyph unicode="c" horiz-adv-x="1028" d="M540 -24Q405 -24 308 40T158 224T105 510Q105 676 158 796T311 981T547 1046Q688 1046 784 981T924 790L736 724Q711 789 663 824T549 859Q434 859 371 768T308 510Q308 346 370 256T544 165Q617 165 669 204T744 316L931
256Q891 120 790 48T540 -24Z" />
<glyph unicode="d" horiz-adv-x="1134" d="M526 -24Q331 -24 218 119T105 512Q105 675 157 795T303 980T527 1046Q673 1046 774 949V1352L973 1444V0H774V81Q682 -24 526 -24ZM556 164Q625 164 681 195T774 286V743Q737 797 680 828T556 860Q436 860 371 770T306
512Q306 407 337 329T424 207T556 164Z" />
<glyph unicode="e" horiz-adv-x="1089" d="M566 -24Q423 -24 320 44T161 233T105 512Q105 680 162 799T323 982T566 1046Q684 1046 781 995T937 836T996 560Q996 536 995 503T989 434H306Q314 349 347 285T437 184T569 148Q636 148 691 171T794 245L910 120Q850
57 763 17T566 -24ZM305 600H798Q796 681 769 742T690 839T564 874Q461 874 387 808T305 600Z" />
<glyph unicode="f" horiz-adv-x="685" d="M220 0V848H67V1022H220V1188Q220 1301 280 1362T451 1424Q507 1424 556 1412T652 1375V1210Q610 1229 575 1238T506 1247Q461 1247 440 1225T419 1152V1022H652V848H419V0H220Z" />
<glyph unicode="g" horiz-adv-x="1136" d="M492 -426L390 -266Q530 -257 614 -230T737 -154T775 -30V87Q688 -24 526 -24Q398 -24 303 42T157 228T105 512Q105 675 157 795T305 980T531 1046Q605 1046 668 1020T775 947V1022H974V49Q974 -69 947 -155T860 -298T710
-387T492 -426ZM564 164Q625 164 682 198T775 290V739Q743 792 683 826T565 860Q439 860 373 771T306 512Q306 405 337 327T427 206T564 164Z" />
<glyph unicode="h" horiz-adv-x="1145" d="M163 0V1352L362 1444V918Q410 982 477 1014T629 1046Q757 1046 837 993T955 841T992 604V0H793V599Q793 721 743 790T586 860Q474 860 418 796T362 603V0H163Z" />
<glyph unicode="i" horiz-adv-x="527" d="M165 0V1022H364V0H165ZM264 1189Q214 1189 179 1224T143 1310Q143 1361 178 1397T264 1433Q316 1433 351 1397T386 1310Q386 1259 351 1224T264 1189Z" />
<glyph unicode="j" horiz-adv-x="527" d="M-6 -428L-103 -274Q45 -247 105 -199T165 -57V1022H364V6Q364 -184 275 -290T-6 -428ZM265 1189Q214 1189 179 1224T143 1310Q143 1361 178 1397T265 1433Q316 1433 351 1398T386 1310Q386 1259 352 1224T265 1189Z" />
<glyph unicode="k" horiz-adv-x="1081" d="M163 0V1350L362 1444V690L678 1022H915L638 739L1019 0H802L496 595L362 458V0H163Z" />
<glyph unicode="l" horiz-adv-x="543" d="M173 0V1352L372 1444V0H173Z" />
<glyph unicode="m" horiz-adv-x="1713" d="M163 0V1022H362V926Q408 986 474 1016T624 1046Q714 1046 784 1008T892 898Q941 969 1019 1007T1194 1046Q1366 1046 1463 945T1560 662V0H1361V600Q1361 728 1312 794T1167 860Q1103 860 1057 829T985 738T960 597V0H761V600Q761
730 713 795T568 860Q470 860 416 793T362 603V0H163Z" />
<glyph unicode="n" horiz-adv-x="1145" d="M163 0V1022H362V920Q410 984 476 1015T629 1046Q810 1046 901 936T992 604V0H793V599Q793 728 740 794T586 860Q474 860 418 796T362 603V0H163Z" />
<glyph unicode="o" horiz-adv-x="1122" d="M561 -24Q349 -24 227 119T105 510Q105 675 160 795T318 980T561 1046Q702 1046 804 982T962 797T1017 512Q1017 346 962 226T804 41T561 -24ZM561 164Q681 164 748 256T816 512Q816 676 749 768T561 860Q441 860 374
768T306 510Q306 347 373 256T561 164Z" />
<glyph unicode="p" horiz-adv-x="1139" d="M163 -406V1022H362V940Q463 1046 612 1046Q742 1046 836 981T982 796T1034 512Q1034 349 982 229T834 42T611 -24Q533 -24 471 4T362 90V-314L163 -406ZM584 164Q704 164 768 254T832 512Q832 674 765 767T584 860Q511
860 455 829T362 738V286Q406 226 462 195T584 164Z" />
<glyph unicode="q" horiz-adv-x="1136" d="M775 -400V90Q725 32 665 4T529 -24Q399 -24 304 41T157 227T105 510Q105 676 156 796T302 981T528 1046Q600 1046 659 1021T775 940V1022H974V-310L775 -400ZM552 164Q616 164 673 195T775 288V738Q737 799 681 829T552
860Q440 860 373 765T306 510Q306 343 370 254T552 164Z" />
<glyph unicode="r" horiz-adv-x="796" d="M163 0V1022H362V896Q395 968 456 1007T595 1046Q693 1046 761 986L732 801Q697 827 660 839T580 851Q513 851 465 817T389 719T362 570V0H163Z" />
<glyph unicode="s" horiz-adv-x="954" d="M475 -24Q363 -24 261 24T94 153L232 270Q285 213 351 182T480 150Q566 150 613 181T660 269Q660 305 639 334T566 391T428 451Q258 514 185 587T112 772Q112 894 210 970T464 1046Q572 1046 662 1006T817 888L682 777Q591
872 462 872Q389 872 346 845T303 769Q303 722 352 687T531 605Q643 566 713 519T816 412T849 272Q849 134 750 55T475 -24Z" />
<glyph unicode="t" horiz-adv-x="766" d="M451 -24Q341 -24 284 40T226 228V848H66V1022H226V1348L425 1444V1022H670V848H425V281Q425 217 448 187T522 157Q594 157 678 208L655 22Q609 -2 559 -13T451 -24Z" />
<glyph unicode="u" horiz-adv-x="1145" d="M520 -24Q337 -24 245 86T153 416V1022H352V425Q352 295 404 230T560 164Q672 164 727 228T783 421V1022H982V0H783V97Q735 35 671 6T520 -24Z" />
<glyph unicode="v" horiz-adv-x="1054" d="M436 0L62 1022H266L498 365Q507 341 515 317T530 266Q537 292 544 316T561 365L790 1022H992L618 0H436Z" />
<glyph unicode="w" horiz-adv-x="1452" d="M343 0L74 1022H271L416 394Q423 367 429 336T440 277Q445 305 453 336T468 394L641 1022H810L983 394Q991 365 999 334T1013 274Q1018 302 1023 333T1036 394L1181 1022H1378L1108 0H931L762 574Q754 604 743 644T724
716Q717 684 707 644T688 574L521 0H343Z" />
<glyph unicode="x" horiz-adv-x="1074" d="M71 0L423 531L96 1022H322L477 789Q494 765 509 740T536 692Q549 715 564 740T596 789L751 1022H978L650 531L1003 0H776L595 273Q579 298 564 322T536 370Q525 347 509 323T477 273L296 0H71Z" />
<glyph unicode="y" horiz-adv-x="1084" d="M286 -388L442 23L62 1022H264L507 359Q518 334 525 311T539 261Q547 288 554 310T571 359L818 1022H1022L489 -388H286Z" />
<glyph unicode="z" horiz-adv-x="1036" d="M123 0V148L652 845H162V1022H904V878L374 178H902V0H123Z" />
<glyph unicode="{" horiz-adv-x="752" d="M668 -260Q570 -257 491 -226T356 -130Q305 -73 278 11T250 205V322Q250 389 229 432Q197 497 132 497H101V670H132Q189 670 219 718T250 844V958Q250 1189 365 1304T668 1424V1248Q560 1244 506 1179T451 995V867Q451
725 406 664T275 584V580Q353 567 393 518Q422 486 436 433T451 297V170Q451 110 464 63T507 -16Q535 -48 575 -66T668 -85V-260Z" />
<glyph unicode="|" horiz-adv-x="563" d="M183 -756V2124H382V-756H183Z" />
<glyph unicode="}" horiz-adv-x="752" d="M85 -260V-84Q193 -79 246 -14T300 170V297Q300 441 343 502T468 578V586Q424 596 393 616T341 671Q322 704 311 752T300 867V996Q300 1115 248 1177Q221 1210 181 1229T85 1249V1424Q176 1423 251 1395T380 1312Q438
1254 469 1166T501 959V844Q501 769 531 722Q565 670 620 670H652V497H620Q564 497 533 448T501 322V206Q501 -24 387 -139T85 -260Z" />
<glyph unicode="~" horiz-adv-x="1284" d="M173 532Q173 612 199 683T284 797T439 841Q510 841 569 820T683 773Q726 753 766 738T845 723Q901 723 933 756T970 841H1112Q1112 760 1086 690T1002 576T846 532Q778 532 719 552T607 597Q562 617 521 632T438 648Q382
648 351 616T314 532H173Z" />
<glyph unicode="&#xa0;" horiz-adv-x="480" />
<glyph unicode="&#xa1;" horiz-adv-x="561" d="M182 -400V41L240 635H323L382 41V-400H182ZM284 753Q219 753 177 797T134 900Q134 959 176 1002T284 1046Q347 1046 389 1003T431 900Q431 841 389 797T284 753Z" />
<glyph unicode="&#xa2;" horiz-adv-x="1052" d="M436 -24V180Q285 217 199 351T113 700Q113 914 199 1048T436 1220V1424H630V1229Q740 1215 818 1154T936 977L744 910Q722 969 677 1005T564 1042Q444 1042 380 951T316 700Q316 540 378 449T555 358Q626 358 676
397T749 509L939 449Q904 327 826 257T630 172V-24H436Z" />
<glyph unicode="&#xa3;" horiz-adv-x="1198" d="M172 0V203Q233 230 269 286T323 408T342 530Q343 542 343 551T344 571H163V746H298Q294 755 289 766T279 788Q258 834 241 888T223 1024Q223 1125 272 1217T424 1366T685 1424Q822 1424 921 1388T1108 1286L1030
1098Q996 1126 950 1157T840 1210T685 1232Q595 1232 539 1202T458 1123T432 1024Q432 973 449 926T484 836Q497 809 505 789T521 746H854V571H552Q552 563 552 553T551 533Q549 438 510 353T396 192H1126V0H172Z" />
<glyph unicode="&#xa4;" horiz-adv-x="1279" d="M233 111L85 261L225 402Q195 458 180 524T164 666Q164 742 180 808T226 932L85 1074L227 1220L363 1084Q419 1121 488 1141T639 1162Q717 1162 786 1143T911 1085L1045 1220L1194 1068L1056 930Q1085 873 1100
808T1116 666Q1116 588 1100 520T1051 396L1194 255L1051 111L913 248Q857 212 788 192T639 171Q560 171 492 190T367 246L233 111ZM639 365Q721 365 783 403T879 510T914 666Q914 753 880 821T783 930T639 970Q558 970 497 930T401 822T366 666Q366 578 400 510T496
404T639 365Z" />
<glyph unicode="&#xa5;" horiz-adv-x="1159" d="M480 0V198H181V360H480V491H181V652H466L43 1400H269L578 830L894 1400H1116L690 652H967V491H678V360H967V198H678V0H480Z" />
<glyph unicode="&#xa6;" horiz-adv-x="563" d="M183 732V1650H382V732H183ZM183 -450V468H382V-450H183Z" />
<glyph unicode="&#xa7;" horiz-adv-x="1067" d="M540 -240Q395 -240 284 -188T113 -57L258 71Q281 47 319 20T412 -28T538 -48Q598 -48 645 -35T720 9T748 93Q748 145 702 184T582 258T424 326Q349 356 283 393T177 486T136 633Q136 709 174 764T272 849Q206 893
171 958T136 1110Q136 1211 188 1281T329 1387T527 1424Q673 1424 768 1374T916 1258L764 1137Q733 1169 677 1199T527 1230Q443 1230 394 1200T344 1108Q344 1063 382 1029T486 967T637 907Q720 876 793 838T911 737T956 571Q956 498 927 444T838 355Q900 306
928 243T956 99Q956 -63 846 -151T540 -240ZM672 446Q708 461 728 488T748 554Q748 604 710 638T607 700T463 754Q408 745 376 716T344 644Q344 605 382 575T493 514T672 446Z" />
<glyph unicode="&#xa8;" horiz-adv-x="801" d="M579 1188Q529 1188 494 1222T459 1308Q459 1359 494 1393T579 1428Q630 1428 664 1394T699 1308Q699 1257 665 1223T579 1188ZM223 1188Q173 1188 138 1222T103 1308Q103 1359 138 1393T223 1428Q275 1428 309 1394T344
1308Q344 1257 310 1223T223 1188Z" />
<glyph unicode="&#xa9;" horiz-adv-x="1712" d="M857 -24Q703 -24 572 31T342 184T188 414T133 700Q133 854 188 985T341 1215T571 1369T857 1424Q1011 1424 1142 1369T1372 1216T1526 986T1581 700Q1581 546 1526 415T1373 185T1143 31T857 -24ZM866 269Q740
269 661 328T545 487T507 705Q507 788 528 866T594 1006T707 1104T872 1141Q986 1141 1060 1084T1168 944L1029 880Q1005 931 966 961T864 991Q788 991 745 951T683 845T664 705Q664 625 684 560T749 456T868 417Q926 417 969 447T1036 538L1172 488Q1135 385 1057
327T866 269ZM857 111Q983 111 1088 155T1271 280T1392 467T1435 700Q1435 826 1393 933T1272 1120T1088 1244T857 1289Q689 1289 558 1212T352 1001T277 700Q277 533 352 400T558 189T857 111Z" />
<glyph unicode="&#xaa;" horiz-adv-x="898" d="M380 546Q296 546 229 578T122 672T83 828Q83 925 131 987T253 1078T404 1108Q457 1108 510 1097T603 1065V1100Q603 1191 564 1230Q543 1252 511 1261T432 1271Q359 1271 302 1250T197 1192L146 1337Q197 1375 276
1399T453 1424Q528 1424 587 1408T688 1353Q731 1315 753 1255T775 1109V566H603V626Q570 596 511 571T380 546ZM411 698Q469 698 520 723T603 780V918Q568 935 520 946T432 957Q387 957 348 945T283 904T258 828Q258 769 299 734T411 698Z" />
<glyph unicode="&#xab;" horiz-adv-x="1060" d="M800 0L496 512L800 1022H1019L715 512L1019 0H800ZM377 0L73 512L377 1022H593L289 512L593 0H377Z" />
<glyph unicode="&#xac;" horiz-adv-x="1284" d="M912 338V752H173V943H1113V338H912Z" />
<glyph unicode="&#xad;" horiz-adv-x="808" d="M163 499V690H647V499H163Z" />
<glyph unicode="&#xae;" horiz-adv-x="1712" d="M857 -24Q703 -24 572 31T342 184T188 414T133 700Q133 854 188 985T341 1215T571 1369T857 1424Q1011 1424 1142 1369T1372 1216T1526 986T1581 700Q1581 546 1526 415T1373 185T1143 31T857 -24ZM857 111Q983
111 1088 155T1271 280T1392 467T1435 700Q1435 826 1393 933T1272 1120T1088 1244T857 1289Q689 1289 558 1212T352 1001T277 700Q277 533 352 400T558 189T857 111ZM560 276V1122H930Q1027 1122 1083 1084T1164 988T1189 871Q1189 792 1143 720T1001 624L1198
276H1027L848 613H712V276H560ZM712 751H930Q986 751 1011 786T1036 869Q1036 894 1026 919T993 962T930 979H712V751Z" />
<glyph unicode="&#xaf;" horiz-adv-x="801" d="M70 1197V1364H730V1197H70Z" />
<glyph unicode="&#xb0;" horiz-adv-x="823" d="M412 900Q315 900 236 946T109 1070T62 1246Q62 1345 109 1423T235 1546T412 1591Q510 1591 589 1546T715 1423T762 1246Q762 1149 715 1071T589 946T412 900ZM412 1081Q479 1081 522 1128T566 1246Q566 1318 523
1363T412 1409Q347 1409 301 1364T255 1246Q255 1176 301 1129T412 1081Z" />
<glyph unicode="&#xb1;" horiz-adv-x="1284" d="M541 398V711H173V904H541V1216H742V904H1113V711H742V398H541ZM173 0V193H1113V0H173Z" />
<glyph unicode="&#xb2;" horiz-adv-x="731" d="M62 888Q62 1007 100 1090T205 1234T356 1344Q407 1373 440 1406T474 1494Q474 1531 446 1564T354 1597Q297 1597 263 1566T214 1474L63 1516Q88 1616 166 1681T365 1746Q490 1746 568 1677T646 1492Q646 1418 617
1367T538 1277T422 1202Q354 1163 313 1125T254 1043H644V888H62Z" />
<glyph unicode="&#xb3;" horiz-adv-x="727" d="M354 870Q236 870 158 932T43 1100L198 1148Q220 1083 260 1050T354 1017Q411 1017 444 1049T477 1132Q477 1178 447 1215T351 1252H286V1389H341Q399 1389 422 1422T446 1496Q446 1537 421 1567T343 1598Q296 1598
264 1570T214 1498L66 1550Q102 1639 178 1692T353 1746Q474 1746 545 1679T616 1512Q616 1456 587 1406T508 1330Q571 1308 608 1257T646 1130Q646 1012 567 941T354 870Z" />
<glyph unicode="&#xb4;" horiz-adv-x="801" d="M247 1152L451 1464H698L422 1152H247Z" />
<glyph unicode="&#xb5;" horiz-adv-x="1155" d="M163 -406V1022H362V425Q362 304 410 234T569 164Q635 164 685 188T764 269T793 421V1022H992V0H793V97Q750 35 692 6T571 -24Q510 -24 453 0T362 81V-314L163 -406Z" />
<glyph unicode="&#xb6;" horiz-adv-x="1274" d="M526 -400V552Q396 554 306 592T160 693T79 830T53 977Q53 1082 96 1179T241 1338T513 1400H1101V-152L902 -243V1206H727V-310L526 -400Z" />
<glyph unicode="&#xb7;" horiz-adv-x="462" d="M230 554Q168 554 126 597T83 698Q83 756 125 800T230 844Q293 844 336 800T379 698Q379 640 336 597T230 554Z" />
<glyph unicode="&#xb8;" horiz-adv-x="801" d="M393 -478Q323 -478 274 -457T195 -404L298 -331Q310 -347 328 -354T374 -361Q419 -361 447 -336T476 -270Q476 -233 444 -209T365 -184Q341 -184 322 -188T286 -202L247 -154L387 20H498L423 -102Q540 -102 591
-153T642 -272Q642 -362 575 -420T393 -478Z" />
<glyph unicode="&#xb9;" horiz-adv-x="415" d="M145 888V1531H44V1654Q105 1654 136 1674T183 1732H311V888H145Z" />
<glyph unicode="&#xba;" horiz-adv-x="934" d="M467 546Q293 546 189 661T85 984Q85 1190 189 1307T467 1424Q643 1424 746 1307T849 984Q849 777 746 662T467 546ZM467 713Q566 713 620 784T674 984Q674 1115 620 1186T467 1258Q371 1258 316 1187T261 984Q261
856 316 785T467 713Z" />
<glyph unicode="&#xbb;" horiz-adv-x="1060" d="M466 0L770 512L466 1022H685L989 512L685 0H466ZM43 0L347 512L43 1022H259L563 512L259 0H43Z" />
<glyph unicode="&#xbc;" horiz-adv-x="1389" d="M145 566V1209H44V1332Q105 1332 136 1352T183 1410H311V566H145ZM26 -24L984 1424H1174L217 -24H26ZM1062 0V186H644V287L1075 845H1221V332H1329V186H1221V0H1062ZM843 332H1062V622L843 332Z" />
<glyph unicode="&#xbd;" horiz-adv-x="1474" d="M145 566V1209H44V1332Q105 1332 136 1352T183 1410H311V566H145ZM26 -24L984 1424H1174L217 -24H26ZM805 0Q805 119 843 202T948 346T1099 456Q1150 485 1183 518T1217 606Q1217 643 1189 676T1097 709Q1040 709
1006 678T957 586L806 628Q831 728 909 793T1108 858Q1233 858 1311 789T1389 604Q1389 530 1360 479T1281 389T1165 314Q1097 275 1056 237T997 155H1387V0H805Z" />
<glyph unicode="&#xbe;" horiz-adv-x="1644" d="M354 548Q236 548 158 610T43 778L198 826Q220 761 260 728T354 695Q411 695 444 727T477 810Q477 856 447 893T351 930H286V1067H341Q399 1067 422 1100T446 1174Q446 1215 421 1245T343 1276Q296 1276 264 1248T214
1176L66 1228Q102 1317 178 1370T353 1424Q474 1424 545 1357T616 1190Q616 1134 587 1084T508 1008Q571 986 608 935T646 808Q646 690 567 619T354 548ZM281 -24L1239 1424H1429L472 -24H281ZM1317 0V186H899V287L1330 845H1476V332H1584V186H1476V0H1317ZM1098
332H1317V622L1098 332Z" />
<glyph unicode="&#xbf;" horiz-adv-x="1026" d="M508 -400Q370 -400 276 -349T132 -208T83 -7Q83 77 110 135T178 237T265 319Q308 356 346 395T408 486T432 610V661H632V608Q632 503 602 435T525 319T430 232Q372 185 327 133T282 -7Q282 -97 340 -155T508 -214Q635
-214 703 -140T772 65H973Q973 -80 914 -184T750 -344T508 -400ZM534 757Q470 757 429 799T387 900Q387 959 428 1002T534 1046Q595 1046 639 1003T684 900Q684 842 640 800T534 757Z" />
<glyph unicode="&#xc0;" horiz-adv-x="1383" d="M88 0L596 1400H786L1295 0H1084L967 327H418L303 0H88ZM480 508H902L735 979Q728 998 720 1022T704 1071T692 1113Q687 1095 680 1071T664 1023T649 979L480 508ZM629 1530L273 1842H542L826 1530H629Z" />
<glyph unicode="&#xc1;" horiz-adv-x="1383" d="M88 0L596 1400H786L1295 0H1084L967 327H418L303 0H88ZM480 508H902L735 979Q728 998 720 1022T704 1071T692 1113Q687 1095 680 1071T664 1023T649 979L480 508ZM544 1530L828 1842H1097L741 1530H544Z" />
<glyph unicode="&#xc2;" horiz-adv-x="1383" d="M88 0L596 1400H786L1295 0H1084L967 327H418L303 0H88ZM480 508H902L735 979Q728 998 720 1022T704 1071T692 1113Q687 1095 680 1071T664 1023T649 979L480 508ZM307 1530L599 1842H786L1076 1530H891L692 1699L494
1530H307Z" />
<glyph unicode="&#xc3;" horiz-adv-x="1383" d="M88 0L596 1400H786L1295 0H1084L967 327H418L303 0H88ZM480 508H902L735 979Q728 998 720 1022T704 1071T692 1113Q687 1095 680 1071T664 1023T649 979L480 508ZM849 1562Q793 1562 746 1579T658 1616Q622 1633
589 1645T519 1658Q482 1658 455 1637T425 1570H326Q326 1646 347 1702T413 1789T533 1820Q591 1820 639 1802T728 1765Q763 1748 796 1735T863 1722Q901 1722 928 1744T957 1812H1057Q1057 1736 1036 1680T970 1593T849 1562Z" />
<glyph unicode="&#xc4;" horiz-adv-x="1383" d="M88 0L596 1400H786L1295 0H1084L967 327H418L303 0H88ZM480 508H902L735 979Q728 998 720 1022T704 1071T692 1113Q687 1095 680 1071T664 1023T649 979L480 508ZM882 1566Q831 1566 796 1600T761 1686Q761 1737
796 1771T882 1806Q933 1806 967 1772T1002 1686Q1002 1635 968 1601T882 1566ZM500 1566Q450 1566 415 1600T380 1686Q380 1737 415 1771T500 1806Q551 1806 585 1772T620 1686Q620 1635 586 1601T500 1566Z" />
<glyph unicode="&#xc5;" horiz-adv-x="1383" d="M88 0L558 1292Q511 1325 481 1377T450 1492Q450 1558 483 1612T571 1698T694 1731Q760 1731 815 1699T904 1612T938 1492Q938 1430 907 1377T826 1292L1295 0H1084L967 327H418L303 0H88ZM480 508H902L736 979Q729
998 721 1023T704 1073T692 1115Q687 1097 680 1073T665 1024T649 979L480 508ZM694 1392Q733 1392 760 1420T788 1492Q788 1534 761 1562T694 1591Q654 1591 627 1563T600 1492Q600 1449 627 1421T694 1392Z" />
<glyph unicode="&#xc6;" horiz-adv-x="1753" d="M-33 0L781 1400H1594V1209H1029V819H1367V628H1029V193H1637V0H827V327H374L189 0H-33ZM479 510H827V1133Q818 1113 806 1089T780 1040T754 994L479 510Z" />
<glyph unicode="&#xc7;" horiz-adv-x="1288" d="M710 -23Q550 -23 439 39T259 205T160 439T128 700Q128 829 160 957T261 1191T442 1360T710 1424Q841 1424 933 1385T1084 1283T1176 1154L994 1064Q961 1114 923 1152T834 1212T710 1234Q606 1234 534 1186T419
1058T357 885T338 700Q338 602 359 508T426 337T542 215T710 169Q818 169 885 218T1000 347L1186 278Q1147 193 1083 125T927 17T710 -23ZM682 -478Q612 -478 563 -457T484 -404L587 -331Q599 -347 617 -354T663 -361Q708 -361 736 -336T765 -270Q765 -233 733
-209T654 -184Q630 -184 611 -188T575 -202L536 -154L651 0H765L712 -102Q829 -102 880 -153T931 -272Q931 -362 864 -420T682 -478Z" />
<glyph unicode="&#xc8;" horiz-adv-x="1215" d="M186 0V1400H1056V1209H388V819H813V628H388V193H1099V0H186ZM578 1530L222 1842H491L775 1530H578Z" />
<glyph unicode="&#xc9;" horiz-adv-x="1215" d="M186 0V1400H1056V1209H388V819H813V628H388V193H1099V0H186ZM493 1530L777 1842H1046L690 1530H493Z" />
<glyph unicode="&#xca;" horiz-adv-x="1215" d="M186 0V1400H1056V1209H388V819H813V628H388V193H1099V0H186ZM256 1530L548 1842H735L1025 1530H840L641 1699L443 1530H256Z" />
<glyph unicode="&#xcb;" horiz-adv-x="1215" d="M186 0V1400H1056V1209H388V819H813V628H388V193H1099V0H186ZM831 1566Q780 1566 745 1600T710 1686Q710 1737 745 1771T831 1806Q882 1806 916 1772T951 1686Q951 1635 917 1601T831 1566ZM449 1566Q399 1566 364
1600T329 1686Q329 1737 364 1771T449 1806Q500 1806 534 1772T569 1686Q569 1635 535 1601T449 1566Z" />
<glyph unicode="&#xcc;" horiz-adv-x="574" d="M186 0V1400H388V0H186ZM233 1530L-123 1842H146L430 1530H233Z" />
<glyph unicode="&#xcd;" horiz-adv-x="574" d="M186 0V1400H388V0H186ZM404 1530L688 1842H957L601 1530H404Z" />
<glyph unicode="&#xce;" horiz-adv-x="574" d="M186 0V1400H388V0H186ZM-89 1530L203 1842H390L680 1530H495L296 1699L98 1530H-89Z" />
<glyph unicode="&#xcf;" horiz-adv-x="574" d="M186 0V1400H388V0H186ZM742 1566Q691 1566 656 1600T621 1686Q621 1737 656 1771T742 1806Q793 1806 827 1772T862 1686Q862 1635 828 1601T742 1566ZM360 1566Q310 1566 275 1600T240 1686Q240 1737 275 1771T360
1806Q411 1806 445 1772T480 1686Q480 1635 446 1601T360 1566Z" />
<glyph unicode="&#xd0;" horiz-adv-x="1383" d="M30 607V793H711V607H30ZM186 0V1400H598Q779 1400 904 1340T1107 1180T1219 955T1255 700Q1255 579 1222 456T1114 230T910 63T590 0H186ZM388 190H614Q737 190 819 235T952 354T1023 519T1045 700Q1045 796 1022
887T949 1052T822 1168T636 1212H388V190Z" />
<glyph unicode="&#xd1;" horiz-adv-x="1423" d="M186 0V1400H384L981 461Q995 439 1010 412T1039 357Q1038 382 1037 410T1035 460V1400H1237V0H1048L440 943Q428 964 413 991T383 1043Q386 1020 387 993T388 943V0H186ZM881 1562Q825 1562 778 1579T690 1616Q654
1633 621 1645T551 1658Q514 1658 487 1637T457 1570H358Q358 1646 379 1702T445 1789T565 1820Q623 1820 671 1802T760 1765Q795 1748 828 1735T895 1722Q933 1722 960 1744T989 1812H1089Q1089 1736 1068 1680T1002 1593T881 1562Z" />
<glyph unicode="&#xd2;" horiz-adv-x="1455" d="M728 -24Q562 -24 447 39T262 208T160 442T128 700Q128 830 160 958T262 1191T447 1360T728 1424Q894 1424 1009 1361T1194 1192T1295 958T1327 700Q1327 570 1296 442T1194 209T1009 40T728 -24ZM728 168Q836 168
910 217T1031 345T1097 517T1117 700Q1117 797 1097 891T1032 1063T912 1187T728 1234Q619 1234 545 1185T425 1057T359 884T338 700Q338 604 358 510T424 338T544 214T728 168ZM666 1530L310 1842H579L863 1530H666Z" />
<glyph unicode="&#xd3;" horiz-adv-x="1455" d="M728 -24Q562 -24 447 39T262 208T160 442T128 700Q128 830 160 958T262 1191T447 1360T728 1424Q894 1424 1009 1361T1194 1192T1295 958T1327 700Q1327 570 1296 442T1194 209T1009 40T728 -24ZM728 168Q836 168
910 217T1031 345T1097 517T1117 700Q1117 797 1097 891T1032 1063T912 1187T728 1234Q619 1234 545 1185T425 1057T359 884T338 700Q338 604 358 510T424 338T544 214T728 168ZM581 1530L865 1842H1134L778 1530H581Z" />
<glyph unicode="&#xd4;" horiz-adv-x="1455" d="M728 -24Q562 -24 447 39T262 208T160 442T128 700Q128 830 160 958T262 1191T447 1360T728 1424Q894 1424 1009 1361T1194 1192T1295 958T1327 700Q1327 570 1296 442T1194 209T1009 40T728 -24ZM728 168Q836 168
910 217T1031 345T1097 517T1117 700Q1117 797 1097 891T1032 1063T912 1187T728 1234Q619 1234 545 1185T425 1057T359 884T338 700Q338 604 358 510T424 338T544 214T728 168ZM344 1530L636 1842H823L1113 1530H928L729 1699L531 1530H344Z" />
<glyph unicode="&#xd5;" horiz-adv-x="1455" d="M728 -24Q562 -24 447 39T262 208T160 442T128 700Q128 830 160 958T262 1191T447 1360T728 1424Q894 1424 1009 1361T1194 1192T1295 958T1327 700Q1327 570 1296 442T1194 209T1009 40T728 -24ZM728 168Q836 168
910 217T1031 345T1097 517T1117 700Q1117 797 1097 891T1032 1063T912 1187T728 1234Q619 1234 545 1185T425 1057T359 884T338 700Q338 604 358 510T424 338T544 214T728 168ZM885 1562Q829 1562 782 1579T694 1616Q658 1633 625 1645T555 1658Q518 1658 491
1637T461 1570H362Q362 1646 383 1702T449 1789T569 1820Q627 1820 675 1802T764 1765Q799 1748 832 1735T899 1722Q937 1722 964 1744T993 1812H1093Q1093 1736 1072 1680T1006 1593T885 1562Z" />
<glyph unicode="&#xd6;" horiz-adv-x="1455" d="M728 -24Q562 -24 447 39T262 208T160 442T128 700Q128 830 160 958T262 1191T447 1360T728 1424Q894 1424 1009 1361T1194 1192T1295 958T1327 700Q1327 570 1296 442T1194 209T1009 40T728 -24ZM728 168Q836 168
910 217T1031 345T1097 517T1117 700Q1117 797 1097 891T1032 1063T912 1187T728 1234Q619 1234 545 1185T425 1057T359 884T338 700Q338 604 358 510T424 338T544 214T728 168ZM919 1566Q868 1566 833 1600T798 1686Q798 1737 833 1771T919 1806Q970 1806 1004
1772T1039 1686Q1039 1635 1005 1601T919 1566ZM537 1566Q487 1566 452 1600T417 1686Q417 1737 452 1771T537 1806Q588 1806 622 1772T657 1686Q657 1635 623 1601T537 1566Z" />
<glyph unicode="&#xd7;" horiz-adv-x="1284" d="M325 224L180 368L502 688L182 1007L321 1145L641 827L959 1147L1104 1003L781 684L1102 364L963 226L645 546L325 224Z" />
<glyph unicode="&#xd8;" horiz-adv-x="1455" d="M139 -24L278 184Q198 289 163 425T128 700Q128 830 159 958T261 1191T446 1360T728 1424Q826 1424 907 1400T1052 1332L1114 1424H1316L1175 1217Q1257 1112 1292 976T1327 700Q1327 570 1295 442T1193 209T1009
40T728 -24Q627 -24 546 1T401 69L338 -24H139ZM728 168Q836 168 910 217T1030 345T1096 517T1117 700Q1117 786 1101 871T1048 1028L514 236Q554 205 607 187T728 168ZM406 373L940 1164Q898 1197 845 1215T728 1234Q619 1234 544 1185T424 1057T358 884T338 700Q338
614 353 529T406 373Z" />
<glyph unicode="&#xd9;" horiz-adv-x="1393" d="M696 -24Q523 -24 408 40T234 228T176 529V1400H378V529Q378 354 453 261T696 168Q803 168 874 207T980 325T1015 529V1400H1217V529Q1217 389 1182 285T1079 112T914 10T696 -24ZM634 1530L278 1842H547L831 1530H634Z" />
<glyph unicode="&#xda;" horiz-adv-x="1393" d="M696 -24Q523 -24 408 40T234 228T176 529V1400H378V529Q378 354 453 261T696 168Q803 168 874 207T980 325T1015 529V1400H1217V529Q1217 389 1182 285T1079 112T914 10T696 -24ZM549 1530L833 1842H1102L746 1530H549Z" />
<glyph unicode="&#xdb;" horiz-adv-x="1393" d="M696 -24Q523 -24 408 40T234 228T176 529V1400H378V529Q378 354 453 261T696 168Q803 168 874 207T980 325T1015 529V1400H1217V529Q1217 389 1182 285T1079 112T914 10T696 -24ZM312 1530L604 1842H791L1081 1530H896L697
1699L499 1530H312Z" />
<glyph unicode="&#xdc;" horiz-adv-x="1393" d="M696 -24Q523 -24 408 40T234 228T176 529V1400H378V529Q378 354 453 261T696 168Q803 168 874 207T980 325T1015 529V1400H1217V529Q1217 389 1182 285T1079 112T914 10T696 -24ZM887 1566Q836 1566 801 1600T766
1686Q766 1737 801 1771T887 1806Q938 1806 972 1772T1007 1686Q1007 1635 973 1601T887 1566ZM505 1566Q455 1566 420 1600T385 1686Q385 1737 420 1771T505 1806Q556 1806 590 1772T625 1686Q625 1635 591 1601T505 1566Z" />
<glyph unicode="&#xdd;" horiz-adv-x="1310" d="M556 0V549L68 1400H296L656 752L1019 1400H1243L758 552V0H556ZM509 1530L793 1842H1062L706 1530H509Z" />
<glyph unicode="&#xde;" horiz-adv-x="1273" d="M186 0V1400H388V1138H741Q913 1138 1013 1076T1157 916T1200 712Q1200 639 1175 564T1095 426T953 325T741 286H388V0H186ZM388 476H752Q842 476 895 511T972 601T995 712Q995 762 975 816T901 909T752 948H388V476Z" />
<glyph unicode="&#xdf;" horiz-adv-x="1134" d="M143 -403V948Q143 1121 204 1225T362 1377T562 1424Q683 1424 775 1379T919 1251T971 1057Q971 994 951 938T890 838T782 770Q866 744 924 694T1012 575T1043 421Q1043 281 988 182T837 29T623 -24Q566 -24 519
-15T437 13L531 166Q550 159 572 157T618 154Q671 154 722 182T807 269T841 416Q841 480 814 538T725 634T561 671H521V849H561Q652 849 710 899T769 1047Q769 1136 717 1192T564 1248Q468 1248 405 1180T342 953V-308L143 -403Z" />
<glyph unicode="&#xe0;" horiz-adv-x="1073" d="M461 -24Q294 -24 199 67T103 317Q103 419 151 495T286 612T492 654Q564 654 628 639T747 594V663Q747 771 695 822T536 874Q462 874 384 847T232 771L174 934Q255 987 356 1016T559 1046Q749 1046 843 952T938
671V0H747V90Q690 35 616 6T461 -24ZM497 148Q565 148 630 179T747 268V426Q699 454 638 470T521 486Q415 486 354 441T293 316Q293 238 347 193T497 148ZM498 1152L142 1464H411L695 1152H498Z" />
<glyph unicode="&#xe1;" horiz-adv-x="1073" d="M461 -24Q294 -24 199 67T103 317Q103 419 151 495T286 612T492 654Q564 654 628 639T747 594V663Q747 771 695 822T536 874Q462 874 384 847T232 771L174 934Q255 987 356 1016T559 1046Q749 1046 843 952T938
671V0H747V90Q690 35 616 6T461 -24ZM497 148Q565 148 630 179T747 268V426Q699 454 638 470T521 486Q415 486 354 441T293 316Q293 238 347 193T497 148ZM413 1152L697 1464H966L610 1152H413Z" />
<glyph unicode="&#xe2;" horiz-adv-x="1073" d="M461 -24Q294 -24 199 67T103 317Q103 419 151 495T286 612T492 654Q564 654 628 639T747 594V663Q747 771 695 822T536 874Q462 874 384 847T232 771L174 934Q255 987 356 1016T559 1046Q749 1046 843 952T938
671V0H747V90Q690 35 616 6T461 -24ZM497 148Q565 148 630 179T747 268V426Q699 454 638 470T521 486Q415 486 354 441T293 316Q293 238 347 193T497 148ZM176 1152L468 1464H655L945 1152H760L561 1321L363 1152H176Z" />
<glyph unicode="&#xe3;" horiz-adv-x="1073" d="M461 -24Q294 -24 199 67T103 317Q103 419 151 495T286 612T492 654Q564 654 628 639T747 594V663Q747 771 695 822T536 874Q462 874 384 847T232 771L174 934Q255 987 356 1016T559 1046Q749 1046 843 952T938
671V0H747V90Q690 35 616 6T461 -24ZM497 148Q565 148 630 179T747 268V426Q699 454 638 470T521 486Q415 486 354 441T293 316Q293 238 347 193T497 148ZM717 1184Q661 1184 614 1201T526 1238Q490 1255 457 1267T387 1280Q350 1280 323 1259T293 1192H194Q194
1268 215 1324T281 1411T401 1442Q459 1442 507 1424T596 1387Q631 1370 664 1357T731 1344Q769 1344 796 1366T825 1434H925Q925 1358 904 1302T838 1215T717 1184Z" />
<glyph unicode="&#xe4;" horiz-adv-x="1073" d="M461 -24Q294 -24 199 67T103 317Q103 419 151 495T286 612T492 654Q564 654 628 639T747 594V663Q747 771 695 822T536 874Q462 874 384 847T232 771L174 934Q255 987 356 1016T559 1046Q749 1046 843 952T938
671V0H747V90Q690 35 616 6T461 -24ZM497 148Q565 148 630 179T747 268V426Q699 454 638 470T521 486Q415 486 354 441T293 316Q293 238 347 193T497 148ZM737 1191Q687 1191 652 1225T617 1311Q617 1362 652 1396T737 1431Q788 1431 822 1397T857 1311Q857 1260
823 1226T737 1191ZM381 1191Q331 1191 296 1225T261 1311Q261 1362 296 1396T381 1431Q433 1431 467 1397T502 1311Q502 1260 468 1226T381 1191Z" />
<glyph unicode="&#xe5;" horiz-adv-x="1073" d="M461 -24Q294 -24 199 67T103 317Q103 419 151 495T286 612T492 654Q564 654 628 639T747 594V663Q747 771 695 822T536 874Q462 874 384 847T232 771L174 934Q255 987 356 1016T559 1046Q749 1046 843 952T938
671V0H747V90Q690 35 616 6T461 -24ZM497 148Q565 148 630 179T747 268V426Q699 454 638 470T521 486Q415 486 354 441T293 316Q293 238 347 193T497 148ZM560 1110Q493 1110 438 1143T349 1231T316 1352Q316 1419 349 1473T437 1559T560 1591Q626 1591 681 1559T770
1473T804 1352Q804 1286 771 1231T682 1143T560 1110ZM560 1252Q598 1252 626 1280T654 1352Q654 1396 626 1423T560 1451Q520 1451 492 1424T464 1352Q464 1309 492 1281T560 1252Z" />
<glyph unicode="&#xe6;" horiz-adv-x="1713" d="M456 -24Q354 -24 274 14T149 128T103 318Q103 434 157 508T298 618T482 654Q550 654 613 640T733 594V663Q733 775 682 824T529 874Q446 874 369 844T232 771L174 934Q239 977 337 1011T552 1046Q644 1046 727
1015T859 906Q919 976 1003 1011T1188 1046Q1311 1046 1409 993T1563 831T1620 560Q1620 536 1619 503T1614 437H930Q936 351 970 288T1062 189T1192 153Q1255 153 1311 175T1416 248L1535 120Q1477 59 1390 18T1188 -24Q1067 -24 975 27T826 160Q746 60 646 18T456
-24ZM490 149Q572 149 642 192T753 295Q745 320 740 362T733 428Q687 454 628 471T514 488Q454 488 404 470T323 414T293 318Q293 242 344 196T490 149ZM929 604H1422Q1420 683 1393 743T1313 838T1188 872Q1085 872 1012 807T929 604Z" />
<glyph unicode="&#xe7;" horiz-adv-x="1028" d="M540 -24Q405 -24 308 40T158 224T105 510Q105 676 158 796T311 981T547 1046Q688 1046 784 981T924 790L736 724Q711 789 663 824T549 859Q434 859 371 768T308 510Q308 346 370 256T544 165Q617 165 669 204T744
316L931 256Q891 120 790 48T540 -24ZM512 -478Q442 -478 393 -457T314 -404L417 -331Q429 -347 447 -354T493 -361Q538 -361 566 -336T595 -270Q595 -233 563 -209T484 -184Q460 -184 441 -188T405 -202L366 -154L481 0H595L542 -102Q659 -102 710 -153T761 -272Q761
-362 694 -420T512 -478Z" />
<glyph unicode="&#xe8;" horiz-adv-x="1089" d="M566 -24Q423 -24 320 44T161 233T105 512Q105 680 162 799T323 982T566 1046Q684 1046 781 995T937 836T996 560Q996 536 995 503T989 434H306Q314 349 347 285T437 184T569 148Q636 148 691 171T794 245L910 120Q850
57 763 17T566 -24ZM305 600H798Q796 681 769 742T690 839T564 874Q461 874 387 808T305 600ZM504 1152L148 1464H417L701 1152H504Z" />
<glyph unicode="&#xe9;" horiz-adv-x="1089" d="M566 -24Q423 -24 320 44T161 233T105 512Q105 680 162 799T323 982T566 1046Q684 1046 781 995T937 836T996 560Q996 536 995 503T989 434H306Q314 349 347 285T437 184T569 148Q636 148 691 171T794 245L910 120Q850
57 763 17T566 -24ZM305 600H798Q796 681 769 742T690 839T564 874Q461 874 387 808T305 600ZM419 1152L703 1464H972L616 1152H419Z" />
<glyph unicode="&#xea;" horiz-adv-x="1089" d="M566 -24Q423 -24 320 44T161 233T105 512Q105 680 162 799T323 982T566 1046Q684 1046 781 995T937 836T996 560Q996 536 995 503T989 434H306Q314 349 347 285T437 184T569 148Q636 148 691 171T794 245L910 120Q850
57 763 17T566 -24ZM305 600H798Q796 681 769 742T690 839T564 874Q461 874 387 808T305 600ZM182 1152L474 1464H661L951 1152H766L567 1321L369 1152H182Z" />
<glyph unicode="&#xeb;" horiz-adv-x="1089" d="M566 -24Q423 -24 320 44T161 233T105 512Q105 680 162 799T323 982T566 1046Q684 1046 781 995T937 836T996 560Q996 536 995 503T989 434H306Q314 349 347 285T437 184T569 148Q636 148 691 171T794 245L910 120Q850
57 763 17T566 -24ZM305 600H798Q796 681 769 742T690 839T564 874Q461 874 387 808T305 600ZM743 1191Q693 1191 658 1225T623 1311Q623 1362 658 1396T743 1431Q794 1431 828 1397T863 1311Q863 1260 829 1226T743 1191ZM387 1191Q337 1191 302 1225T267 1311Q267
1362 302 1396T387 1431Q439 1431 473 1397T508 1311Q508 1260 474 1226T387 1191Z" />
<glyph unicode="&#xec;" horiz-adv-x="527" d="M165 0V1022H364V0H165ZM202 1152L-154 1464H115L399 1152H202Z" />
<glyph unicode="&#xed;" horiz-adv-x="527" d="M165 0V1022H364V0H165ZM373 1152L657 1464H926L570 1152H373Z" />
<glyph unicode="&#xee;" horiz-adv-x="527" d="M165 0V1022H364V0H165ZM-120 1152L172 1464H359L649 1152H464L265 1321L67 1152H-120Z" />
<glyph unicode="&#xef;" horiz-adv-x="527" d="M165 0V1022H364V0H165ZM441 1191Q391 1191 356 1225T321 1311Q321 1362 356 1396T441 1431Q492 1431 526 1397T561 1311Q561 1260 527 1226T441 1191ZM85 1191Q35 1191 0 1225T-35 1311Q-35 1362 0 1396T85 1431Q137
1431 171 1397T206 1311Q206 1260 172 1226T85 1191Z" />
<glyph unicode="&#xf0;" horiz-adv-x="1122" d="M561 -24Q426 -24 323 36T163 202T105 442Q105 579 162 684T319 850T545 910Q644 910 710 870T808 775Q790 885 741 979T608 1139L486 1008L384 1106L481 1210Q434 1230 379 1243T262 1259V1424Q358 1420 445 1399T605
1342L721 1464L824 1364L729 1264Q870 1150 943 965T1017 541Q1017 375 966 248T813 48T561 -24ZM561 164Q633 164 690 200T782 298T816 440Q816 523 783 587T692 689T559 726Q488 726 431 690T340 590T306 442Q306 362 340 300T433 201T561 164Z" />
<glyph unicode="&#xf1;" horiz-adv-x="1145" d="M163 0V1022H362V920Q410 984 476 1015T629 1046Q810 1046 901 936T992 604V0H793V599Q793 728 740 794T586 860Q474 860 418 796T362 603V0H163ZM751 1184Q695 1184 648 1201T560 1238Q524 1255 491 1267T421 1280Q384
1280 357 1259T327 1192H228Q228 1268 249 1324T315 1411T435 1442Q493 1442 541 1424T630 1387Q665 1370 698 1357T765 1344Q803 1344 830 1366T859 1434H959Q959 1358 938 1302T872 1215T751 1184Z" />
<glyph unicode="&#xf2;" horiz-adv-x="1122" d="M561 -24Q349 -24 227 119T105 510Q105 675 160 795T318 980T561 1046Q702 1046 804 982T962 797T1017 512Q1017 346 962 226T804 41T561 -24ZM561 164Q681 164 748 256T816 512Q816 676 749 768T561 860Q441 860
374 768T306 510Q306 347 373 256T561 164ZM499 1152L143 1464H412L696 1152H499Z" />
<glyph unicode="&#xf3;" horiz-adv-x="1122" d="M561 -24Q349 -24 227 119T105 510Q105 675 160 795T318 980T561 1046Q702 1046 804 982T962 797T1017 512Q1017 346 962 226T804 41T561 -24ZM561 164Q681 164 748 256T816 512Q816 676 749 768T561 860Q441 860
374 768T306 510Q306 347 373 256T561 164ZM414 1152L698 1464H967L611 1152H414Z" />
<glyph unicode="&#xf4;" horiz-adv-x="1122" d="M561 -24Q349 -24 227 119T105 510Q105 675 160 795T318 980T561 1046Q702 1046 804 982T962 797T1017 512Q1017 346 962 226T804 41T561 -24ZM561 164Q681 164 748 256T816 512Q816 676 749 768T561 860Q441 860
374 768T306 510Q306 347 373 256T561 164ZM177 1152L469 1464H656L946 1152H761L562 1321L364 1152H177Z" />
<glyph unicode="&#xf5;" horiz-adv-x="1122" d="M561 -24Q349 -24 227 119T105 510Q105 675 160 795T318 980T561 1046Q702 1046 804 982T962 797T1017 512Q1017 346 962 226T804 41T561 -24ZM561 164Q681 164 748 256T816 512Q816 676 749 768T561 860Q441 860
374 768T306 510Q306 347 373 256T561 164ZM719 1184Q663 1184 616 1201T528 1238Q492 1255 459 1267T389 1280Q352 1280 325 1259T295 1192H196Q196 1268 217 1324T283 1411T403 1442Q461 1442 509 1424T598 1387Q633 1370 666 1357T733 1344Q771 1344 798 1366T827
1434H927Q927 1358 906 1302T840 1215T719 1184Z" />
<glyph unicode="&#xf6;" horiz-adv-x="1122" d="M561 -24Q349 -24 227 119T105 510Q105 675 160 795T318 980T561 1046Q702 1046 804 982T962 797T1017 512Q1017 346 962 226T804 41T561 -24ZM561 164Q681 164 748 256T816 512Q816 676 749 768T561 860Q441 860
374 768T306 510Q306 347 373 256T561 164ZM738 1191Q688 1191 653 1225T618 1311Q618 1362 653 1396T738 1431Q789 1431 823 1397T858 1311Q858 1260 824 1226T738 1191ZM382 1191Q332 1191 297 1225T262 1311Q262 1362 297 1396T382 1431Q434 1431 468 1397T503
1311Q503 1260 469 1226T382 1191Z" />
<glyph unicode="&#xf7;" horiz-adv-x="1284" d="M173 590V782H1113V590H173ZM640 168Q586 168 550 204T514 290Q514 343 550 378T640 414Q695 414 731 379T768 290Q768 240 732 204T640 168ZM640 956Q586 956 550 993T514 1080Q514 1131 550 1167T640 1204Q695
1204 731 1168T768 1080Q768 1030 732 993T640 956Z" />
<glyph unicode="&#xf8;" horiz-adv-x="1122" d="M105 -24L214 136Q162 204 134 298T105 510Q105 677 161 797T320 981T561 1046Q695 1046 794 986L835 1046H1018L908 885Q960 818 988 724T1017 512Q1017 260 893 118T561 -24Q427 -24 327 37L285 -24H105ZM561
164Q681 164 748 256T816 512Q816 567 808 614T782 700L437 201Q490 164 561 164ZM340 322L684 824Q632 860 561 860Q441 860 374 768T306 510Q306 454 314 407T340 322Z" />
<glyph unicode="&#xf9;" horiz-adv-x="1145" d="M520 -24Q337 -24 245 86T153 416V1022H352V425Q352 295 404 230T560 164Q672 164 727 228T783 421V1022H982V0H783V97Q735 35 671 6T520 -24ZM499 1152L143 1464H412L696 1152H499Z" />
<glyph unicode="&#xfa;" horiz-adv-x="1145" d="M520 -24Q337 -24 245 86T153 416V1022H352V425Q352 295 404 230T560 164Q672 164 727 228T783 421V1022H982V0H783V97Q735 35 671 6T520 -24ZM414 1152L698 1464H967L611 1152H414Z" />
<glyph unicode="&#xfb;" horiz-adv-x="1145" d="M520 -24Q337 -24 245 86T153 416V1022H352V425Q352 295 404 230T560 164Q672 164 727 228T783 421V1022H982V0H783V97Q735 35 671 6T520 -24ZM176 1152L468 1464H655L945 1152H760L561 1321L363 1152H176Z" />
<glyph unicode="&#xfc;" horiz-adv-x="1145" d="M520 -24Q337 -24 245 86T153 416V1022H352V425Q352 295 404 230T560 164Q672 164 727 228T783 421V1022H982V0H783V97Q735 35 671 6T520 -24ZM737 1191Q687 1191 652 1225T617 1311Q617 1362 652 1396T737 1431Q788
1431 822 1397T857 1311Q857 1260 823 1226T737 1191ZM381 1191Q331 1191 296 1225T261 1311Q261 1362 296 1396T381 1431Q433 1431 467 1397T502 1311Q502 1260 468 1226T381 1191Z" />
<glyph unicode="&#xfd;" horiz-adv-x="1084" d="M286 -388L442 23L62 1022H264L507 359Q518 334 525 311T539 261Q547 288 554 310T571 359L818 1022H1022L489 -388H286ZM392 1152L676 1464H945L589 1152H392Z" />
<glyph unicode="&#xfe;" horiz-adv-x="1139" d="M163 -401V1350L362 1444V940Q404 984 462 1015T612 1046Q741 1046 835 982T982 798T1034 512Q1034 343 980 223T831 40T611 -24Q518 -24 460 9T362 90V-307L163 -401ZM584 164Q704 164 768 254T832 512Q832 668
767 764T584 860Q510 860 454 828T362 738V286Q399 236 453 200T584 164Z" />
<glyph unicode="&#xff;" horiz-adv-x="1084" d="M286 -388L442 23L62 1022H264L507 359Q518 334 525 311T539 261Q547 288 554 310T571 359L818 1022H1022L489 -388H286ZM716 1191Q666 1191 631 1225T596 1311Q596 1362 631 1396T716 1431Q767 1431 801 1397T836
1311Q836 1260 802 1226T716 1191ZM360 1191Q310 1191 275 1225T240 1311Q240 1362 275 1396T360 1431Q412 1431 446 1397T481 1311Q481 1260 447 1226T360 1191Z" />
<glyph unicode="&#x2013;" horiz-adv-x="1014" d="M113 488V661H903V488H113Z" />
<glyph unicode="&#x2014;" horiz-adv-x="1174" d="M3 488V661H1173V488H3Z" />
<glyph unicode="&#x2018;" horiz-adv-x="466" d="M234 882Q173 882 125 926T76 1061Q76 1139 105 1208T182 1332T290 1424L363 1379Q345 1363 320 1331T273 1257T246 1170Q302 1162 340 1126T378 1030Q378 962 335 922T234 882Z" />
<glyph unicode="&#x2019;" horiz-adv-x="466" d="M177 882L104 927Q122 943 147 975T194 1049T220 1136Q165 1144 127 1180T88 1275Q88 1344 131 1384T232 1424Q295 1424 342 1380T390 1245Q390 1168 361 1099T284 973T177 882Z" />
<glyph unicode="&#x201a;" horiz-adv-x="466" d="M177 -282L104 -237Q122 -221 147 -189T194 -115T220 -28Q165 -20 127 17T88 113Q88 181 131 221T232 262Q295 262 342 217T390 82Q390 4 361 -65T284 -190T177 -282Z" />
<glyph unicode="&#x201c;" horiz-adv-x="901" d="M234 882Q173 882 125 926T76 1061Q76 1139 105 1208T182 1332T290 1424L363 1379Q345 1363 320 1331T273 1257T246 1170Q302 1162 340 1126T378 1030Q378 962 335 922T234 882ZM669 882Q608 882 561 926T513 1061Q513
1138 541 1207T618 1332T724 1424L798 1379Q780 1363 755 1331T709 1257T682 1170Q737 1162 775 1126T814 1030Q814 962 770 922T669 882Z" />
<glyph unicode="&#x201d;" horiz-adv-x="901" d="M613 882L540 927Q558 943 583 975T629 1049T655 1136Q601 1144 562 1180T523 1275Q523 1344 567 1384T669 1424Q730 1424 777 1380T824 1245Q824 1168 796 1098T719 973T613 882ZM177 882L104 927Q122 943 147
975T194 1049T220 1136Q165 1144 127 1180T88 1275Q88 1344 131 1384T232 1424Q295 1424 342 1380T390 1245Q390 1168 361 1099T284 973T177 882Z" />
<glyph unicode="&#x201e;" horiz-adv-x="901" d="M613 -282L540 -237Q558 -221 583 -189T629 -115T655 -28Q601 -20 562 17T523 113Q523 181 567 221T669 262Q730 262 777 217T824 82Q824 4 796 -65T719 -191T613 -282ZM177 -282L104 -237Q122 -221 147 -189T194
-115T220 -28Q165 -20 127 17T88 113Q88 181 131 221T232 262Q295 262 342 217T390 82Q390 4 361 -65T284 -190T177 -282Z" />
<glyph unicode="&#x2022;" horiz-adv-x="845" d="M420 451Q349 451 291 484T199 575T165 702Q165 770 199 827T291 918T420 952Q492 952 551 918T645 827T680 702Q680 632 645 575T551 485T420 451Z" />
<glyph unicode="&#x2039;" horiz-adv-x="636" d="M377 0L73 512L377 1022H593L289 512L593 0H377Z" />
<glyph unicode="&#x203a;" horiz-adv-x="636" d="M43 0L347 512L43 1022H259L563 512L259 0H43Z" />
</font>
</defs>
</svg>
