<?xml version="1.0" standalone="no"?>
<!DOCTYPE svg PUBLIC "-//W3C//DTD SVG 1.1//EN" "http://www.w3.org/Graphics/SVG/1.1/DTD/svg11.dtd">
<svg xmlns="http://www.w3.org/2000/svg">
<defs >
<font id="Syne" horiz-adv-x="550" ><font-face
    font-family="Syne SemiBold"
    units-per-em="1000"
    panose-1="0 0 0 0 0 0 0 0 0 0"
    ascent="925"
    descent="-275"
    alphabetic="0" />
<glyph unicode=" " horiz-adv-x="230" />
<glyph unicode="!" horiz-adv-x="290" d="M89 677H201V202H89V677ZM212 108V0H78V108H212Z" />
<glyph unicode="&quot;" horiz-adv-x="377" d="M135 444H75L41 569V652H170V569L135 444ZM302 444H242L208 569V652H337V569L302 444Z" />
<glyph unicode="#" horiz-adv-x="828" d="M502 632H602V16H502V632ZM231 632H332V16H231V632ZM761 249V166H68V249H761ZM761 481V399H68V481H761Z" />
<glyph unicode="$" horiz-adv-x="519" d="M298 700L370 688L345 549L273 561L298 700ZM164 -59L188 80L260 68L236 -71L164 -59ZM41 229H144Q152 192 184 169T273 145Q309 145 329 152T358 174T367 206Q367 228 355 240T318 260T258 275Q221 283 185 294T120 321T74
364T57 426Q57 460 72 487T116 534T183 564T266 574Q331 574 374 553T440 495T463 408H365Q357 447 334 465T265 484Q219 484 195 468T171 423Q171 403 186 390T231 369T299 350Q335 341 367 330T425 304T466 264T481 201Q481 155 456 122T385 72T274 54Q202 54
156 74T83 123T48 182T41 229Z" />
<glyph unicode="%" horiz-adv-x="886" d="M211 334Q160 334 121 354T61 411T40 498Q40 574 87 618T211 663Q289 663 335 619T382 498Q382 448 361 412T301 355T211 334ZM211 413Q246 413 268 436T290 498Q290 538 268 561T211 584Q176 584 154 561T132 498Q132
459 154 436T211 413ZM676 -11Q599 -11 552 33T505 153Q505 228 552 272T676 317Q753 317 799 273T846 153Q846 77 800 33T676 -11ZM676 67Q711 67 733 90T755 153Q755 191 733 214T676 238Q641 238 619 215T596 153Q596 113 618 90T676 67ZM596 686L650 656L268
-34L216 -2L596 686Z" />
<glyph unicode="&amp;" horiz-adv-x="707" d="M242 -11Q200 -11 163 1T97 36T53 89T36 158Q36 204 57 238T114 294T198 327T298 341L302 336Q252 338 209 345T133 370T82 414T64 482Q64 535 94 575T182 637T318 660Q372 660 416 649T491 614T540 556T557 476H455Q454
518 418 540T319 562Q251 562 215 537T179 469Q179 439 196 417T248 383T332 371H682V296H566V0H463Q459 31 458 58T456 119T455 199L462 177Q455 142 440 109T398 48T334 5T242 -11ZM287 81Q342 81 379 103T435 162T455 238V296H332Q250 296 202 268T153 183Q153
137 187 109T287 81Z" />
<glyph unicode="&apos;" horiz-adv-x="211" d="M135 444H75L41 569V652H170V569L135 444Z" />
<glyph unicode="(" horiz-adv-x="325" d="M273 -89L205 -141Q205 -141 190 -123T152 -69T106 18T68 137T52 286Q52 368 67 435T106 553T151 639T189 693T205 711L273 659Q273 659 254 635T209 564T165 447T146 286Q146 212 158 153T190 48T228 -27T260 -73T273 -89Z" />
<glyph unicode=")" horiz-adv-x="325" d="M52 -89Q52 -89 65 -74T97 -28T134 48T166 152T179 286Q179 377 160 446T116 563T72 635T52 659L120 711Q120 711 135 693T174 640T219 553T257 435T273 286Q273 205 258 138T219 19T174 -69T136 -123T120 -141L52 -89Z" />
<glyph unicode="*" horiz-adv-x="476" d="M405 633L432 548L309 511L392 402L320 349L237 467L155 349L83 402L165 510L44 547L72 632L195 590L193 724H282L278 590L405 633Z" />
<glyph unicode="+" horiz-adv-x="523" d="M50 313H473V227H50V313ZM309 456V84H215V456H309Z" />
<glyph unicode="," horiz-adv-x="219" d="M70 -146L50 -117Q66 -93 79 -66T94 -11L41 0V108H178V31Q178 -37 148 -78T70 -146Z" />
<glyph unicode="-" horiz-adv-x="478" d="M80 315H398V226H80V315Z" />
<glyph unicode="." horiz-adv-x="257" d="M195 108V0H62V108H195Z" />
<glyph unicode="/" horiz-adv-x="457" d="M331 742L424 708L125 -109L34 -76L331 742Z" />
<glyph unicode="0" horiz-adv-x="683" d="M343 -11Q260 -11 194 19T90 107T52 248Q52 330 90 388T194 478T343 509Q426 509 491 478T593 389T631 248Q631 165 594 107T491 19T343 -11ZM343 80Q390 80 430 99T494 156T518 248Q518 301 494 339T431 398T343 418Q295
418 255 398T190 340T165 248Q165 194 189 157T254 100T343 80Z" />
<glyph unicode="1" horiz-adv-x="365" d="M25 400V498H269V0H157V400H25Z" />
<glyph unicode="2" horiz-adv-x="561" d="M590 151L439 67L433 91H777V0H304V91Q385 135 449 165T557 221T625 272T649 330Q649 356 636 375T596 404T525 415Q469 415 433 390T395 321H290Q286 376 314 418T397 484T523 509Q578 509 622 497T697 463T746 410T763
342Q763 312 753 288T721 241T667 197T590 151Z" />
<glyph unicode="3" horiz-adv-x="572" d="M300 186L301 191Q352 189 395 181T469 154T518 105T536 27Q536 -27 505 -70T416 -138T282 -163Q208 -163 151 -137T64 -65T37 37H142Q143 7 159 -16T207 -52T282 -65Q348 -65 383 -38T419 40Q419 90 379 114T265 139H190V229H265Q315
229 347 238T394 268T409 319Q409 362 379 387T282 412Q221 412 186 386T150 317H44Q41 361 58 396T109 456T187 496T282 510Q357 510 411 488T495 425T524 333Q524 290 508 262T461 218T390 194T300 186Z" />
<glyph unicode="4" horiz-adv-x="647" d="M498 502V-145H387V400L418 389L146 45L128 84H403V-7H46V84L387 502H498ZM482 -7V84H605V-7H482Z" />
<glyph unicode="5" horiz-adv-x="629" d="M363 263Q410 263 450 250T520 209T566 143T583 53Q583 -15 551 -63T461 -136T329 -162Q275 -162 227 -148T143 -109T84 -46T59 39H166Q170 5 192 -18T248 -54T325 -66Q354 -66 380 -59T427 -37T460 1T472 54Q472 84 461
107T430 145T384 168T329 176Q300 176 271 170T217 148T176 105L78 124L104 500H521V402H208L190 146L178 153Q191 190 219 214T284 250T363 263Z" />
<glyph unicode="6" horiz-adv-x="620" d="M347 424Q417 424 470 397T554 321T584 206Q583 140 550 91T456 15T314 -12Q230 -12 166 13T67 87T32 202Q32 226 38 254T63 314Q65 320 78 341T109 392T149 456T191 525T229 587T256 631T267 648H402L115 236L79 205Q112
255 142 295T202 365T268 409T347 424ZM310 83Q378 83 424 115T471 208Q472 267 428 299T315 332Q238 332 192 296T145 207Q144 147 191 115T310 83Z" />
<glyph unicode="7" horiz-adv-x="572" d="M37 400V498H538V400L244 -150H113L446 444L471 400H37Z" />
<glyph unicode="8" horiz-adv-x="607" d="M303 331Q227 331 173 346T89 396T60 484Q60 534 88 574T170 637T303 660Q383 660 437 637T518 574T546 484Q546 430 517 396T434 347T303 331ZM303 379Q347 379 375 391T419 425T434 474Q434 501 419 521T376 553T303
564Q260 564 232 553T189 522T175 474Q175 446 189 425T231 392T303 379ZM303 -12Q216 -12 158 13T69 82T39 178Q39 239 71 278T163 335T303 353Q384 353 443 335T534 278T567 178Q567 125 538 82T450 14T303 -12ZM303 85Q355 85 388 98T438 134T454 186Q454 217
438 241T389 278T303 291Q252 291 219 278T170 241T154 186Q154 157 170 134T219 98T303 85Z" />
<glyph unicode="9" horiz-adv-x="622" d="M274 76Q206 76 152 103T67 179T36 294Q37 362 71 410T168 485T314 511Q399 511 462 486T559 414T593 298Q593 273 586 245T559 183Q556 178 544 158T514 107T474 41T433 -27T396 -89T369 -133T358 -150H222L510 264L545
293Q513 243 483 203T421 135T354 91T274 76ZM314 417Q243 417 198 386T150 292Q149 234 193 201T309 168Q387 168 433 204T480 294Q481 334 459 361T400 402T314 417Z" />
<glyph unicode=":" horiz-adv-x="290" d="M203 108V0H70V108H203ZM203 492V384H70V492H203Z" />
<glyph unicode=";" horiz-adv-x="260" d="M196 484V376H63V484H196ZM91 -138L71 -109Q87 -85 100 -58T115 -3L62 8V116H199V39Q199 -29 169 -70T91 -138Z" />
<glyph unicode="&lt;" horiz-adv-x="532" d="M389 527L436 445L157 290L436 137L389 53L64 239V341L389 527Z" />
<glyph unicode="=" horiz-adv-x="543" d="M50 420H493V330H50V420ZM50 225H493V135H50V225Z" />
<glyph unicode="&gt;" horiz-adv-x="536" d="M96 445L142 527L468 341V239L142 53L96 137L375 290L96 445Z" />
<glyph unicode="?" horiz-adv-x="589" d="M218 201V370H264Q345 370 383 402T422 492Q422 548 387 579T293 610Q253 610 225 596T181 558T166 502H55Q54 532 63 562T92 619T141 666T209 697T297 709Q356 709 400 693T475 648T520 580T536 494Q536 431 508 387T433
318T328 289V201H218ZM208 0V108H341V0H208Z" />
<glyph unicode="@" horiz-adv-x="1002" d="M503 -49Q365 -49 265 -5T110 123T55 322Q55 439 110 519T266 642T507 684Q648 684 747 642T898 522T951 330Q951 278 934 238T883 176T796 153Q756 153 728 164T681 193T653 233T644 277V496H755V322Q755 295 759 276T776
245T812 233Q835 233 847 244T863 277T867 328Q867 397 843 449T773 536T660 588T509 606Q424 606 356 589T239 536T164 447T138 322Q138 229 182 163T308 63T503 28Q550 28 590 33T665 48T724 71L759 1Q729 -14 690 -25T603 -43T503 -49ZM449 113Q385 113 337
139T261 212T234 315Q234 377 261 424T338 499T457 527Q526 527 570 498T635 420T656 315Q656 289 644 255T606 188T541 134T449 113ZM483 204Q518 204 547 213T598 238T632 273T644 315Q644 343 632 365T598 402T547 426T483 434Q410 434 379 402T347 315Q347
267 381 236T483 204Z" />
<glyph unicode="A" horiz-adv-x="727" d="M168 152V249H554V152H168ZM18 0L301 648H423L708 0H585L337 585H387L140 0H18Z" />
<glyph unicode="B" horiz-adv-x="719" d="M78 0V648H408Q527 648 590 604T654 475Q654 421 630 390T560 343T454 323L458 329Q502 328 541 322T611 299T659 255T677 181Q677 121 647 82T564 23T442 0H78ZM192 97H425Q490 97 526 119T562 190Q562 228 540 245T484
268T410 273H192V97ZM192 368H401Q466 368 501 390T537 462Q537 510 502 530T409 551H192V368Z" />
<glyph unicode="C" horiz-adv-x="813" d="M761 227Q751 152 708 99T594 17T427 -12Q345 -12 277 10T158 74T80 179T52 323Q52 405 79 467T157 572T276 638T427 660Q523 660 594 631T709 548T761 418H651Q637 463 607 494T532 543T427 560Q353 560 294 533T202
453T168 323Q168 247 201 195T294 115T427 88Q486 88 531 104T606 152T650 227H761Z" />
<glyph unicode="D" horiz-adv-x="808" d="M389 648Q494 648 565 622T678 552T738 449T757 327Q757 262 737 203T674 99T560 27T389 0H78V648H389ZM192 100H388Q462 100 511 119T589 170T630 243T642 327Q642 370 630 409T589 480T511 530T388 549H192V100Z" />
<glyph unicode="E" horiz-adv-x="707" d="M192 276V98H647V0H78V648H646V550H192V370H564V276H192Z" />
<glyph unicode="F" horiz-adv-x="676" d="M646 648V550H192V362H564V268H192V0H78V648H646Z" />
<glyph unicode="G" horiz-adv-x="843" d="M415 -12Q332 -12 265 10T151 74T78 179T52 319Q52 398 79 461T156 568T275 636T427 660Q524 660 595 630T708 547T756 420H651Q638 463 609 494T534 542T427 560Q347 560 289 530T199 445T168 319Q168 248 195 197T279
117T418 88Q482 88 530 107T611 162T656 243L707 255Q693 126 616 57T415 -12ZM680 0Q680 32 683 72T690 155T699 232H431V314H781V0H680Z" />
<glyph unicode="H" horiz-adv-x="830" d="M179 373H655V276H179V373ZM639 648H752V0H639V648ZM78 648H192V0H78V648Z" />
<glyph unicode="I" horiz-adv-x="308" d="M97 648H211V0H97V648Z" />
<glyph unicode="J" horiz-adv-x="629" d="M438 240V648H551V235Q551 185 534 140T484 62T403 9T290 -10Q239 -10 192 4T109 45T50 113T25 209H132Q142 150 185 120T290 90Q342 90 374 110T422 163T438 240Z" />
<glyph unicode="K" horiz-adv-x="746" d="M310 315L309 370L723 0H562L191 340L520 648H679L310 315ZM78 648H192V0H78V648Z" />
<glyph unicode="L" horiz-adv-x="644" d="M192 648V98H596V0H78V648H192Z" />
<glyph unicode="M" horiz-adv-x="1018" d="M534 59H483L827 648H940V0H827V485L853 478L571 0H447L165 476L192 484V0H78V648H192L534 59Z" />
<glyph unicode="N" horiz-adv-x="834" d="M677 118L643 105V648H756V0H643L157 527L192 540V0H78V648H192L677 118Z" />
<glyph unicode="O" horiz-adv-x="856" d="M428 -12Q314 -12 230 29T99 145T52 324Q52 428 98 503T229 619T428 660Q543 660 627 620T757 504T804 324Q804 220 758 145T627 29T428 -12ZM428 88Q504 88 562 114T653 192T687 324Q687 402 654 454T562 533T428 560Q353
560 294 534T201 455T167 324Q167 245 201 193T294 114T428 88Z" />
<glyph unicode="P" horiz-adv-x="718" d="M174 217V312H436Q491 312 524 344T558 430Q558 486 525 517T436 549H190V0H76V648H428Q479 648 523 635T600 594T652 527T671 430Q671 375 653 335T601 268T523 230T428 217H174Z" />
<glyph unicode="Q" horiz-adv-x="856" d="M372 43H484V-200H372V43ZM428 -12Q314 -12 230 29T99 145T52 324Q52 428 98 503T229 619T428 660Q543 660 627 620T757 504T804 324Q804 220 758 145T627 29T428 -12ZM428 88Q504 88 562 114T653 192T687 324Q687 402
654 454T562 533T428 560Q353 560 294 534T201 455T167 324Q167 245 201 193T294 114T428 88Z" />
<glyph unicode="R" horiz-adv-x="758" d="M78 0V648H461Q533 648 586 628T668 565T697 456Q697 412 682 381T640 329T578 298T502 284L492 291Q556 290 598 280T662 241T684 157V0H571V151Q571 189 558 210T512 240T419 249H192V0H78ZM192 342H461Q521 342 552
372T583 451Q583 498 552 523T461 549H192V342Z" />
<glyph unicode="S" horiz-adv-x="638" d="M35 215H146Q150 178 175 149T243 103T341 86Q390 86 422 98T469 131T485 182Q485 211 467 227T410 255T313 278Q264 287 218 302T136 340T78 396T57 476Q57 528 86 570T174 636T315 660Q442 660 509 602T574 443H465Q462
506 419 534T310 562Q251 562 211 541T171 473Q171 453 180 439T212 413T272 391T367 368Q415 360 457 346T530 311T580 257T598 176Q598 121 570 79T485 12T336 -13Q267 -13 216 3T128 46T71 104T41 164T35 215Z" />
<glyph unicode="T" horiz-adv-x="658" d="M18 648H640V550H18V648ZM273 562H386V0H273V562Z" />
<glyph unicode="U" horiz-adv-x="812" d="M621 273V648H734V264Q734 203 718 157T671 79T600 27T511 -3T408 -12Q352 -12 302 -3T211 26T141 79T95 157T78 264V648H192V273Q192 197 220 158T298 103T408 88Q467 88 515 103T592 157T621 273Z" />
<glyph unicode="V" horiz-adv-x="710" d="M289 0L20 648H144L375 69H338L568 648H690L424 0H289Z" />
<glyph unicode="W" horiz-adv-x="1203" d="M279 0L20 648H144L364 78H328L538 648H667L877 78H841L1061 648H1183L927 0H793L586 569H620L412 0H279Z" />
<glyph unicode="X" horiz-adv-x="719" d="M542 648H677L395 295L392 292L176 0H40L329 372L332 374L542 648ZM186 648L391 373L392 371L679 0H535L324 295L322 297L50 648H186Z" />
<glyph unicode="Y" horiz-adv-x="685" d="M663 648L399 211V0H285V211L21 648H152L375 266H313L533 648H663Z" />
<glyph unicode="Z" horiz-adv-x="758" d="M62 648H696V550L166 64L153 98H696V0H62V98L593 584L605 550H62V648Z" />
<glyph unicode="[" horiz-adv-x="384" d="M325 -88V-182H89V800H325V706H183V-88H325Z" />
<glyph unicode="\" horiz-adv-x="457" d="M125 742L424 -76L331 -109L34 708L125 742Z" />
<glyph unicode="]" horiz-adv-x="387" d="M60 -87H203V706H60V800H297V-181H60V-87Z" />
<glyph unicode="^" horiz-adv-x="587" d="M361 611V503H227V611H361Z" />
<glyph unicode="_" horiz-adv-x="827" d="M74 -108H754V-200H74V-108Z" />
<glyph unicode="`" horiz-adv-x="472" d="M268 601L100 760H247L372 601H268Z" />
<glyph unicode="a" horiz-adv-x="666" d="M284 -11Q216 -11 160 22T70 113T36 248Q36 326 70 384T162 476T292 509Q372 509 419 474T486 380T506 248Q506 207 494 162T457 77T389 14T284 -11ZM318 81Q374 81 413 102T473 162T494 248Q494 301 473 338T413 396T318
417Q238 417 194 370T150 248Q150 199 171 161T231 102T318 81ZM494 498H606V0H502Q502 0 500 19T496 65T494 118V498Z" />
<glyph unicode="b" horiz-adv-x="685" d="M401 -11Q339 -11 297 13T229 77T192 161T180 248Q180 303 191 350T227 432T295 488T401 509Q473 509 528 476T616 385T649 248Q649 172 616 114T527 22T401 -11ZM367 81Q418 81 455 102T514 161T535 248Q535 323 491
370T367 418Q312 418 273 397T213 339T192 248Q192 200 212 162T272 103T367 81ZM192 698V118Q192 91 189 57T183 0H80V698H192Z" />
<glyph unicode="c" horiz-adv-x="634" d="M598 193Q592 129 557 83T464 13T329 -11Q247 -11 181 19T75 107T36 248Q36 331 75 389T180 478T329 509Q405 509 463 485T556 415T597 306H495Q478 359 434 388T329 418Q280 418 239 399T174 342T149 248Q149 193 173
155T239 99T329 80Q395 80 437 109T496 193H598Z" />
<glyph unicode="d" horiz-adv-x="686" d="M284 -11Q215 -11 159 22T69 113T36 248Q36 326 68 384T156 476T284 509Q347 509 390 489T458 433T494 350T506 248Q506 207 494 162T457 77T389 14T284 -11ZM318 81Q374 81 413 102T473 162T494 248Q494 301 473 338T413
397T318 418Q238 418 194 371T150 248Q150 199 171 161T231 102T318 81ZM494 698H606V0H502Q500 23 497 57T494 118V698Z" />
<glyph unicode="e" horiz-adv-x="625" d="M478 164H585Q577 113 546 74T460 12T331 -11Q246 -11 179 20T74 110T36 248Q36 327 73 386T175 477T327 509Q416 509 475 478T564 384T588 226H149Q154 184 176 151T238 99T329 80Q387 80 426 103T478 164ZM324 419Q256
419 212 386T155 300H476Q472 356 431 387T324 419Z" />
<glyph unicode="f" horiz-adv-x="409" d="M27 492H388V402H27V492ZM314 698H396V602H334Q306 603 286 596T254 570T242 516V0H130V526Q130 586 152 624T215 680T314 698Z" />
<glyph unicode="g" horiz-adv-x="622" d="M284 77Q214 77 158 102T69 175T36 290Q36 357 67 406T155 482T284 509Q305 509 324 506T362 498L595 497V404Q547 403 499 417T413 448L410 454Q444 437 471 413T515 357T531 287Q531 221 500 174T413 102T284 77ZM444
-203V-180Q444 -131 415 -111T334 -91H199Q159 -91 131 -85T85 -66T60 -37T52 0Q52 40 76 60T141 86T227 88L284 77Q225 75 195 67T164 33Q164 18 176 9T210 0H352Q413 0 459 -14T530 -63T556 -158V-203H444ZM284 164Q324 164 355 179T404 222T422 290Q422 330
404 359T355 403T284 418Q245 418 214 403T164 360T146 290Q146 250 164 222T213 179T284 164Z" />
<glyph unicode="h" horiz-adv-x="652" d="M480 0V288Q480 328 467 354T425 395T351 409Q305 409 267 390T205 338T177 267L176 323Q181 359 198 392T243 452T309 493T393 509Q436 509 472 497T535 462T576 404T591 324V0H480ZM72 0V698H183V0H72Z" />
<glyph unicode="i" horiz-adv-x="252" d="M192 709V602H59V709H192ZM69 498H181V0H69V498Z" />
<glyph unicode="j" horiz-adv-x="252" d="M71 498H183V-200H71V498ZM192 709V602H59V709H192Z" />
<glyph unicode="k" horiz-adv-x="601" d="M72 698H183V0H72V698ZM571 498L292 242L295 312L592 0H450L186 279L417 498H571Z" />
<glyph unicode="l" horiz-adv-x="256" d="M72 698H183V0H72V698Z" />
<glyph unicode="m" horiz-adv-x="1039" d="M62 498H173V0H62V498ZM383 509Q426 509 462 497T525 461T566 400T581 315V0H470V293Q470 354 441 383T348 413Q300 413 261 393T196 340T167 268L166 322Q171 359 188 392T233 452T299 494T383 509ZM780 509Q824 509
860 497T922 461T964 400T979 315V0H867V293Q867 354 838 383T745 413Q697 413 658 393T594 340T565 268L563 324Q568 360 586 393T632 453T697 494T780 509Z" />
<glyph unicode="n" horiz-adv-x="642" d="M62 498H173V0H62V498ZM383 509Q426 509 462 497T525 461T566 400T581 315V0H470V293Q470 354 441 383T348 413Q300 413 261 393T196 340T167 268L166 322Q171 359 188 392T233 452T299 494T383 509Z" />
<glyph unicode="o" horiz-adv-x="652" d="M327 -11Q244 -11 178 19T74 107T36 248Q36 330 74 388T178 478T327 509Q410 509 475 478T577 389T615 248Q615 165 578 107T475 19T327 -11ZM327 80Q375 80 415 99T478 156T502 248Q502 302 479 340T416 398T327 419Q278
419 238 399T174 341T149 248Q149 194 173 156T237 99T327 80Z" />
<glyph unicode="p" horiz-adv-x="667" d="M382 -11Q321 -11 279 13T211 76T173 161T161 248Q161 303 172 350T209 432T277 488T382 509Q452 509 508 476T597 384T630 248Q630 171 597 113T507 22T382 -11ZM349 81Q399 81 437 102T496 161T517 248Q517 323 473
370T349 418Q299 418 259 397T196 339T173 248Q173 200 194 162T254 103T349 81ZM62 498H168L173 376V-200H62V498Z" />
<glyph unicode="q" horiz-adv-x="686" d="M284 -11Q216 -11 160 21T70 112T36 248Q36 325 69 383T159 475T284 509Q347 509 390 489T458 433T494 350T506 248Q506 207 494 162T457 77T389 13T284 -11ZM318 81Q374 81 413 102T473 162T494 248Q494 301 473 338T413
397T318 418Q238 418 194 371T150 248Q150 199 171 161T231 102T318 81ZM606 498V-200H494V386L497 498H606Z" />
<glyph unicode="r" horiz-adv-x="375" d="M62 498H173V0H62V498ZM353 403Q299 403 261 380T199 324T167 260L166 316Q167 327 173 349T191 399T225 451T278 493T353 509V403Z" />
<glyph unicode="s" horiz-adv-x="519" d="M40 164H143Q151 126 184 103T273 79Q309 79 329 87T358 109T367 141Q367 163 355 175T318 195T258 209Q221 218 185 229T120 256T75 298T58 361Q58 395 73 422T117 469T183 498T266 509Q331 509 374 488T440 429T463
342H365Q357 382 334 400T265 418Q219 418 195 402T171 358Q171 337 186 325T231 303T299 285Q335 275 367 265T424 239T465 198T480 136Q480 90 456 57T385 7T274 -11Q217 -11 176 2T107 36T64 81T44 127T40 164Z" />
<glyph unicode="t" horiz-adv-x="404" d="M27 498H379V407H27V498ZM147 632H259V0H147V632Z" />
<glyph unicode="u" horiz-adv-x="642" d="M581 0H470V498H581V0ZM476 237L477 205Q475 192 469 166T448 110T410 52T351 7T266 -11Q230 -11 194 -2T128 30T80 90T62 186V498H173V207Q173 160 188 134T232 96T297 85Q350 85 387 109T446 168T476 237Z" />
<glyph unicode="v" horiz-adv-x="578" d="M306 79H267L439 498H560L340 0H234L17 498H139L306 79Z" />
<glyph unicode="w" horiz-adv-x="908" d="M656 84L623 85L768 498H890L696 0H591L436 415H471L312 0H207L17 498H139L280 84H247L389 498H519L656 84Z" />
<glyph unicode="x" horiz-adv-x="603" d="M568 498L334 223L158 0H22L268 290L433 498H568ZM22 498H159L335 290L581 0H445L263 221L22 498Z" />
<glyph unicode="y" horiz-adv-x="590" d="M17 498H136L337 20L241 0L17 498ZM572 498L252 -200H135L272 73L453 498H572Z" />
<glyph unicode="z" horiz-adv-x="576" d="M515 408L152 55L139 90H521V0H56V90L421 442L435 408H56V498H515V408Z" />
<glyph unicode="{" horiz-adv-x="459" d="M121 800H371V706H227Q227 678 236 647T258 582T281 515T291 451Q291 408 269 377T207 328T113 304V318Q167 312 207 294T269 246T291 171Q291 140 281 107T259 41T237 -24T227 -84H371V-178H121Q113 -131 123 -81T150
17T182 105T196 171Q196 215 161 242T52 269V353Q126 353 161 380T196 451Q196 477 182 517T151 605T123 703T121 800Z" />
<glyph unicode="|" horiz-adv-x="303" d="M100 800H203V-160H100V800Z" />
<glyph unicode="}" horiz-adv-x="459" d="M264 451Q264 407 299 380T407 353V269Q334 269 299 242T264 171Q264 145 278 105T310 17T337 -81T339 -178H89V-84H233Q233 -56 223 -25T201 40T179 107T169 171Q169 215 191 245T253 294T347 318V304Q293 310 253 328T191
377T169 451Q169 482 178 515T200 581T223 646T233 706H89V800H339Q347 754 337 704T310 605T279 517T264 451Z" />
<glyph unicode="~" horiz-adv-x="294" d="M213 327V219H80V327H213Z" />
<glyph unicode="&#xa0;" horiz-adv-x="230" />
<glyph unicode="&#xa1;" horiz-adv-x="290" d="M89 -101V374H201V-101H89ZM212 467H78V575H212V467Z" />
<glyph unicode="&#xa2;" horiz-adv-x="634" d="M496 193H598Q592 129 557 83T464 13T329 -11Q324 -11 319 -11T308 -11L293 -97L222 -84L237 0Q148 22 92 84T36 248Q36 331 74 389T179 477T326 509L344 609L415 596L399 502Q484 487 536 436T597 306H495Q482 346
453 373T383 411L324 80H329Q396 80 437 109T496 193ZM149 248Q149 188 178 149T253 93L311 417Q266 414 230 394T171 337T149 248Z" />
<glyph unicode="&#xa3;" horiz-adv-x="586" d="M34 266V327H409V266H34ZM266 217Q266 188 254 167T226 131T193 109T169 98H530V0H70V98Q70 98 80 102T107 114T138 136T163 169T174 212Q174 231 168 249T151 285Q149 288 149 291T148 299T149 305T145 311Q131
327 116 345T86 385T63 430T54 482Q54 539 85 578T170 639T294 660Q350 660 396 646T476 607T528 546T546 468H430Q430 496 412 517T363 550T297 562Q262 562 232 553T184 522T165 468Q165 431 180 400T216 339T251 281T266 217Z" />
<glyph unicode="&#xa4;" horiz-adv-x="632" d="M317 111Q249 111 196 137T113 207T83 309Q83 366 113 410T196 480T317 506Q385 506 437 481T519 411T549 309Q549 251 520 207T438 137T317 111ZM317 197Q373 197 408 230T443 309Q443 355 408 388T317 421Q260
421 225 389T189 309Q189 263 224 230T317 197ZM131 55L80 104L174 204L228 160L131 55ZM502 55L404 160L461 202L553 104L502 55ZM179 409L80 515L131 563L229 458L179 409ZM452 407L402 456L502 563L553 515L452 407Z" />
<glyph unicode="&#xa5;" horiz-adv-x="685" d="M285 211L21 648H152L375 266H313L533 648H663L399 211H285ZM285 0V94H399V0H285ZM173 132H511V63H173V132ZM173 242H511V173H173V242Z" />
<glyph unicode="&#xa6;" horiz-adv-x="303" d="M203 197V-160H100V197H203ZM203 800V443H100V800H203Z" />
<glyph unicode="&#xa7;" horiz-adv-x="516" d="M296 234L335 240Q404 217 438 187T472 105Q472 41 420 3T281 -36Q215 -36 168 -17T92 31T51 89T42 139H141Q150 105 183 81T274 56Q321 55 343 71T365 116Q365 139 351 152T312 173T250 190Q192 203 143 221T65
268T35 341Q35 373 56 398T122 435T243 440L194 434Q140 452 106 470T57 511T41 565Q41 628 95 669T240 710Q336 710 392 665T449 544H350Q343 583 314 600T237 617Q197 617 173 601T148 558Q148 536 163 523T206 501T271 482Q327 469 373 452T448 407T476 330Q476
284 434 256T296 234ZM149 346Q149 323 166 309T213 283T284 260Q322 265 342 284T362 331Q362 357 347 371T304 394T235 414Q195 409 172 391T149 346Z" />
<glyph unicode="&#xa8;" horiz-adv-x="538" d="M224 710V602H91V710H224ZM426 710V602H293V710H426Z" />
<glyph unicode="&#xa9;" horiz-adv-x="911" d="M456 10Q333 10 242 49T102 161T52 332Q52 431 101 502T241 611T456 650Q580 650 670 612T810 502T859 332Q859 234 810 162T670 50T456 10ZM456 87Q528 87 586 103T687 151T753 228T776 332Q776 390 753 434T688
510T587 557T456 573Q384 573 325 557T224 510T158 435T135 332Q135 274 158 229T224 152T326 104T456 87ZM641 311Q641 273 621 246T560 203T462 188Q373 188 321 226T269 329Q269 373 292 404T359 453T462 471Q520 471 559 457T620 415T641 349H557Q551 373 527
386T462 399Q413 399 386 380T359 329Q359 297 385 279T462 261Q504 261 528 274T558 311H641Z" />
<glyph unicode="&#xaa;" horiz-adv-x="619" d="M252 296Q188 296 140 322T64 394T36 497Q36 559 63 607T141 682T260 709Q312 709 349 692T410 646T447 578T459 498Q459 471 447 437T409 370T344 317T252 296ZM282 386Q319 386 349 395T401 420T435 456T447 497Q447
525 435 547T401 584T349 608T282 617Q213 617 182 584T150 497Q150 450 184 418T282 386ZM447 698H558V306H455Q455 306 453 325T449 369T447 414V698Z" />
<glyph unicode="&#xab;" horiz-adv-x="552" d="M282 535L348 471L165 279L348 86L282 23L46 279L282 535ZM400 417L464 355L391 280L464 205L400 143L275 280L400 417Z" />
<glyph unicode="&#xac;" horiz-adv-x="676" d="M85 412H576V160H474V322H85V412Z" />
<glyph unicode="&#xad;" horiz-adv-x="600" d="M80 315H398V226H80V315Z" />
<glyph unicode="&#xae;" horiz-adv-x="863" d="M432 84Q321 84 235 122T101 228T52 382Q52 469 100 535T234 639T432 677Q544 677 629 640T762 536T811 382Q811 296 763 229T629 123T432 84ZM432 161Q498 161 552 177T645 222T706 292T728 382Q728 432 707 472T646
540T552 584T432 599Q366 599 312 584T218 541T157 472T135 382Q135 333 156 292T217 222T311 177T432 161ZM297 248V524H476Q539 524 568 501T597 436Q597 405 583 385T529 360Q555 356 568 349T586 330T591 302V248H512V299Q512 310 509 316T493 326T456 329H376V248H297ZM376
394H479Q498 394 508 402T518 427Q518 441 509 447T479 454H376V394Z" />
<glyph unicode="&#xaf;" horiz-adv-x="482" d="M100 610V687H382V610H100Z" />
<glyph unicode="&#xb0;" horiz-adv-x="412" d="M206 388Q161 388 125 405T69 453T48 524Q48 564 68 594T125 642T206 659Q252 659 287 642T343 595T364 524Q364 484 344 454T288 406T206 388ZM206 456Q245 456 267 475T289 524Q289 553 267 572T206 591Q168 591
146 572T124 524Q124 495 146 476T206 456Z" />
<glyph unicode="&#xb1;" horiz-adv-x="523" d="M50 249V335H473V249H50ZM58 -10V63H465V-10H58ZM215 126V458H309V126H215Z" />
<glyph unicode="&#xb2;" horiz-adv-x="333" d="M143 461L281 466V400H59V463Q107 499 141 520T192 558T210 597Q210 616 198 628T163 640Q139 640 126 623T119 582H53Q45 617 58 646T101 692T168 710Q224 710 253 680T283 607Q283 556 247 525T143 461Z" />
<glyph unicode="&#xb3;" horiz-adv-x="328" d="M208 549Q278 534 278 473Q278 439 252 411T166 382Q102 382 75 416T50 494H116Q115 481 124 467T166 452Q189 452 199 463T209 490Q209 524 161 524H106V573H161Q185 573 195 583T205 609Q205 642 164 642Q136 642
126 630T116 605H55Q48 647 77 678T166 710Q219 710 246 685T274 620Q274 595 259 576T208 549Z" />
<glyph unicode="&#xb4;" horiz-adv-x="449" d="M94 601L219 760H366L199 601H94Z" />
<glyph unicode="&#xb5;" horiz-adv-x="691" d="M678 -8Q604 -8 558 13T491 74T470 169V498H581V185Q581 145 591 126T623 100T678 93V-8ZM476 237L477 205Q475 192 470 166T452 110T419 52T364 7T284 -11Q237 -11 206 10T158 75L173 93V-200H62V498H173V211Q173
162 190 135T235 96T299 85Q352 85 389 109T447 168T476 237Z" />
<glyph unicode="&#xb6;" horiz-adv-x="673" d="M595 648V0H486V248H418V0H309V248H262Q196 248 144 271T61 339T30 448Q30 512 60 556T142 624T260 648H595ZM264 344H486V547H264Q214 547 179 524T143 445Q143 389 178 367T264 344Z" />
<glyph unicode="&#xb7;" horiz-adv-x="257" d="M195 327V219H62V327H195Z" />
<glyph unicode="&#xb8;" horiz-adv-x="480" d="M324 17V-95L289 -34Q310 -39 327 -47T357 -66T378 -94T386 -134Q386 -173 351 -204T245 -236Q201 -236 169 -219T121 -175T108 -117H189Q190 -123 194 -133T211 -152T245 -161Q272 -161 282 -148T293 -120Q293 -112
289 -101T270 -79T225 -60V17H324Z" />
<glyph unicode="&#xb9;" horiz-adv-x="243" d="M40 636V700H187V400H119V636H40Z" />
<glyph unicode="&#xba;" horiz-adv-x="652" d="M327 287Q248 287 190 313T101 386T69 497Q69 561 100 608T190 682T327 709Q406 709 463 683T551 609T583 497Q583 433 552 386T463 313T327 287ZM326 374Q375 374 407 390T455 433T472 497Q472 532 456 560T408
605T327 621Q279 621 246 605T196 561T179 497Q179 461 195 434T245 390T326 374Z" />
<glyph unicode="&#xbb;" horiz-adv-x="559" d="M197 471L263 535L499 279L263 23L196 86L380 279L197 471ZM80 355L144 417L270 280L144 143L80 205L153 280L80 355Z" />
<glyph unicode="&#xbc;" horiz-adv-x="857" d="M25 256V335H134V569H30V648H234V335H327V256H25ZM631 700L685 670L303 -20L251 12L631 700ZM672 0V73H487V147L680 392H768V147H816V73H768V0H672ZM585 145H674V276L585 145Z" />
<glyph unicode="&#xbd;" horiz-adv-x="900" d="M25 256V335H134V569H30V648H234V335H327V256H25ZM631 700L685 670L303 -20L251 12L631 700ZM860 0H555V78Q596 101 629 123T686 165T727 205T751 240T760 272Q760 320 704 320Q669 320 653 306T635 278H551Q549
312 567 340T620 385T706 402Q751 402 784 389T835 350T854 289Q854 251 835 220T786 162T718 111L662 78L860 80V0Z" />
<glyph unicode="&#xbe;" horiz-adv-x="836" d="M222 458Q261 455 289 445T333 416T349 366Q349 312 308 278T194 244Q144 244 108 261T53 307T37 373H113Q114 351 134 337T193 323Q229 323 244 336T260 375Q260 400 239 414T177 428H132V485H177Q219 485 236 497T254
533Q254 552 238 564T190 576Q157 576 138 564T118 533H41Q39 570 57 598T111 641T189 657Q261 657 301 626T342 552Q342 508 310 486T222 458ZM610 700L664 670L282 -20L230 12L610 700ZM650 0V73H465V147L658 392H746V147H794V73H746V0H650ZM563 145H652V276L563
145Z" />
<glyph unicode="&#xbf;" horiz-adv-x="588" d="M250 476V584H383V476H250ZM425 82H535Q536 52 527 22T499 -34T450 -81T382 -113T294 -125Q235 -125 191 -109T116 -64T70 4T55 90Q55 154 83 198T158 266T264 295V383H373V215H327Q245 215 207 183T169 93Q169 36
204 5T298 -26Q338 -26 366 -12T409 26T425 82Z" />
<glyph unicode="&#xc0;" horiz-adv-x="727" d="M168 152V249H554V152H168ZM18 0L301 648H423L708 0H585L337 585H387L140 0H18ZM315 731L147 890H294L419 731H315Z" />
<glyph unicode="&#xc1;" horiz-adv-x="727" d="M168 152V249H554V152H168ZM18 0L301 648H423L708 0H585L337 585H387L140 0H18ZM304 731L429 890H576L409 731H304Z" />
<glyph unicode="&#xc2;" horiz-adv-x="727" d="M168 152V249H554V152H168ZM18 0L301 648H423L708 0H585L337 585H387L140 0H18ZM418 890L570 731H446L329 866L396 865L278 731H153L306 890H418Z" />
<glyph unicode="&#xc3;" horiz-adv-x="727" d="M168 152V249H554V152H168ZM18 0L301 648H423L708 0H585L337 585H387L140 0H18ZM442 731Q414 731 393 740T353 761T316 783T274 793Q253 793 242 784T224 760T214 731H131Q137 768 153 799T197 849T263 869Q292 869
314 860T356 838T392 816T430 806Q451 806 463 816T481 840T491 868H574Q568 832 552 801T508 750T442 731Z" />
<glyph unicode="&#xc4;" horiz-adv-x="727" d="M168 152V249H554V152H168ZM18 0L301 648H423L708 0H585L337 585H387L140 0H18ZM197 652V544H64V652H197ZM663 652V544H530V652H663Z" />
<glyph unicode="&#xc5;" horiz-adv-x="727" d="M168 152V249H554V152H168ZM18 0L301 648H423L708 0H585L337 585H387L140 0H18ZM363 707Q302 707 264 737T226 819Q226 869 264 899T363 930Q425 930 462 900T500 819Q500 768 463 738T363 707ZM363 764Q397 764
412 778T428 819Q428 845 413 859T363 873Q328 873 313 859T297 819Q297 792 312 778T363 764Z" />
<glyph unicode="&#xc6;" horiz-adv-x="1070" d="M555 276V98H1010V0H442V586L466 580L139 0H18L391 648H1009V550H555V370H927V276H555ZM176 168V258H512V168H176Z" />
<glyph unicode="&#xc7;" horiz-adv-x="813" d="M336 -117Q338 -123 342 -133T358 -152T393 -161Q420 -161 430 -148T440 -120Q440 -112 436 -101T417 -79T373 -60L439 -35Q465 -40 486 -52T520 -84T533 -134Q533 -173 499 -204T393 -236Q348 -236 316 -219T268
-175T256 -117H336ZM373 17H471V-68L373 -60V17ZM761 227Q751 152 708 99T594 17T427 -12Q345 -12 277 10T158 74T80 179T52 323Q52 405 79 467T157 572T276 638T427 660Q523 660 594 631T709 548T761 418H651Q637 463 607 494T532 543T427 560Q353 560 294 533T202
453T168 323Q168 247 201 195T294 115T427 88Q486 88 531 104T606 152T650 227H761Z" />
<glyph unicode="&#xc8;" horiz-adv-x="707" d="M192 276V98H647V0H78V648H646V550H192V370H564V276H192ZM317 731L149 890H296L421 731H317Z" />
<glyph unicode="&#xc9;" horiz-adv-x="707" d="M192 276V98H647V0H78V648H646V550H192V370H564V276H192ZM306 731L431 890H578L411 731H306Z" />
<glyph unicode="&#xca;" horiz-adv-x="707" d="M192 276V98H647V0H78V648H646V550H192V370H564V276H192ZM421 890L573 731H449L332 866L399 865L281 731H156L309 890H421Z" />
<glyph unicode="&#xcb;" horiz-adv-x="707" d="M192 276V98H647V0H78V648H646V550H192V370H564V276H192ZM331 840V732H197V840H331ZM533 840V732H400V840H533Z" />
<glyph unicode="&#xcc;" horiz-adv-x="308" d="M97 648H211V0H97V648ZM106 731L-62 890H85L210 731H106Z" />
<glyph unicode="&#xcd;" horiz-adv-x="308" d="M97 648H211V0H97V648ZM95 731L220 890H367L200 731H95Z" />
<glyph unicode="&#xce;" horiz-adv-x="308" d="M97 648H211V0H97V648ZM209 890L361 731H237L120 866L187 865L69 731H-56L97 890H209Z" />
<glyph unicode="&#xcf;" horiz-adv-x="308" d="M97 648H211V0H97V648ZM120 840V732H-14V840H120ZM322 840V732H189V840H322Z" />
<glyph unicode="&#xd0;" horiz-adv-x="808" d="M389 648Q494 648 565 622T678 552T738 449T757 327Q757 262 737 203T674 99T560 27T389 0H78V648H389ZM192 100H388Q462 100 511 119T589 170T630 243T642 327Q642 370 630 409T589 480T511 530T388 549H192V100ZM253
617H590V548H253V617Z" />
<glyph unicode="&#xd1;" horiz-adv-x="834" d="M677 118L643 105V648H756V0H643L157 527L192 540V0H78V648H192L677 118ZM503 731Q475 731 454 740T414 761T377 783T335 793Q314 793 303 784T285 760T275 731H192Q198 768 214 799T258 849T324 869Q353 869 375
860T417 838T453 816T491 806Q512 806 524 816T542 840T552 868H635Q629 832 613 801T569 750T503 731Z" />
<glyph unicode="&#xd2;" horiz-adv-x="856" d="M428 -12Q314 -12 230 29T99 145T52 324Q52 428 98 503T229 619T428 660Q543 660 627 620T757 504T804 324Q804 220 758 145T627 29T428 -12ZM428 88Q504 88 562 114T653 192T687 324Q687 402 654 454T562 533T428
560Q353 560 294 534T201 455T167 324Q167 245 201 193T294 114T428 88ZM380 733L212 892H359L484 733H380Z" />
<glyph unicode="&#xd3;" horiz-adv-x="856" d="M428 -12Q314 -12 230 29T99 145T52 324Q52 428 98 503T229 619T428 660Q543 660 627 620T757 504T804 324Q804 220 758 145T627 29T428 -12ZM428 88Q504 88 562 114T653 192T687 324Q687 402 654 454T562 533T428
560Q353 560 294 534T201 455T167 324Q167 245 201 193T294 114T428 88ZM369 733L494 892H641L474 733H369Z" />
<glyph unicode="&#xd4;" horiz-adv-x="856" d="M428 -12Q314 -12 230 29T99 145T52 324Q52 428 98 503T229 619T428 660Q543 660 627 620T757 504T804 324Q804 220 758 145T627 29T428 -12ZM428 88Q504 88 562 114T653 192T687 324Q687 402 654 454T562 533T428
560Q353 560 294 534T201 455T167 324Q167 245 201 193T294 114T428 88ZM483 892L635 733H511L394 868L461 867L343 733H218L371 892H483Z" />
<glyph unicode="&#xd5;" horiz-adv-x="856" d="M428 -12Q314 -12 230 29T99 145T52 324Q52 428 98 503T229 619T428 660Q543 660 627 620T757 504T804 324Q804 220 758 145T627 29T428 -12ZM428 88Q504 88 562 114T653 192T687 324Q687 402 654 454T562 533T428
560Q353 560 294 534T201 455T167 324Q167 245 201 193T294 114T428 88ZM507 733Q479 733 458 742T418 763T381 785T339 795Q318 795 307 786T289 762T279 733H196Q202 770 218 801T262 851T328 871Q357 871 379 862T421 840T457 818T495 808Q516 808 528 818T546
842T556 870H639Q633 834 617 803T573 752T507 733Z" />
<glyph unicode="&#xd6;" horiz-adv-x="857" d="M428 -12Q314 -12 230 29T99 145T52 324Q52 428 98 503T229 619T428 660Q543 660 627 620T757 504T804 324Q804 220 758 145T627 29T428 -12ZM428 88Q504 88 562 114T653 192T687 324Q687 402 654 454T562 533T428
560Q353 560 294 534T201 455T167 324Q167 245 201 193T294 114T428 88ZM181 721V613H48V721H181ZM816 721V613H683V721H816Z" />
<glyph unicode="&#xd7;" horiz-adv-x="465" d="M116 90L409 382L348 442L56 150L116 90ZM348 90L409 150L116 442L56 382L348 90Z" />
<glyph unicode="&#xd8;" horiz-adv-x="856" d="M428 -12Q314 -12 230 29T99 145T52 324Q52 428 98 503T229 619T428 660Q543 660 627 620T757 504T804 324Q804 220 758 145T627 29T428 -12ZM428 88Q504 88 562 114T653 192T687 324Q687 402 654 454T562 533T428
560Q353 560 294 534T201 455T167 324Q167 245 201 193T294 114T428 88ZM596 943L650 913L258 204L206 236L596 943Z" />
<glyph unicode="&#xd9;" horiz-adv-x="812" d="M621 273V648H734V264Q734 203 718 157T671 79T600 27T511 -3T408 -12Q352 -12 302 -3T211 26T141 79T95 157T78 264V648H192V273Q192 197 220 158T298 103T408 88Q467 88 515 103T592 157T621 273ZM359 731L191
890H338L463 731H359Z" />
<glyph unicode="&#xda;" horiz-adv-x="812" d="M621 273V648H734V264Q734 203 718 157T671 79T600 27T511 -3T408 -12Q352 -12 302 -3T211 26T141 79T95 157T78 264V648H192V273Q192 197 220 158T298 103T408 88Q467 88 515 103T592 157T621 273ZM348 731L473
890H620L453 731H348Z" />
<glyph unicode="&#xdb;" horiz-adv-x="812" d="M621 273V648H734V264Q734 203 718 157T671 79T600 27T511 -3T408 -12Q352 -12 302 -3T211 26T141 79T95 157T78 264V648H192V273Q192 197 220 158T298 103T408 88Q467 88 515 103T592 157T621 273ZM463 890L615
731H491L374 866L441 865L323 731H198L351 890H463Z" />
<glyph unicode="&#xdc;" horiz-adv-x="812" d="M621 273V648H734V264Q734 203 718 157T671 79T600 27T511 -3T408 -12Q352 -12 302 -3T211 26T141 79T95 157T78 264V648H192V273Q192 197 220 158T298 103T408 88Q467 88 515 103T592 157T621 273ZM372 648V540H238V648H372ZM574
648V540H441V648H574Z" />
<glyph unicode="&#xdd;" horiz-adv-x="685" d="M663 648L399 211V0H285V211L21 648H152L375 266H313L533 648H663ZM283 731L408 890H555L388 731H283Z" />
<glyph unicode="&#xde;" horiz-adv-x="703" d="M412 538Q463 538 507 526T585 487T637 420T656 324Q656 269 637 229T585 162T508 123T412 110H167V206H420Q474 206 508 237T542 324Q542 380 508 411T420 442H167V538H412ZM76 648H190V0H76V648Z" />
<glyph unicode="&#xdf;" horiz-adv-x="642" d="M323 -168V-78Q376 -78 412 -71T470 -51T501 -18T511 29Q511 55 503 74T474 108T420 129T336 137H299V224L468 441L487 402H167V492H567V410L386 163L378 204Q427 204 471 195T550 166T604 113T624 31Q624 -16 603
-52T543 -115T448 -154T323 -168ZM72 0V526Q72 586 94 624T157 680T256 698H344V602H269Q232 603 208 585T183 516V0H72Z" />
<glyph unicode="&#xe0;" horiz-adv-x="666" d="M284 -11Q216 -11 160 22T70 113T36 248Q36 326 70 384T162 476T292 509Q372 509 419 474T486 380T506 248Q506 207 494 162T457 77T389 14T284 -11ZM318 81Q374 81 413 102T473 162T494 248Q494 301 473 338T413
396T318 417Q238 417 194 370T150 248Q150 199 171 161T231 102T318 81ZM494 498H606V0H502Q502 0 500 19T496 65T494 118V498ZM272 601L104 760H251L376 601H272Z" />
<glyph unicode="&#xe1;" horiz-adv-x="666" d="M284 -11Q216 -11 160 22T70 113T36 248Q36 326 70 384T162 476T292 509Q372 509 419 474T486 380T506 248Q506 207 494 162T457 77T389 14T284 -11ZM318 81Q374 81 413 102T473 162T494 248Q494 301 473 338T413
396T318 417Q238 417 194 370T150 248Q150 199 171 161T231 102T318 81ZM494 498H606V0H502Q502 0 500 19T496 65T494 118V498ZM262 601L387 760H534L367 601H262Z" />
<glyph unicode="&#xe2;" horiz-adv-x="666" d="M284 -11Q216 -11 160 22T70 113T36 248Q36 326 70 384T162 476T292 509Q372 509 419 474T486 380T506 248Q506 207 494 162T457 77T389 14T284 -11ZM318 81Q374 81 413 102T473 162T494 248Q494 301 473 338T413
396T318 417Q238 417 194 370T150 248Q150 199 171 161T231 102T318 81ZM494 498H606V0H502Q502 0 500 19T496 65T494 118V498ZM376 760L528 601H404L287 736L354 735L236 601H111L264 760H376Z" />
<glyph unicode="&#xe3;" horiz-adv-x="666" d="M284 -11Q216 -11 160 22T70 113T36 248Q36 326 70 384T162 476T292 509Q372 509 419 474T486 380T506 248Q506 207 494 162T457 77T389 14T284 -11ZM318 81Q374 81 413 102T473 162T494 248Q494 301 473 338T413
396T318 417Q238 417 194 370T150 248Q150 199 171 161T231 102T318 81ZM494 498H606V0H502Q502 0 500 19T496 65T494 118V498ZM400 601Q372 601 351 610T311 631T274 653T232 663Q211 663 200 654T182 630T172 601H89Q95 638 111 669T155 719T221 739Q250 739
272 730T314 708T350 686T388 676Q409 676 421 686T439 710T449 738H532Q526 702 510 671T466 620T400 601Z" />
<glyph unicode="&#xe4;" horiz-adv-x="666" d="M284 -11Q216 -11 160 22T70 113T36 248Q36 326 70 384T162 476T292 509Q372 509 419 474T486 380T506 248Q506 207 494 162T457 77T389 14T284 -11ZM318 81Q374 81 413 102T473 162T494 248Q494 301 473 338T413
396T318 417Q238 417 194 370T150 248Q150 199 171 161T231 102T318 81ZM494 498H606V0H502Q502 0 500 19T496 65T494 118V498ZM287 710V602H153V710H287ZM489 710V602H356V710H489Z" />
<glyph unicode="&#xe5;" horiz-adv-x="666" d="M284 -11Q216 -11 160 22T70 113T36 248Q36 326 70 384T162 476T292 509Q372 509 419 474T486 380T506 248Q506 207 494 162T457 77T389 14T284 -11ZM318 81Q374 81 413 102T473 162T494 248Q494 301 473 338T413
396T318 417Q238 417 194 370T150 248Q150 199 171 161T231 102T318 81ZM494 498H606V0H502Q502 0 500 19T496 65T494 118V498ZM321 577Q260 577 222 607T184 689Q184 739 222 769T321 800Q383 800 420 770T458 689Q458 638 421 608T321 577ZM321 634Q355 634 370
648T386 689Q386 715 371 729T321 743Q286 743 271 729T255 689Q255 662 270 648T321 634Z" />
<glyph unicode="&#xe6;" horiz-adv-x="1157" d="M284 -11Q216 -11 160 22T70 113T36 248Q36 326 70 384T162 476T292 509Q372 509 419 474T486 380T506 248Q506 207 494 162T457 77T389 14T284 -11ZM318 81Q374 81 413 102T473 162T494 248Q494 301 473 338T413
396T318 417Q238 417 194 370T150 248Q150 199 171 161T231 102T318 81ZM494 498H606V0H502Q500 23 497 57T494 118V498ZM1011 162H1118Q1110 112 1078 72T993 10T864 -13Q778 -13 711 18T607 108T569 246Q569 325 605 384T707 475T859 507Q948 507 1007 476T1096
382T1120 224H681Q686 182 708 149T770 97T862 78Q920 78 959 101T1011 162ZM856 417Q788 417 744 384T687 298H1008Q1004 354 963 385T856 417Z" />
<glyph unicode="&#xe7;" horiz-adv-x="634" d="M239 -127Q241 -133 245 -143T261 -162T296 -171Q323 -171 333 -158T344 -130Q344 -122 340 -111T321 -89T276 -70L342 -45Q368 -50 389 -62T424 -94T437 -144Q437 -183 402 -214T296 -246Q251 -246 219 -229T172
-185T159 -127H239ZM276 7H374V-78L276 -70V7ZM598 193Q592 129 557 83T464 13T329 -11Q247 -11 181 19T75 107T36 248Q36 331 75 389T180 478T329 509Q405 509 463 485T556 415T597 306H495Q478 359 434 388T329 418Q280 418 239 399T174 342T149 248Q149 193
173 155T239 99T329 80Q395 80 437 109T496 193H598Z" />
<glyph unicode="&#xe8;" horiz-adv-x="625" d="M478 164H585Q577 113 546 74T460 12T331 -11Q246 -11 179 20T74 110T36 248Q36 327 73 386T175 477T327 509Q416 509 475 478T564 384T588 226H149Q154 184 176 151T238 99T329 80Q387 80 426 103T478 164ZM324
419Q256 419 212 386T155 300H476Q472 356 431 387T324 419ZM277 601L109 760H256L381 601H277Z" />
<glyph unicode="&#xe9;" horiz-adv-x="625" d="M478 164H585Q577 113 546 74T460 12T331 -11Q246 -11 179 20T74 110T36 248Q36 327 73 386T175 477T327 509Q416 509 475 478T564 384T588 226H149Q154 184 176 151T238 99T329 80Q387 80 426 103T478 164ZM324
419Q256 419 212 386T155 300H476Q472 356 431 387T324 419ZM266 601L391 760H538L371 601H266Z" />
<glyph unicode="&#xea;" horiz-adv-x="625" d="M478 164H585Q577 113 546 74T460 12T331 -11Q246 -11 179 20T74 110T36 248Q36 327 73 386T175 477T327 509Q416 509 475 478T564 384T588 226H149Q154 184 176 151T238 99T329 80Q387 80 426 103T478 164ZM324
419Q256 419 212 386T155 300H476Q472 356 431 387T324 419ZM380 760L532 601H408L291 736L358 735L240 601H115L268 760H380Z" />
<glyph unicode="&#xeb;" horiz-adv-x="625" d="M478 164H585Q577 113 546 74T460 12T331 -11Q246 -11 179 20T74 110T36 248Q36 327 73 386T175 477T327 509Q416 509 475 478T564 384T588 226H149Q154 184 176 151T238 99T329 80Q387 80 426 103T478 164ZM324
419Q256 419 212 386T155 300H476Q472 356 431 387T324 419ZM291 710V602H157V710H291ZM493 710V602H360V710H493Z" />
<glyph unicode="&#xec;" horiz-adv-x="230" d="M59 498H170V0H59V498ZM66 600L-102 759H45L170 600H66Z" />
<glyph unicode="&#xed;" horiz-adv-x="230" d="M59 498H170V0H59V498ZM311 856L436 1015H583L416 856H311Z" />
<glyph unicode="&#xee;" horiz-adv-x="230" d="M59 498H170V0H59V498ZM170 759L322 600H198L81 735L148 734L30 600H-95L58 759H170Z" />
<glyph unicode="&#xef;" horiz-adv-x="200" d="M59 498H170V0H59V498ZM112 710V602H-21V710H112ZM245 710V602H112V710H245Z" />
<glyph unicode="&#xf0;" horiz-adv-x="639" d="M322 81Q361 81 392 93T446 127T481 180T494 247Q494 286 481 316T445 368T390 401T320 412Q240 412 195 366T150 246Q150 170 197 126T322 81ZM463 709L514 654L393 545L345 601L463 709ZM145 624L168 709Q256 687
321 656T434 588T513 510T562 425T588 340T595 259Q595 215 583 175T547 101T490 42T413 3T318 -11Q231 -11 168 21T71 113T36 248Q36 306 54 353T106 433T183 485T280 503Q335 503 375 487T443 442T484 374L480 379Q468 419 444 455T379 522T282 579T145 624Z"
/>
<glyph unicode="&#xf1;" horiz-adv-x="642" d="M62 498H173V0H62V498ZM383 509Q426 509 462 497T525 461T566 400T581 315V0H470V293Q470 354 441 383T348 413Q300 413 261 393T196 340T167 268L166 322Q171 359 188 392T233 452T299 494T383 509ZM430 601Q402
601 381 610T341 631T304 653T262 663Q241 663 230 654T212 630T202 601H119Q125 638 141 669T185 719T251 739Q280 739 302 730T344 708T380 686T418 676Q439 676 451 686T469 710T479 738H562Q556 702 540 671T496 620T430 601Z" />
<glyph unicode="&#xf2;" horiz-adv-x="652" d="M327 -11Q244 -11 178 19T74 107T36 248Q36 330 74 388T178 478T327 509Q410 509 475 478T577 389T615 248Q615 165 578 107T475 19T327 -11ZM327 80Q375 80 415 99T478 156T502 248Q502 302 479 340T416 398T327
419Q278 419 238 399T174 341T149 248Q149 194 173 156T237 99T327 80ZM278 601L110 760H257L382 601H278Z" />
<glyph unicode="&#xf3;" horiz-adv-x="652" d="M327 -11Q244 -11 178 19T74 107T36 248Q36 330 74 388T178 478T327 509Q410 509 475 478T577 389T615 248Q615 165 578 107T475 19T327 -11ZM327 80Q375 80 415 99T478 156T502 248Q502 302 479 340T416 398T327
419Q278 419 238 399T174 341T149 248Q149 194 173 156T237 99T327 80ZM268 601L393 760H540L373 601H268Z" />
<glyph unicode="&#xf4;" horiz-adv-x="652" d="M327 -11Q244 -11 178 19T74 107T36 248Q36 330 74 388T178 478T327 509Q410 509 475 478T577 389T615 248Q615 165 578 107T475 19T327 -11ZM327 80Q375 80 415 99T478 156T502 248Q502 302 479 340T416 398T327
419Q278 419 238 399T174 341T149 248Q149 194 173 156T237 99T327 80ZM382 760L534 601H410L293 736L360 735L242 601H117L270 760H382Z" />
<glyph unicode="&#xf5;" horiz-adv-x="652" d="M327 -11Q244 -11 178 19T74 107T36 248Q36 330 74 388T178 478T327 509Q410 509 475 478T577 389T615 248Q615 165 578 107T475 19T327 -11ZM327 80Q375 80 415 99T478 156T502 248Q502 302 479 340T416 398T327
419Q278 419 238 399T174 341T149 248Q149 194 173 156T237 99T327 80ZM406 601Q378 601 357 610T317 631T280 653T238 663Q217 663 206 654T188 630T178 601H95Q101 638 117 669T161 719T227 739Q256 739 278 730T320 708T356 686T394 676Q415 676 427 686T445
710T455 738H538Q532 702 516 671T472 620T406 601Z" />
<glyph unicode="&#xf6;" horiz-adv-x="652" d="M327 -11Q244 -11 178 19T74 107T36 248Q36 330 74 388T178 478T327 509Q410 509 475 478T577 389T615 248Q615 165 578 107T475 19T327 -11ZM327 80Q375 80 415 99T478 156T502 248Q502 302 479 340T416 398T327
419Q278 419 238 399T174 341T149 248Q149 194 173 156T237 99T327 80ZM293 710V602H159V710H293ZM495 710V602H362V710H495Z" />
<glyph unicode="&#xf7;" horiz-adv-x="512" d="M50 313H462V224H50V313ZM307 170V70H173V170H307ZM307 465V364H173V465H307Z" />
<glyph unicode="&#xf8;" horiz-adv-x="652" d="M459 536L513 506L191 -37L139 -5L459 536ZM327 -11Q244 -11 178 19T74 107T36 248Q36 330 74 388T178 478T327 509Q410 509 475 478T577 389T615 248Q615 165 578 107T475 19T327 -11ZM327 80Q375 80 415 99T478
156T502 248Q502 302 479 340T416 398T327 419Q278 419 238 399T174 341T149 248Q149 194 173 156T237 99T327 80Z" />
<glyph unicode="&#xf9;" horiz-adv-x="642" d="M581 0H470V498H581V0ZM476 237L477 205Q475 192 469 166T448 110T410 52T351 7T266 -11Q230 -11 194 -2T128 30T80 90T62 186V498H173V207Q173 160 188 134T232 96T297 85Q350 85 387 109T446 168T476 237ZM282
601L114 760H261L386 601H282Z" />
<glyph unicode="&#xfa;" horiz-adv-x="642" d="M581 0H470V498H581V0ZM476 237L477 205Q475 192 469 166T448 110T410 52T351 7T266 -11Q230 -11 194 -2T128 30T80 90T62 186V498H173V207Q173 160 188 134T232 96T297 85Q350 85 387 109T446 168T476 237ZM271
601L396 760H543L376 601H271Z" />
<glyph unicode="&#xfb;" horiz-adv-x="642" d="M581 0H470V498H581V0ZM476 237L477 205Q475 192 469 166T448 110T410 52T351 7T266 -11Q230 -11 194 -2T128 30T80 90T62 186V498H173V207Q173 160 188 134T232 96T297 85Q350 85 387 109T446 168T476 237ZM385
760L537 601H413L296 736L363 735L245 601H120L273 760H385Z" />
<glyph unicode="&#xfc;" horiz-adv-x="642" d="M581 0H470V498H581V0ZM476 237L477 205Q475 192 469 166T448 110T410 52T351 7T266 -11Q230 -11 194 -2T128 30T80 90T62 186V498H173V207Q173 160 188 134T232 96T297 85Q350 85 387 109T446 168T476 237ZM296
710V602H162V710H296ZM498 710V602H365V710H498Z" />
<glyph unicode="&#xfd;" horiz-adv-x="590" d="M17 498H136L337 20L241 0L17 498ZM572 498L252 -200H135L272 73L453 498H572ZM235 601L360 760H507L340 601H235Z" />
<glyph unicode="&#xfe;" horiz-adv-x="667" d="M382 -11Q321 -11 279 13T211 76T173 161T161 248Q161 303 172 350T209 432T277 488T382 509Q452 509 508 476T597 384T630 248Q630 171 597 113T507 22T382 -11ZM349 81Q399 81 437 102T496 161T517 248Q517 323
473 370T349 417Q299 417 259 397T196 339T173 248Q173 200 194 162T254 103T349 81ZM62 697H173V376V-200H62V697Z" />
<glyph unicode="&#xff;" horiz-adv-x="590" d="M17 498H136L337 20L241 0L17 498ZM572 498L252 -200H135L272 73L453 498H572ZM260 710V602H126V710H260ZM462 710V602H329V710H462Z" />
<glyph unicode="&#x2013;" horiz-adv-x="588" d="M80 317H508V225H80V317Z" />
<glyph unicode="&#x2014;" horiz-adv-x="828" d="M60 318H768V226H60V318Z" />
<glyph unicode="&#x2018;" horiz-adv-x="219" d="M148 701L168 671Q152 647 139 620T124 565L178 554V446H41V524Q41 591 71 633T148 701Z" />
<glyph unicode="&#x2019;" horiz-adv-x="219" d="M70 397L50 427Q66 451 79 478T94 533L41 544V652H178V574Q178 508 148 466T70 397Z" />
<glyph unicode="&#x201a;" horiz-adv-x="219" d="M70 -146L50 -117Q66 -93 79 -66T94 -11L41 0V108H178V31Q178 -37 148 -78T70 -146Z" />
<glyph unicode="&#x201c;" horiz-adv-x="399" d="M148 701L168 671Q152 647 139 620T124 565L178 554V446H41V524Q41 591 71 633T148 701ZM328 701L348 671Q332 647 319 620T304 565L358 554V446H221V524Q221 591 251 633T328 701Z" />
<glyph unicode="&#x201d;" horiz-adv-x="399" d="M70 397L50 427Q66 451 79 478T94 533L41 544V652H178V574Q178 508 148 466T70 397ZM250 397L230 427Q246 451 259 478T274 533L221 544V652H358V574Q358 508 328 466T250 397Z" />
<glyph unicode="&#x201e;" horiz-adv-x="399" d="M70 -147L50 -117Q66 -93 79 -66T94 -11L41 0V108H178V30Q178 -36 148 -78T70 -147ZM250 -147L230 -117Q246 -93 259 -66T274 -11L221 0V108H358V30Q358 -36 328 -78T250 -147Z" />
<glyph unicode="&#x2022;" horiz-adv-x="452" d="M98 390H354V134H98V390Z" />
<glyph unicode="&#x2039;" horiz-adv-x="412" d="M60 279L296 535L362 471L124 222L60 279ZM60 279L124 336L362 86L296 23L60 279Z" />
<glyph unicode="&#x203a;" horiz-adv-x="412" d="M352 279L287 222L50 471L116 535L352 279ZM352 279L116 23L50 86L287 336L352 279Z" />
</font>
</defs>
</svg>
